<?xml version="1.0" encoding="utf-8"?>
<!-- Generator: Adobe Illustrator 22.0.1, SVG Export Plug-In . SVG Version: 6.00 Build 0)  -->
<svg version="1.1" id="cbb27dff-01cf-4d21-b827-02c6f7b52fd7"
	 xmlns="http://www.w3.org/2000/svg" xmlns:xlink="http://www.w3.org/1999/xlink" x="0px" y="0px" viewBox="0 0 1020 668.2"
	 style="enable-background:new 0 0 1020 668.2;" xml:space="preserve">
<style type="text/css">
	.st0{opacity:0.1;fill:#3ABCEF;enable-background:new    ;}
	.st1{opacity:0.5;}
	.st2{fill:#3ABCEF;}
	.st3{fill:#FFB9B9;}
	.st4{opacity:5.000000e-02;enable-background:new    ;}
	.st5{fill:#737A9D;}
	.st6{fill:#4C4C78;}
	.st7{opacity:0.1;enable-background:new    ;}
	.st8{opacity:0.2;fill:#FFFFFF;enable-background:new    ;}
	.st9{fill:#CBCDDA;}
	.st10{fill:#B96B6B;}
	.st11{opacity:0.1;}
	.st12{opacity:0.8;}
	.st13{opacity:0.1;fill:#FFFFFF;enable-background:new    ;}
	.st14{opacity:0.2;enable-background:new    ;}
	.st15{fill:none;stroke:#3ABCEF;stroke-miterlimit:10;}
</style>
<title>healthy_habit</title>
<path class="st0" d="M19.8,213c-7.7,23.3,14.9,44.2,32.7,61c24.3,23.1,43.5,51.1,56.3,82c7.7,18.7,13.1,38.9,11.6,59.1
	c-4.1,57.3-58.1,95.5-101.2,133.5c-6.1,5.4-12.2,11.1-15.8,18.4c-11.4,23.5,8,50.6,29.4,65.5c76.2,53.3,186.2,37.5,260.1-19
	c38.3-29.2,71.2-69,117.6-82c29.7-8.3,61.1-4.3,91.8-1.8c46,3.8,92.2,4.4,138.3,1.6c16.2-1,33.1-2.6,46.7-11.4
	c34.3-22.5,28.5-75.8,53.3-108.5c17.8-23.5,48.2-32.6,74.7-45.5c40.7-20.1,74.7-51.7,97.8-90.8c21.3-36.2,32.3-77.3,43-117.8
	c8.1-30.5,16.2-62.4,9.4-93.1S931.5,4.8,900.1,7.5c-24.1,2.1-43.3,21.1-66.5,27.9C778,51.8,724-5.1,666.3,0.4
	c-36.3,3.4-65.6,31-87.8,60s-40.9,61.6-70.2,83.5c-45.5,34-107.8,35.2-163.5,24.2s-109.1-32.7-165.5-39.9
	c-33.2-4.3-58.6,15.5-88.5,26.4C63.5,164.5,29.9,182.3,19.8,213z"/>
<ellipse class="st0" cx="928.8" cy="597.5" rx="72.7" ry="22.1"/>
<ellipse class="st0" cx="825.7" cy="363.4" rx="194.3" ry="12.9"/>
<g class="st1">
	<path class="st2" d="M708.3,68.4L708.3,68.4c5.6,0,10.2,4.5,10.2,10.2v282.5l0,0h-20.3l0,0V78.6C698.1,72.9,702.7,68.4,708.3,68.4z
		"/>
	<path class="st2" d="M931.2,68.4L931.2,68.4c5.6,0,10.2,4.5,10.2,10.2v282.5l0,0H921l0,0V78.6C921,72.9,925.6,68.4,931.2,68.4
		C931.2,68.4,931.2,68.4,931.2,68.4z"/>
	<path class="st2" d="M1000.7,121.4L1000.7,121.4c0,5.6-4.5,10.2-10.2,10.2H649c-5.6,0-10.2-4.5-10.2-10.2v0
		c0-5.6,4.5-10.2,10.2-10.2h341.5C996.1,111.2,1000.7,115.8,1000.7,121.4z"/>
	<path class="st2" d="M684.1,83.2L684.1,83.2c4.4,0,8,3.6,8,8v60.4c0,4.4-3.6,8-8,8h0c-4.4,0-8-3.6-8-8V91.2
		C676.2,86.8,679.7,83.2,684.1,83.2z"/>
	<path class="st2" d="M668.2,90.4L668.2,90.4c4.4,0,8,3.6,8,8v46.1c0,4.4-3.6,8-8,8h0c-4.4,0-8-3.6-8-8V98.3
		C660.2,93.9,663.8,90.4,668.2,90.4z"/>
	<path class="st2" d="M955.4,159.5L955.4,159.5c-4.4,0-8-3.6-8-8V91.2c0-4.4,3.6-8,8-8h0c4.4,0,8,3.6,8,8v60.4
		C963.3,156,959.8,159.5,955.4,159.5z"/>
	<path class="st2" d="M971.3,152.4L971.3,152.4c-4.4,0-8-3.6-8-8V98.3c0-4.4,3.6-8,8-8h0c4.4,0,8,3.6,8,8v46.1
		C979.3,148.8,975.7,152.4,971.3,152.4z"/>
</g>
<g class="st1">
	<path class="st2" d="M799.5,186.6H841c9.4,0,17,7.6,17,17V275l0,0h-75.5l0,0v-71.4C782.5,194.3,790.1,186.7,799.5,186.6z"/>
	<rect x="814.7" y="268.6" class="st2" width="11" height="36.8"/>
	<rect x="792.6" y="310" class="st2" width="11" height="36.8"/>
	<rect x="838.6" y="310" class="st2" width="11" height="36.8"/>
	<rect x="782.5" y="302.6" class="st2" width="75.5" height="10.1"/>
</g>
<ellipse class="st0" cx="484" cy="496.5" rx="414.3" ry="30.4"/>
<path class="st3" d="M522.3,389.7c0,0,28.5,12.9,42.3,12.9c0,0,14.7,3.7,23,7.4s40.5,5.5,40.5,5.5s37.8,13.8,42.3,20.3
	s18.4-23,18.4-23l-7.4-18.4l-139-26.7L522.3,389.7z"/>
<path class="st4" d="M522.3,389.7c0,0,28.5,12.9,42.3,12.9c0,0,14.7,3.7,23,7.4s40.5,5.5,40.5,5.5s37.8,13.8,42.3,20.3
	s18.4-23,18.4-23l-7.4-18.4l-139-26.7L522.3,389.7z"/>
<path class="st5" d="M663.2,430.2c0,0,17.5,23,10.1,36.8s-4.6,13.8,0,14.7s30.4,6.5,33.2-13.8s8.3-65.4,8.3-65.4l-37.8-3.7
	C677,398.9,687.2,433,663.2,430.2z"/>
<path class="st6" d="M445.9,359.3l79.2,36.8c0,0,24.9-19.3,23-29.5L456,344.6L445.9,359.3z"/>
<path class="st7" d="M445.9,359.3l79.2,36.8c0,0,24.9-19.3,23-29.5L456,344.6L445.9,359.3z"/>
<path class="st3" d="M778.3,407.2l-8.3,20.3l-19.3,4.6c-5.4-4.5-11.2-8.6-17.3-12.1c-10.4-6-24.1-11.9-37-10.9c0,0-51.6-8.3-54.3-12
	c0,0-33.2-7.4-40.5-6.5c-3.5,0.4-11.2-2.1-18.1-4.9c-7.5-3-14.1-6.2-14.1-6.2l23.9-37.8c2.8,1.2,5.7,2.2,8.6,3
	c9.2,2.7,25.6,6.2,49.4,6.2c38.7,0,92.1,39.6,92.1,39.6s0.5,0.2,1.4,0.5c4,1.2,15.4,4.1,20.7-0.5
	C771.9,385.1,778.3,407.2,778.3,407.2z"/>
<path class="st7" d="M778.3,407.2l-8.3,20.3l-19.3,4.6c-5.4-4.5-11.2-8.6-17.3-12.1c28.1,2.1,11.3-28.9,11.3-28.9h0.1
	c4,1.2,15.4,4.1,20.7-0.5C771.9,385.1,778.3,407.2,778.3,407.2z"/>
<path class="st5" d="M733.5,420.7c0,0,22.3,31.2,12.9,48.8s-5.9,17.6,0,18.8s38.7,8.2,42.2-17.6c2.7-19.8,0.3-57.9-0.9-74.4
	c-0.3-4.3-4.1-7.6-8.5-7.3c0,0-0.1,0-0.1,0l-32.6,3C746.5,392,764,424.2,733.5,420.7z"/>
<polygon class="st2" points="204.7,451.4 205.6,496.5 215.7,503.8 250.7,503.8 257.2,494.6 257.2,451.4 247,442.2 213.9,442.2 "/>
<path class="st8" d="M210.2,452.3c0,0,6.5,41.4,0,45.1l-4.6-0.9l-0.9-44.2L210.2,452.3z"/>
<path class="st2" d="M285.7,448.6l7.4-7.4h35l7.4,7.4c0,0,9.2,26.7,1.8,44.2l-8.3,8.3h-35l-8.3-7.4L285.7,448.6z"/>
<polygon class="st7" points="204.7,451.4 205.6,496.5 215.7,503.8 250.7,503.8 257.2,494.6 257.2,451.4 247,442.2 213.9,442.2 "/>
<path class="st7" d="M285.7,448.6l7.4-7.4h35l7.4,7.4c0,0,9.2,26.7,1.8,44.2l-8.3,8.3h-35l-8.3-7.4L285.7,448.6z"/>
<path class="st8" d="M294,450.4c0,0,7.4,32.2,0,43.3h-8.3v-45.1L294,450.4z"/>
<path class="st3" d="M257.2,295.8c0,0,3.7,35.9,3.7,40.5s-1.8,35,3.7,64.5s-3.7,66.3-3.7,66.3h30.4l12.9-99.4l-9.2-52.5l-3.7-16.6
	L257.2,295.8z"/>
<path class="st4" d="M257.2,295.8c0,0,3.7,35.9,3.7,40.5s-1.8,35,3.7,64.5s-3.7,66.3-3.7,66.3h30.4l12.9-99.4l-9.2-52.5l-3.7-16.6
	L257.2,295.8z"/>
<path class="st9" d="M251.7,204.6c0,0-40.5,0.9-8.3,68.1c0,0,8.3,27.6,8.3,32.2s41.4,4.6,46,0s-7.4-42.4-7.4-59.9
	S278.4,199.1,251.7,204.6z"/>
<path class="st4" d="M251.7,204.6c0,0-40.5,0.9-8.3,68.1c0,0,8.3,27.6,8.3,32.2s41.4,4.6,46,0s-7.4-42.4-7.4-59.9
	S278.4,199.1,251.7,204.6z"/>
<path class="st3" d="M202.9,165c0,0,35,37.8,64.4,10.1l-3.7,97.6c0,0-47.9-58-81-53.4L202.9,165z"/>
<path class="st7" d="M601.8,344.8c-1.4,10.8-5.8,33.5-18.4,40.9c-7.5-3-14.1-6.2-14.1-6.2l23.9-37.8C596,343,598.9,344,601.8,344.8z
	"/>
<path class="st6" d="M599.7,339c0,0-2.8,45.1-24.9,48.8l-133.5-24.1c-6.5-1.2-12.6-3.9-17.7-8c-5.4-4.2-12-10-15.9-15.3
	c-2.1-2.9-3.4-5.6-3.2-7.9c0.9-10.1,41.4-34.1,27.6-76.4c2-1.6,4.1-2.8,6.5-3.7c11.5-4.8,38.1-8.3,76.4,31.3
	C515,283.8,585.9,340.9,599.7,339z"/>
<polygon class="st2" points="238.8,455 239.7,500.2 249.8,507.5 284.8,507.5 291.2,498.3 291.2,455 281.1,445.8 248,445.8 "/>
<path class="st8" d="M244.3,456c0,0,6.5,41.4,0,45.1l-4.6-0.9l-0.9-44.2H244.3z"/>
<path class="st2" d="M340,451.4l7.4-7.4h35l7.4,7.4c0,0,9.2,26.7,1.8,44.2l-8.3,8.3h-35l-8.3-7.4L340,451.4z"/>
<path class="st8" d="M348.3,453.2c0,0,7.4,32.2,0,43.3H340v-45.1L348.3,453.2z"/>
<path class="st2" d="M291,468.9h49.8c3.9,0,7.1,3.5,7.1,7.8l0,0c0,4.3-3.2,7.8-7.1,7.8H291c-4.2,0-7.5-4.1-7-8.7l0,0
	C284.4,471.8,287.4,468.9,291,468.9z"/>
<path class="st7" d="M434.9,325.2c-9.8,6.9-20.2,11.4-27.2,15.3c-2.1-2.9-3.4-5.6-3.2-7.9c0.9-10.1,41.4-34.1,27.6-76.4
	c2-1.6,4.1-2.8,6.5-3.7c2.2,0,4.3-0.3,6.4-0.9C445,251.6,453.3,312.3,434.9,325.2z"/>
<path class="st9" d="M228.2,236.4c0,0,13.8,13.8,27.2,22.6c12.3,8.1-9.7-73.2-9.7-73.2s13.6-11,21.6-17.5c5.3-4.4,12.2-6.6,19.1-6.2
	c18.4,1.2,52.2,8.9,79.4,46.3c39.6,54.3,75.5,43.3,75.5,43.3s8.3,60.8-10.1,73.7s-38.7,17.5-35,24.9s-16.6-35.9-62.6-43.3
	s-96.7-39.6-95.7-55.2C237.8,251.6,224.5,241,228.2,236.4z"/>
<path class="st7" d="M218.5,189c0-2.7-0.2-5.3-0.7-7.9c-12.1-6-10.4-14.2-10.4-14.2l-20.3,54.3c7.4-1,15.6,1.1,23.7,5
	C221.7,217.7,218.5,203.7,218.5,189z"/>
<circle class="st3" cx="178" cy="188" r="46"/>
<path class="st7" d="M136.2,198.4c-0.9,2.7-2.2,5.5-4.6,7c-3,1.8-7.1,0.9-9.8-1.4s-4.1-5.7-4.9-9.2c-1.1-5-0.9-10.2,0.5-15
	c1.2-4.1,3.3-8,4.1-12.3c0.9-4.5,0.5-9.3,1.5-13.8c1.4-6.1,5.4-11.2,9.4-16.1c2.5-3.8,6.4-6.4,10.8-7.2l19.3-5.8
	c3.7-1.2,7.4-2.1,11.2-2.7c4.9-0.5,9.9-0.1,14.6,1.3c3.8,0.9,7.4,2.5,10.6,4.7c3.2,2.4,6,5.2,8.4,8.5c10.2,13.3,16,35.1,26.5,48.2
	c-4.1,1.3-8.3-3-12.5-1.7c-0.6,0.3-1.2,0.3-1.9,0.1c-0.6-0.3-1.1-0.9-1.4-1.5c-3.7-6.4-9.4-11.3-16.3-13.9c-5.1-1.9-12-1.9-14.8,2.8
	c-1.9,3.2-1.1,7.1-0.6,10.8s0.4,8-2.5,10.3c-1.6,1.1-3.5,1.7-5.4,1.8c-9,1.2-18.1,0.3-26.7-2.6c-3-1-6-4.1-9.2-3.1
	C138.3,188.9,137.3,194.8,136.2,198.4z"/>
<path class="st10" d="M135.2,197.4c-0.9,2.7-2.2,5.5-4.6,7c-3,1.8-7.1,0.9-9.8-1.4s-4.1-5.7-4.9-9.2c-1.1-5-0.9-10.2,0.5-15
	c1.2-4.1,3.3-8,4.1-12.3c0.9-4.5,0.5-9.3,1.5-13.8c1.4-6.1,5.4-11.2,9.4-16.1c2.5-3.8,6.4-6.4,10.8-7.2l19.3-5.8
	c3.7-1.2,7.4-2.1,11.2-2.7c4.9-0.5,9.9-0.1,14.6,1.3c3.8,0.9,7.4,2.5,10.6,4.7c3.2,2.4,6,5.2,8.4,8.5c10.2,13.3,16,35.1,26.5,48.2
	c-4.1,1.3-8.3-3-12.5-1.7c-0.6,0.3-1.2,0.3-1.9,0.1c-0.6-0.3-1.1-0.9-1.4-1.5c-3.7-6.4-9.4-11.3-16.3-13.9c-5.1-1.9-12-1.9-14.8,2.8
	c-1.9,3.2-1.1,7.1-0.6,10.8s0.4,8-2.5,10.3c-1.6,1.1-3.5,1.7-5.4,1.8c-9,1.2-18.1,0.3-26.7-2.6c-3-1-6-4.1-9.2-3.1
	C137.3,187.9,136.3,193.8,135.2,197.4z"/>
<g class="st11">
	<path d="M248.8,183.2l-3.1,2.5c0,0,12.9,47.6,13.4,66.3C265.6,250.3,253,199.3,248.8,183.2z"/>
	<path d="M433,317.9c-18.4,12.9-38.7,17.5-35,24.9s-16.6-35.9-62.6-43.3c-43.2-6.9-90.4-35.7-95.3-52.2
		c-6.9-5.9-11.9-10.9-11.9-10.9c-3.7,4.6,9.7,15.2,9.7,15.2c-0.9,15.6,49.7,47.9,95.7,55.2s66.3,50.6,62.6,43.3s16.6-12,35-24.9
		c5.3-3.7,8.3-11.3,10.1-20.3C439.4,310.6,436.8,315.2,433,317.9z"/>
</g>
<path class="st3" d="M340,406.3c-2.8,3.7-4.6,41.4-4.6,41.4s11,54.3-23,48.8s-4.6-44.2-4.6-44.2l-4.6-53.4
	c-17.5-46-13.8-79.2-13.8-79.2l-3.3-30.1l-1.3-12.3l39.6-9.2c-1.1,1.4-0.6,10.4,0.4,20.9c1.5,16.3,4.3,36.2,4.3,36.2
	C337.3,334.4,342.8,402.6,340,406.3z"/>
<path class="st7" d="M283.9,185.3c0,0-40.5,0.9-8.3,68.1c0,0,8.3,27.6,8.3,32.2s41.4,4.6,46,0s-7.4-42.4-7.4-59.9
	S310.6,179.8,283.9,185.3z"/>
<path class="st7" d="M324.7,289c-8.6,2.4-29.7,2.6-38.6,0.6l-1.3-12.3l39.6-9.2C323.3,269.6,323.8,278.6,324.7,289z"/>
<path class="st9" d="M282,185.3c0,0-40.5,0.9-8.3,68.1c0,0,8.3,27.6,8.3,32.2s41.4,4.6,46,0s-7.4-42.4-7.4-59.9
	S308.7,179.8,282,185.3z"/>
<g class="st1">
	<polygon class="st2" points="846.5,350.5 817.2,351.1 812.4,357.7 812.4,380.5 818.4,384.6 846.5,384.6 852.5,378.1 852.5,356.5 	
		"/>
	<path class="st8" d="M846,354.1c0,0-26.9,4.2-29.3,0l0.6-3l28.7-0.6L846,354.1z"/>
	<path class="st2" d="M848.9,416.4l4.8,4.8v22.7l-4.8,4.8c0,0-17.4,6-28.7,1.2l-5.4-5.4v-22.7l4.8-5.4H848.9z"/>
	<path class="st8" d="M847.7,421.7c0,0-20.9,4.8-28.1,0v-5.4h29.3L847.7,421.7z"/>
	<path class="st2" d="M837.6,384.5v32.4c-0.1,2.7-2.4,4.7-5.1,4.6l0,0c-2.7,0.1-4.9-1.9-5.1-4.6v-32.4c0-2.8,2.7-4.9,5.7-4.6l0,0
		C835.5,380.1,837.5,382,837.6,384.5z"/>
	<polygon class="st2" points="893.5,351.5 864.2,352.1 859.4,358.6 859.4,381.4 865.4,385.6 893.5,385.6 899.5,379 899.5,357.4 	"/>
	<path class="st8" d="M892.9,355.1c0,0-26.9,4.2-29.3,0l0.6-3l28.7-0.6V355.1z"/>
	<path class="st2" d="M895.9,417.3l4.8,4.8v22.7l-4.8,4.8c0,0-17.3,6-28.7,1.2l-5.4-5.4v-22.7l4.8-5.4L895.9,417.3z"/>
	<path class="st8" d="M894.7,422.7c0,0-20.9,4.8-28.1,0v-5.4h29.3L894.7,422.7z"/>
	<path class="st2" d="M884.5,385.4v32.4c-0.1,2.7-2.4,4.7-5.1,4.6l0,0c-2.7,0.1-4.9-1.9-5.1-4.6v-32.4c0-2.8,2.7-4.9,5.7-4.6l0,0
		C882.4,381,884.4,383,884.5,385.4z"/>
	<polygon class="st2" points="953.3,368.8 929.1,369.3 925.2,374.7 925.2,393.4 930.1,396.8 953.3,396.8 958.2,391.4 958.2,373.7 	
		"/>
	<path class="st8" d="M952.8,371.7c0,0-22.2,3.5-24.1,0l0.5-2.5l23.6-0.5L952.8,371.7z"/>
	<path class="st2" d="M955.3,423l3.9,3.9v18.7l-3.9,3.9c0,0-14.3,4.9-23.6,1l-4.4-4.4v-18.7l3.9-4.4H955.3z"/>
	<path class="st8" d="M954.3,427.4c0,0-17.2,3.9-23.2,0V423h24.1L954.3,427.4z"/>
	<path class="st2" d="M945.9,396.7v26.7c-0.1,2.2-2,3.9-4.2,3.8l0,0c-2.2,0.1-4.1-1.6-4.2-3.8v-26.6c0.1-2.2,2.1-3.9,4.3-3.8
		c0.1,0,0.3,0,0.4,0l0,0C944.2,393.1,945.8,394.7,945.9,396.7z"/>
	<polygon class="st2" points="991.9,369.5 967.8,370 963.9,375.4 963.9,394.2 968.8,397.6 991.9,397.6 996.9,392.2 996.9,374.5 	"/>
	<path class="st8" d="M991.4,372.5c0,0-22.2,3.5-24.1,0l0.5-2.5l23.6-0.5L991.4,372.5z"/>
	<path class="st2" d="M993.9,423.7l3.9,3.9v18.7l-3.9,3.9c0,0-14.3,4.9-23.6,1l-4.4-4.4v-18.8l3.9-4.4L993.9,423.7z"/>
	<path class="st8" d="M992.9,428.1c0,0-17.2,3.9-23.1,0v-4.4h24.1L992.9,428.1z"/>
	<path class="st2" d="M984.5,397.5v26.7c-0.1,2.2-2,3.9-4.2,3.8l0,0c-2.2,0.1-4.1-1.6-4.2-3.8v-26.7c0.1-2.2,2.1-3.9,4.3-3.8
		c0.1,0,0.3,0,0.4,0l0,0C982.8,393.9,984.4,395.5,984.5,397.5z"/>
</g>
<g class="st12">
	<path class="st2" d="M927.1,525.2c0,0-14.2-4.8-21,7.7c-3.7,6.9-3.5,15.2,0.3,21.9c4.5,8.1,13.7,18.6,31.2,17.7
		c14.8-0.8,19.8-12.1,21.1-22.7c1.7-12.7-7.3-24.4-20.1-26.1c-3.6-0.5-7.4-0.1-10.8,1.2L927.1,525.2z"/>
	<path class="st13" d="M909.4,556c-3.8-6.8-4-15-0.3-21.9c6.8-12.5,21-7.7,21-7.7l0.7-0.3c5.4-2,11.3-1.8,16.6,0.4
		c-5.9-3.5-13.2-4.2-19.7-1.9l-0.7,0.3c0,0-14.2-4.8-21,7.7c-3.7,6.9-3.5,15.2,0.3,21.9c3,5.3,8,11.7,16,15.2
		C916.9,566.3,912.4,561.6,909.4,556z"/>
	<path class="st14" d="M919.8,531.2c0,0,5.3,4.1,18,0"/>
	<path class="st2" d="M918.7,501.2c0,0,9,24.4,8.3,30.8l7.1-0.8c0,0-12-21.4-9-30L918.7,501.2z"/>
	<path class="st14" d="M918.7,501.2c0,0,9,24.4,8.3,30.8l7.1-0.8c0,0-12-21.4-9-30L918.7,501.2z"/>
	<path class="st2" d="M955.4,503.2c0,0-14.2-7.3-20.5-1.3s-7.3,21.3-7.3,21.3S950.7,526.5,955.4,503.2z"/>
	<path class="st13" d="M955.4,503.2c0,0-14.2-7.3-20.5-1.3s-7.3,21.3-7.3,21.3S950.7,526.5,955.4,503.2z"/>
	<path class="st15" d="M927.6,523.2c0,0,3.7-17.8,27.8-20"/>
</g>
<path class="st2" d="M873.3,558.3c0,0-14.2-4.8-21,7.7c-3.7,6.9-3.5,15.2,0.3,21.9c4.5,8.1,13.7,18.6,31.2,17.7
	c14.8-0.8,19.8-12.1,21.1-22.7c1.7-12.7-7.3-24.4-20.1-26.1c-3.6-0.5-7.4-0.1-10.8,1.2L873.3,558.3z"/>
<path class="st13" d="M853.8,588.7c-3.8-6.8-4-15-0.3-21.9c6.8-12.5,21-7.7,21-7.7l0.7-0.3c5.4-2,11.3-1.8,16.6,0.4
	c-5.9-3.5-13.2-4.2-19.7-1.9l-0.7,0.3c0,0-14.2-4.8-21,7.7c-3.7,6.9-3.5,15.2,0.3,21.9c3,5.3,8,11.7,16,15.2
	C861.3,599.1,856.8,594.4,853.8,588.7z"/>
<path class="st14" d="M864.2,564c0,0,5.3,4.1,18,0"/>
<path class="st2" d="M863.1,534c0,0,9,24.4,8.3,30.8l7.1-0.8c0,0-12-21.4-9-30L863.1,534z"/>
<path class="st14" d="M863.1,534c0,0,9,24.4,8.3,30.8l7.1-0.8c0,0-12-21.4-9-30L863.1,534z"/>
<path class="st2" d="M899.8,536c0,0-14.2-7.3-20.5-1.3c-6.3,6-7.3,21.3-7.3,21.3S895.1,559.2,899.8,536z"/>
<path class="st13" d="M899.8,536c0,0-14.2-7.3-20.5-1.3c-6.3,6-7.3,21.3-7.3,21.3S895.1,559.2,899.8,536z"/>
<path class="st15" d="M872,556c0,0,3.7-17.8,27.8-20"/>
<path class="st2" d="M994.2,539.4c0,0,1.4-1.5-1.2-2.2v-2.5h1.6c0-6.4-4.4-11.8-10.7-13.2v-3.1h0.4v-4h-10.1v4h0.3v3.1
	c-6.1,1.4-10.5,6.8-10.5,13.1h1.4v2.5c0,0-3.3,1.6,0,4.4s2.8,4.9,2.8,4.9s-1.4,5.2-4.2,5.9v48.8c0,6,4.8,10.8,10.8,10.8l0,0h8.6
	c6,0,10.8-4.9,10.8-10.8v-48.8c0,0-4.9-3.7-4-5.9C991.4,544,992.7,541.7,994.2,539.4z"/>
</svg>
