<?xml version="1.0" encoding="iso-8859-1"?>
<!-- Generator: Adobe Illustrator 19.0.0, SVG Export Plug-In . SVG Version: 6.00 Build 0)  -->
<svg version="1.1" id="Capa_1" xmlns="http://www.w3.org/2000/svg" xmlns:xlink="http://www.w3.org/1999/xlink" x="0px" y="0px"
	 viewBox="0 0 197.371 197.371" style="enable-background:new 0 0 197.371 197.371;" xml:space="preserve">
<path style="fill:#FFDD95;" d="M7.976,68.458c0,0,9.51,0.993,24.803,0.497s36.246,5.75,47.73,25.312
	c0,0,35.541-10.068,50.331,19.647c0,0,11.626,2.908,13.177,1.179c1.55-1.729-9.172-15.104-6.369-58.918c0,0-6.705-6.842-14.107-8.52
	s-10.359,2.749-18.268-4.946c-7.909-7.695-14.362-19.62-11.146-22.994c3.215-3.374,7.339-3.434,7.339-3.434s0.102-9.392,6.851-9.591
	c6.748-0.2,31.631,4.422,37.441,12.491c5.81,8.067,7.856,26.078,19.497,41.078c11.641,15.002,33.923,39.794,27.605,87.885
	c0,0-70.467,39.318-130.062,13.479c0,0-4.277,17.149-24.211,29.061c0,0-15.515-25.576-28.728-57.334
	C-3.358,101.591,7.976,68.458,7.976,68.458z"/>
<path d="M38.586,194.098c-1.154,0-2.28-0.585-2.922-1.644c-0.157-0.258-15.8-26.163-28.962-57.793
	c-13.554-32.577-2.437-65.905-1.958-67.308c0.515-1.505,1.995-2.456,3.584-2.29c0.092,0.01,9.503,0.959,24.339,0.48
	c15.991-0.512,37.082,5.804,49.469,24.868c8.684-1.676,37.236-4.951,51.012,20.545c2.488,0.563,4.989,0.99,6.803,1.179
	c-2.33-6.832-7.649-22.581-5.809-54.566c-2.019-1.802-6.62-5.511-11.358-6.584c-2.028-0.463-3.659-0.35-5.388-0.236
	c-3.84,0.256-8.192,0.55-14.507-5.594c-7.893-7.68-16.925-21.827-11.237-27.796c2.225-2.335,4.753-3.456,6.685-3.994
	c0.809-4.412,3.466-9.897,9.873-10.086c5.868-0.183,33.091,3.876,40.311,13.908c2.642,3.669,4.454,8.793,6.554,14.725
	c2.949,8.332,6.291,17.777,12.87,26.255c0.679,0.876,1.394,1.783,2.138,2.729c12.076,15.334,32.287,41.001,26.153,87.692
	c-0.142,1.068-0.778,2.01-1.72,2.536c-0.736,0.41-18.284,10.115-43.477,16.749c-22.559,5.939-55.48,10.298-86.212-1.72
	c-2.463,6.043-9.049,18.231-24.496,27.462C39.786,193.941,39.182,194.098,38.586,194.098z M10.464,72.083
	c-2.208,8.156-7.958,34.719,2.543,59.953c10.37,24.926,22.301,46.232,26.726,53.868c16.038-10.88,19.712-24.96,19.75-25.11
	c0.242-0.973,0.901-1.79,1.801-2.236c0.898-0.445,1.947-0.471,2.869-0.072c52.613,22.81,115.104-7.166,125.537-12.535
	c5.053-42.72-12.979-65.615-24.965-80.836c-0.754-0.959-1.481-1.881-2.169-2.768c-7.253-9.349-10.947-19.78-13.911-28.163
	c-1.923-5.439-3.586-10.134-5.658-13.013c-4.654-6.465-27.428-11.284-34.569-11.073c-3.379,0.101-3.536,6.17-3.538,6.229
	c-0.036,1.841-1.526,3.337-3.366,3.362c-0.072,0.003-2.688,0.133-4.801,2.256c-0.556,2.152,3.56,11.129,10.941,18.311
	c4.134,4.023,5.967,3.898,9.289,3.676c1.939-0.131,4.354-0.292,7.354,0.387c8.286,1.879,15.488,9.153,15.79,9.46
	c0.678,0.693,1.031,1.64,0.969,2.608c-2.038,31.84,3.164,47.099,5.386,53.617c1.114,3.268,1.85,5.427,0.116,7.361
	c-0.949,1.058-2.925,3.258-16.546-0.147c-0.968-0.242-1.782-0.896-2.227-1.79c-13.375-26.87-46.017-17.98-46.345-17.884
	c-1.495,0.423-3.087-0.215-3.874-1.556c-10.65-18.144-30.056-24.108-44.677-23.629C22.245,72.713,14.405,72.351,10.464,72.083z"/>
<path d="M99.024,115.91c-1.884,0-3.413-1.529-3.413-3.413V57.884c0-1.884,1.529-3.413,3.413-3.413c1.884,0,3.413,1.529,3.413,3.413
	v54.613C102.438,114.381,100.91,115.91,99.024,115.91z"/>
<path d="M116.091,74.95c-0.874,0-1.748-0.333-2.413-1L99.024,59.298L84.371,73.95c-1.331,1.333-3.495,1.333-4.826,0
	c-1.333-1.333-1.333-3.494,0-4.826l17.067-17.067c1.331-1.333,3.495-1.333,4.826,0l17.067,17.067c1.333,1.333,1.333,3.494,0,4.826
	C117.839,74.616,116.965,74.95,116.091,74.95z"/>
<path d="M44.411,92.017c-1.884,0-3.413-1.529-3.413-3.413V33.99c0-1.884,1.529-3.413,3.413-3.413c1.884,0,3.413,1.529,3.413,3.413
	v54.613C47.824,90.488,46.297,92.017,44.411,92.017z"/>
<path d="M61.478,51.057c-0.874,0-1.748-0.333-2.413-1L44.411,35.405L29.758,50.057c-1.331,1.333-3.495,1.333-4.826,0
	c-1.333-1.333-1.333-3.494,0-4.826l17.067-17.067c1.331-1.333,3.495-1.333,4.826,0L63.891,45.23c1.333,1.333,1.333,3.494,0,4.826
	C63.225,50.722,62.352,51.057,61.478,51.057z"/>
<path d="M115.929,147.967c-8.236,0-17.314-2.418-26.964-7.243c-13.071-6.537-22.559-15.101-22.956-15.461
	c-1.394-1.268-1.497-3.425-0.23-4.82c1.266-1.394,3.424-1.5,4.821-0.232c0.355,0.323,35.968,32.183,60.749,16.7
	c1.601-1,3.705-0.512,4.704,1.085c0.998,1.599,0.514,3.703-1.085,4.704C129.343,146.212,122.942,147.967,115.929,147.967z"/>
<path d="M85.375,109.084c-1.241,0-2.435-0.678-3.041-1.859l-8.75-17.082c-0.858-1.678-0.196-3.734,1.483-4.594
	c1.673-0.86,3.734-0.196,4.594,1.483l8.75,17.082c0.858,1.678,0.196,3.734-1.483,4.594
	C86.429,108.962,85.899,109.084,85.375,109.084z"/>
<g>
</g>
<g>
</g>
<g>
</g>
<g>
</g>
<g>
</g>
<g>
</g>
<g>
</g>
<g>
</g>
<g>
</g>
<g>
</g>
<g>
</g>
<g>
</g>
<g>
</g>
<g>
</g>
<g>
</g>
</svg>
