<svg height="423pt" viewBox="0 -3 423.25749 423" width="423pt" xmlns="http://www.w3.org/2000/svg"><path d="m215.042969 6.957031h40.960937v27.304688s47.785156-6.828125 81.917969 27.308593c0 0 64.855469 0 78.507813 34.132813v170.664063s-23.894532-6.824219-44.375-20.476563c0 0-10.238282 58.023437-30.71875 92.15625l-13.652344 71.683594h-232.109375l-10.238281-71.683594c-20.480469-34.132813-30.71875-92.15625-30.71875-92.15625-20.480469 13.652344-47.789063 20.476563-47.789063 20.476563v-170.664063c13.65625-34.132813 81.921875-34.132813 81.921875-34.132813 34.132812-34.136718 75.09375-27.308593 75.09375-27.308593v-27.304688z" fill="#ffd578"/><path d="m13.167969 98.238281c2.652343-6.65625 8.144531-12.03125 15.632812-16.355469 11.164063-6.484374 26.34375-10.046874 38.585938-11.753906 6.125-.867187 11.519531-1.300781 15.355469-1.519531 1.917968-.105469 3.445312-.160156 4.484374-.1875l1.167969-.019531.355469-.007813c1.796875 0 3.554688-.726562 4.824219-2 11.386719-11.375 23.445312-17.785156 34.339843-21.425781 10.886719-3.628906 20.609376-4.441406 27.011719-4.4375 2.558594 0 4.582031.128906 5.929688.25.675781.0625 1.179687.121094 1.492187.164062l.335938.042969.054687.011719.347657-2.191406-.367188 2.1875.019531.003906.347657-2.191406-.367188 2.1875c1.972656.328125 4.007812-.234375 5.535156-1.523438 1.527344-1.292968 2.414063-3.210937 2.414063-5.210937v-20.480469h81.921875v20.480469c0 2 .863281 3.878906 2.378906 5.183593 1.519531 1.300782 3.507812 1.867188 5.484375 1.566407l-.210937-1.375.199218 1.375h.011719l-.214844-1.375.203125 1.375c.148438-.023438 3.363282-.480469 8.5625-.480469 6.9375-.003906 17.386719.820312 28.84375 4.46875 11.46875 3.65625 23.917969 10.078125 35.242188 21.398438 1.277344 1.269531 3.035156 1.996093 4.832031 1.996093l.613281.007813c3.261719.046875 19.097656.59375 35.136719 4.878906 8.019531 2.128906 16.054687 5.199219 22.535156 9.355469 6.511719 4.175781 11.347657 9.265625 13.882813 15.601562 1.398437 3.5 5.375 5.203125 8.875 3.800781 3.5-1.398437 5.203125-5.371093 3.800781-8.875-4.128906-10.3125-12.015625-17.757812-20.851563-23.050781-13.316406-7.945312-29.132812-11.597656-41.75-13.496093-12.609374-1.871094-22.015624-1.875-22.242187-1.875v6.828124l4.824219-4.828124c-13.054688-13.0625-27.597656-20.570313-40.757813-24.753907-13.171875-4.1875-24.988281-5.109375-32.980469-5.109375-6.394531 0-10.351562.59375-10.632812.636719l1.039062 6.746094h6.828126v-27.304688c0-1.796875-.726563-3.558593-2-4.828125-1.269532-1.269531-3.027344-2-4.828126-2h-95.570312c-1.796875 0-3.558594.730469-4.828125 2-1.269531 1.269532-2 3.03125-2 4.828125v27.304688h6.828125l1.121094-6.734375c-.304688-.050782-4.011719-.648438-10.039063-.648438-7.53125 0-18.703125.933594-31.328125 5.136719-12.613281 4.195313-26.679687 11.71875-39.675781 24.726563l4.828125 4.828124v-6.828124c-.296875.011718-17.722656-.011719-37.351562 4.433593-9.824219 2.242188-20.222657 5.585938-29.417969 10.878907-9.152344 5.273437-17.3125 12.695312-21.488281 23.109374-1.398438 3.503907.300781 7.476563 3.800781 8.875 3.503906 1.402344 7.472656-.300781 8.875-3.800781zm0 0" fill="#54596e"/><path d="m418.304688 259.804688-.210938-.0625c-2.355469-.671876-24.128906-7.414063-42.25-19.535157-1.917969-1.277343-4.351562-1.5-6.472656-.59375-2.117188.90625-3.636719 2.820313-4.035156 5.089844 0 0-.148438.835937-.460938 2.449219-1.089844 5.644531-4.132812 20.398437-9.089844 37.320312-4.933594 16.90625-11.851562 36.019532-20.300781 50.0625-.417969.695313-.703125 1.441406-.851563 2.234375l-12.597656 66.132813h-220.539062l-9.402344-65.820313c-.128906-.898437-.4375-1.765625-.902344-2.546875-9.664062-16.054687-17.296875-38.710937-22.308594-57.164062-2.519531-9.234375-4.414062-17.4375-5.671874-23.3125-.628907-2.9375-1.101563-5.296875-1.414063-6.910156-.3125-1.609376-.457031-2.445313-.457031-2.449219-.402344-2.269531-1.921875-4.183594-4.039063-5.089844-2.121093-.90625-4.554687-.683594-6.472656.597656-9.515625 6.355469-21.046875 11.335938-30.117187 14.625-4.539063 1.648438-8.464844 2.890625-11.234376 3.710938-1.386718.410156-2.480468.714843-3.222656.914062l-.832031.222657-.25.0625c-3.65625.917968-5.882813 4.621093-4.964844 8.28125.914063 3.65625 4.621094 5.878906 8.277344 4.964843.164063-.039062 7.195313-1.800781 16.890625-5.324219 9.703125-3.539062 22.0625-8.800781 33.027344-16.097656l-3.785156-5.675781-6.722657 1.183594c.023438.140625 2.613281 14.816406 7.816407 33.890625 5.226562 19.09375 12.953124 42.515625 23.769531 60.597656l5.855469-3.515625-6.757813.96875 10.238281 71.679687c.480469 3.363282 3.359375 5.859376 6.757813 5.859376h232.109375c3.277344 0 6.089844-2.328126 6.703125-5.550782l13.65625-71.679687-6.707031-1.277344 5.855468 3.515625c10.816406-18.082031 18.542969-41.503906 23.769532-60.597656 5.199218-19.074219 7.792968-33.753906 7.816406-33.890625l-6.722656-1.183594-3.785157 5.679687c21.625 14.371094 45.9375 21.234376 46.285157 21.363282 3.625 1.035156 7.402343-1.0625 8.4375-4.6875 1.035156-3.625-1.0625-7.40625-4.6875-8.441406" fill="#54596e"/><path d="m116.054688 314.15625s-27.304688-27.308594-20.480469-47.789062c0 0-34.132813-6.824219-40.957031-20.476563" fill="#ffd578"/><path d="m120.882812 309.328125-.027343-.027344c-.449219-.449219-5.59375-5.746093-10.445313-12.898437-4.917968-7.121094-9.214844-16.199219-9.101562-23 0-1.757813.242187-3.367188.742187-4.871094.621094-1.851562.410157-3.898438-.570312-5.585938-.980469-1.691406-2.652344-2.886718-4.566407-3.269531l-.308593-.066406c-1.675781-.351563-9.964844-2.207031-18.273438-5.394531-4.148437-1.585938-8.292969-3.515625-11.511719-5.59375-3.253906-2.054688-5.410156-4.300782-6.097656-5.785156-1.6875-3.371094-5.789062-4.738282-9.160156-3.054688-3.371094 1.6875-4.738281 5.789062-3.054688 9.160156 2.6875 5.242188 7.089844 8.773438 11.808594 11.722656 7.128906 4.363282 15.449219 7.332032 22.125 9.359376 6.667969 2.011718 11.648438 3.011718 11.796875 3.039062l1.335938-6.695312-6.476563-2.15625c-1.015625 3.046874-1.445312 6.15625-1.445312 9.191406.125 12.15625 6.308594 23.09375 12.003906 31.453125 5.765625 8.320312 11.390625 13.941406 11.570312 14.125 2.667969 2.667969 6.988282 2.667969 9.65625 0 2.664063-2.664063 2.667969-6.984375 0-9.652344zm0 0" fill="#54596e"/><path d="m307.203125 314.15625s27.304687-27.308594 20.480469-47.789062c0 0 34.132812-6.824219 40.957031-20.476563" fill="#ffd578"/><g fill="#54596e"><path d="m312.027344 318.980469c.179687-.183594 5.808594-5.804688 11.574218-14.125 5.695313-8.363281 11.878907-19.296875 12-31.453125.003907-3.035156-.429687-6.144532-1.445312-9.191406l-6.472656 2.15625 1.335937 6.695312c.203125-.042969 8.976563-1.789062 18.914063-5.398438 4.980468-1.8125 10.25-4.082031 15.007812-7.003906 4.71875-2.949218 9.121094-6.476562 11.808594-11.71875 1.683594-3.375.316406-7.476562-3.054688-9.160156-3.371093-1.6875-7.472656-.320312-9.160156 3.050781-.726562 1.585938-3.152344 4.03125-6.75 6.199219-5.355468 3.316406-12.871094 6.109375-18.914062 7.921875-3.027344.910156-5.699219 1.601563-7.589844 2.054687-.949219.230469-1.699219.398438-2.207031.511719l-.570313.121094-.160156.03125c-1.914062.382813-3.585938 1.582031-4.566406 3.269531-.980469 1.6875-1.191406 3.734375-.570313 5.585938.5 1.503906.742188 3.113281.746094 4.875.121094 7.019531-4.480469 16.460937-9.574219 23.683594-2.511718 3.625-5.058594 6.742187-6.953125 8.914062-.945312 1.089844-1.730469 1.941406-2.269531 2.515625l-.609375.636719-.144531.148437-.027344.027344c-2.667969 2.667969-2.667969 6.988281 0 9.65625 2.667969 2.664063 6.988281 2.664063 9.652344-.003906zm0 0"/><path d="m177.496094 136.660156v.046875c.003906.90625-.320313 12.230469-5.136719 24.328125-2.394531 6.054688-5.878906 12.28125-10.867187 17.664063-5.007813 5.382812-11.472657 9.976562-20.285157 12.925781-3.578125 1.191406-5.511719 5.058594-4.320312 8.636719 1.195312 3.578125 5.058593 5.507812 8.636719 4.316406 11.382812-3.78125 20.140624-10.078125 26.59375-17.269531 9.703124-10.804688 14.351562-23.402344 16.691406-33.234375 2.328125-9.851563 2.339844-17.046875 2.34375-17.414063 0-3.769531-3.058594-6.824218-6.828125-6.824218-3.773438 0-6.828125 3.054687-6.828125 6.824218zm0 0"/><path d="m232.109375 136.660156c.015625.492188 0 13.117188 5.554687 28 2.789063 7.429688 7.007813 15.457032 13.476563 22.648438 6.453125 7.1875 15.210937 13.488281 26.597656 17.269531 3.574219 1.191406 7.441407-.742187 8.632813-4.320313 1.195312-3.574218-.738282-7.441406-4.316406-8.632812-9.097657-3.046875-15.699219-7.84375-20.765626-13.453125-7.578124-8.390625-11.570312-18.835937-13.550781-27.246094-.992187-4.191406-1.492187-7.851562-1.738281-10.417969-.121094-1.28125-.179688-2.289062-.210938-2.953124l-.023437-.730469-.003906-.152344v-.011719c0-3.769531-3.054688-6.824218-6.824219-6.824218-3.773438 0-6.828125 3.054687-6.828125 6.824218zm0 0"/></g><path d="m211.628906 211.753906c-3.769531 0-6.828125 3.058594-6.828125 6.828125v95.574219c0 3.769531 3.058594 6.824219 6.828125 6.824219 3.769532 0 6.828125-3.054688 6.828125-6.824219v-95.574219c0-3.769531-3.058593-6.828125-6.828125-6.828125" fill="#ddbc76"/><path d="m211.628906 368.769531c-3.769531 0-6.828125 3.054688-6.828125 6.824219v27.308594h13.65625v-27.308594c0-3.769531-3.058593-6.824219-6.828125-6.824219" fill="#ddbc76"/><path d="m218.457031 402.902344h-13.65625v6.828125c0 3.769531 3.058594 6.824219 6.828125 6.824219 3.769532 0 6.828125-3.054688 6.828125-6.824219z" fill="#54596e"/></svg>