<?xml version="1.0" encoding="utf-8"?>
<!-- Generator: Adobe Illustrator 22.0.1, SVG Export Plug-In . SVG Version: 6.00 Build 0)  -->
<svg version="1.1" id="Layer_1" xmlns="http://www.w3.org/2000/svg" xmlns:xlink="http://www.w3.org/1999/xlink" x="0px" y="0px"
	 viewBox="0 0 459 398.9" style="enable-background:new 0 0 459 398.9;" xml:space="preserve">
<style type="text/css">
	.st0{fill:#FCFCFC;}
</style>
<path class="st0" d="M413.9,244H152.6l74,74c17.4,17.4,17.4,45.6,0,63c-17.4,17.4-45.6,17.4-63,0C4.7,222,13.3,230.7,12.2,229.4
	c-0.1-0.1-0.2-0.3-0.3-0.4c-14.5-16.4-15-40.9-1.1-57.8c2-2.5-7,6.7,152.9-153.2c17.4-17.4,45.6-17.4,63,0c17.4,17.4,17.4,45.6,0,63
	l-74,74h261.2c24.6,0,44.5,19.9,44.5,44.5S438.5,244,413.9,244z"/>
</svg>
