<svg height="409pt" viewBox="0 -12 409.57269 409" width="409pt" xmlns="http://www.w3.org/2000/svg"><path d="m334.480469 245.71875s-25.542969-9.8125-52.921875-17.632812c-27.375-7.824219-82.128906 31.289062-82.128906 31.289062s-90.949219 0-98.769532 0c-7.824218 0 16.636719-109.507812 8.816406-168.175781l21.507813 1.957031s23.46875 0 27.378906-7.824219l15.640625 11.734375 46.933594-46.933594-35.199219-43.019531-105.59375 43.019531s-61.609375 130.878907-73.34375 263.855469c0 0 2.945313 28.472657 85.074219 32.386719 82.132812 3.910156 184.816406-2.820312 227.625 33.277344z" fill="#ffd578"/><path d="m336.929688 239.347656c-.105469-.039062-25.761719-9.902344-53.496094-17.824218-3.226563-.921876-6.570313-1.296876-9.960938-1.296876-8.46875.023438-17.308594 2.285157-26.058594 5.464844-26.113281 9.585938-51.6875 27.976563-51.953124 28.125l3.96875 5.558594v-6.828125s-90.949219 0-98.769532 0v6.046875l2.992188-5.257812c-.855469-.5-2.003906-.804688-2.992188-.789063v6.046875l2.992188-5.257812-2.671875 4.699218 4.933593-2.335937c-.214843-.421875-.726562-1.453125-2.261718-2.363281l-2.667969 4.699218 4.933594-2.335937-2.175781 1.027343 2.355468-.554687-.183594-.472656-2.171874 1.027343 2.351562-.554687c-.03125-.066406-.183594-1.246094-.171875-2.882813-.007813-4.339843.707031-12.058593 1.820313-21.601562 3.332031-28.785156 10.113281-74.746094 10.125-113.085938 0-10.058593-.464844-19.617187-1.621094-28.300781l-6.769532.898438-.617187 6.800781 21.511719 1.957031.617187.027344c.203125-.007813 6.296875.003906 13.261719-1.058594 3.496094-.546875 7.203125-1.335937 10.722656-2.734375 1.765625-.707031 3.496094-1.574218 5.144532-2.78125 1.632812-1.207031 3.242187-2.8125 4.355468-5.027344l-6.109375-3.050781-4.09375 5.460938 15.644531 11.734375c2.71875 2.039062 6.519532 1.769531 8.921876-.636719l46.933593-46.933594c2.476563-2.476562 2.675781-6.4375.457031-9.148437l-35.199218-43.019532c-1.894532-2.316406-5.09375-3.128906-7.859375-2l-105.601563 43.023438c-1.589844.648438-2.867187 1.859375-3.597656 3.414062-.136719.378907-62.035156 131.574219-73.96875 266.160157l.0117188 1.300781c.078125.800781.5195312 3.550781 2.6054692 7.195312 3.113281 5.492188 9.882812 12.746094 23.476562 18.761719 13.617188 6.042969 34.078125 11.046875 65.457031 12.550781 41.371094 1.960938 87.511719 1.261719 128.335938 4.550782 20.402343 1.636718 39.457031 4.273437 55.78125 8.625 16.335937 4.335937 29.859375 10.40625 39.433593 18.5 2.882813 2.429687 7.1875 2.0625 9.617188-.820313 2.429688-2.882812 2.0625-7.1875-.816406-9.617187-11.835938-9.957032-27.203125-16.582032-44.722656-21.257813-26.296876-6.984375-57.664063-9.582031-90.203126-10.894531-32.527343-1.296875-66.210937-1.269531-96.773437-2.726562-40.3125-1.902344-60.34375-9.894532-69.777344-16.457032-4.742187-3.285156-6.910156-6.171875-7.953125-7.988281-.519531-.910156-.753906-1.566406-.855468-1.894531l-.066407-.238282-3.273437.648438 3.316406-.34375-.042969-.304688-3.273437.648438 3.316406-.34375-6.792969.703125 6.800781.601563c5.78125-65.648438 23.96875-131.179688 40.730469-180.183594 8.378907-24.503906 16.394531-44.886719 22.304688-59.125 2.957031-7.117188 5.386719-12.695313 7.074219-16.488282.84375-1.894531 1.5-3.34375 1.941406-4.3125.445312-.96875.664062-1.4375.667968-1.4375l-6.175781-2.90625 2.574219 6.320313 100.929688-41.121094 28.097656 34.339844-38.378906 38.378906-10.90625-8.179687c-1.621094-1.214844-3.695313-1.648438-5.667969-1.183594-1.96875.46875-3.632813 1.78125-4.535157 3.59375l.917969.460938-.84375-.589844-.074219.128906.917969.457031-.84375-.585937.089844.0625-.085937-.074219-.003907.011719.089844.0625-.085937-.074219c-.042969.140625-1.453126 1.132813-3.617188 1.804687-3.238281 1.082032-7.84375 1.761719-11.476562 2.066407-1.824219.15625-3.425782.234375-4.550782.273437l-1.296875.035156-.40625.003907v6.828125l.617188-6.800782-21.511719-1.953124c-2.066406-.1875-4.109375.574218-5.546875 2.074218-1.433594 1.496094-2.113281 3.570313-1.839844 5.625 1.050781 7.859375 1.503907 16.867188 1.503907 26.5.007812 24.53125-2.945313 53.039063-5.921876 77.867188-1.488281 12.421875-2.980468 23.929687-4.109374 33.644531-1.125 9.738281-1.898438 17.566406-1.910157 23.171875.015625 2.246094.085938 4.09375.566407 6.136719.273437 1.027343.59375 2.175781 1.648437 3.636719.535156.71875 1.316406 1.519531 2.417969 2.148437 1.089844.636719 2.496094 1.007813 3.757812.992187h98.769532c1.429687 0 2.808593-.441406 3.96875-1.269531l.460937-.324219c2.386719-1.671874 13.839844-9.53125 27.804687-16.859374 6.976563-3.664063 14.585938-7.195313 21.902344-9.757813 7.3125-2.574219 14.351563-4.128906 19.910156-4.109375 2.371094 0 4.457032.269531 6.207032.773438 13.507812 3.855468 26.628906 8.226562 36.351562 11.628906 4.859375 1.699218 8.871094 3.15625 11.660156 4.1875 2.792969 1.03125 4.332032 1.621094 4.335938 1.625 3.519531 1.351562 7.46875-.40625 8.820312-3.925782 1.351563-3.515624-.402343-7.464843-3.921874-8.816406zm0 0" fill="#54596e"/><path d="m232.074219 273.023438c-1.195313 0-2.40625.316406-3.503907.976562-3.234374 1.941406-4.285156 6.132812-2.34375 9.367188.246094.402343 5.863282 9.695312 17.660157 20.601562 11.785156 10.894531 29.832031 23.425781 54.738281 29.917969.578125.148437 1.15625.222656 1.726562.222656 3.03125 0 5.800782-2.035156 6.601563-5.105469.953125-3.652344-1.234375-7.378906-4.882813-8.328125-22.28125-5.808593-38.371093-16.992187-48.921874-26.734375-5.265626-4.867187-9.132813-9.367187-11.648438-12.601562-1.261719-1.617188-2.183594-2.917969-2.773438-3.785156l-.640624-.972657-.136719-.21875-.019531-.035156c-1.285157-2.125-3.542969-3.304687-5.855469-3.304687" fill="#ddbc76"/><path d="m402.746094 102.359375c0 41.472656-33.621094 75.09375-75.09375 75.09375s-75.09375-33.621094-75.09375-75.09375 33.621094-75.09375 75.09375-75.09375 75.09375 33.621094 75.09375 75.09375zm0 0" fill="#adf2a2"/><path d="m402.746094 102.359375h6.828125c-.007813-45.246094-36.675781-81.914063-81.921875-81.917969-45.246094.003906-81.917969 36.671875-81.917969 81.917969.003906 45.246094 36.671875 81.914063 81.917969 81.921875 45.246094-.007812 81.914062-36.675781 81.921875-81.921875h-13.65625c-.003907 18.875-7.628907 35.898437-19.992188 48.273437-12.375 12.363282-29.402343 19.992188-48.273437 19.992188-18.875 0-35.894532-7.628906-48.269532-19.992188-12.367187-12.375-19.992187-29.398437-19.996093-48.273437.003906-18.875 7.628906-35.894531 19.996093-48.269531 12.375-12.367188 29.398438-19.992188 48.269532-19.996094 18.871094.003906 35.898437 7.628906 48.273437 19.996094 12.363281 12.375 19.988281 29.398437 19.992188 48.269531zm0 0" fill="#54596e"/><path d="m95.539062 293.503906c-3.574218 0-6.578124 2.785156-6.804687 6.402344-.238281 3.765625 2.625 7.003906 6.386719 7.238281l109.226562 6.828125c.144532.007813.289063.015625.433594.015625 3.574219 0 6.578125-2.785156 6.804688-6.402343.238281-3.765626-2.625-7.003907-6.386719-7.242188l-109.226563-6.824219c-.144531-.007812-.289062-.015625-.433594-.015625" fill="#ddbc76"/><g fill="#54596e"><path d="m314.496094 141.082031c1.917968-2.238281 7.003906-4.648437 13.105468-4.589843 6.035157-.058594 11.089844 2.296874 13.042969 4.523437 2.566407 2.761719 6.886719 2.921875 9.648438.351563 2.761719-2.566407 2.921875-6.886719.355469-9.648438-5.527344-5.820312-13.839844-8.824219-23.046876-8.878906-9.300781.054687-17.695312 3.113281-23.210937 9.0625-2.535156 2.789062-2.328125 7.109375.460937 9.644531 2.792969 2.535156 7.113282 2.328125 9.644532-.464844zm0 0"/><path d="m307.171875 92.121094c0 5.65625-4.582031 10.238281-10.238281 10.238281s-10.242188-4.582031-10.242188-10.238281 4.585938-10.242188 10.242188-10.242188 10.238281 4.585938 10.238281 10.242188zm0 0"/><path d="m368.613281 92.121094c0 5.65625-4.585937 10.238281-10.242187 10.238281-5.652344 0-10.238282-4.582031-10.238282-10.238281s4.585938-10.242188 10.238282-10.242188c5.65625 0 10.242187 4.585938 10.242187 10.242188zm0 0"/></g></svg>