<?xml version="1.0" encoding="iso-8859-1"?>
<!-- Generator: Adobe Illustrator 19.0.0, SVG Export Plug-In . SVG Version: 6.00 Build 0)  -->
<svg version="1.1" id="Layer_1" xmlns="http://www.w3.org/2000/svg" xmlns:xlink="http://www.w3.org/1999/xlink" x="0px" y="0px"
	 viewBox="0 0 512 512" style="enable-background:new 0 0 512 512;" xml:space="preserve">
<g>
	<path style="fill:#57555C;" d="M179.796,23.51c-34.565,0-62.694,28.129-62.694,62.694c0,29.153,20.01,53.729,47.02,60.709
		c5.016,1.296,10.261,1.985,15.673,1.985s10.668-0.69,15.673-1.985c27.011-6.98,47.02-31.556,47.02-60.709
		C242.489,51.639,214.371,23.51,179.796,23.51z M179.796,95.608c-5.193,0-9.404-4.211-9.404-9.404s4.211-9.404,9.404-9.404
		s9.404,4.211,9.404,9.404S184.989,95.608,179.796,95.608z"/>
	<polygon style="fill:#57555C;" points="195.469,442.514 195.469,124.75 164.122,124.75 164.122,442.514 146.714,442.514 
		146.714,473.861 212.888,473.861 212.888,442.514 	"/>
</g>
<g>
	<path style="fill:#2B292C;" d="M195.469,146.913v295.602h17.418v31.347h-33.092V95.608c5.193,0,9.404-4.211,9.404-9.404
		s-4.211-9.404-9.404-9.404V23.51c34.576,0,62.694,28.129,62.694,62.694C242.489,115.357,222.48,139.933,195.469,146.913z"/>
	<polygon style="fill:#2B292C;" points="476.355,457.143 430.699,390.789 404.874,408.558 438.304,457.143 425.621,457.143 
		425.621,488.49 491.799,488.49 491.799,457.143 	"/>
</g>
<path style="fill:#00A6FF;" d="M512,394.459v20.888H0v-81.502h451.385C484.812,333.845,512,361.033,512,394.459z"/>
<g>
	<path style="fill:#57555C;" d="M85.682,23.51c-34.565,0-62.694,28.129-62.694,62.694c0,29.153,20.01,53.729,47.02,60.709
		c5.016,1.296,10.261,1.985,15.673,1.985c5.413,0,10.658-0.69,15.673-1.985c27.011-6.98,47.02-31.556,47.02-60.709
		C148.376,51.639,120.247,23.51,85.682,23.51z M85.682,95.608c-5.193,0-9.404-4.211-9.404-9.404s4.211-9.404,9.404-9.404
		c5.193,0,9.404,4.211,9.404,9.404S90.875,95.608,85.682,95.608z"/>
	<rect x="85.682" y="174.226" style="fill:#57555C;" width="84.71" height="31.347"/>
</g>
<rect x="128.042" y="174.226" style="fill:#2B292C;" width="42.356" height="31.347"/>
<polygon style="fill:#57555C;" points="101.355,457.143 101.355,124.75 70.008,124.75 70.008,457.143 51.545,457.143 51.545,488.49 
	117.729,488.49 117.729,457.143 "/>
<path style="fill:#0082D2;" d="M512,394.459v20.888H256v-81.502h195.385C484.812,333.845,512,361.033,512,394.459z"/>
<path style="fill:#2B292C;" d="M101.355,146.913v310.23h16.374v31.347H85.682V95.608c5.193,0,9.404-4.211,9.404-9.404
	S90.875,76.8,85.682,76.8V23.51c34.565,0,62.694,28.129,62.694,62.694C148.376,115.357,128.366,139.933,101.355,146.913z"/>
<g>
</g>
<g>
</g>
<g>
</g>
<g>
</g>
<g>
</g>
<g>
</g>
<g>
</g>
<g>
</g>
<g>
</g>
<g>
</g>
<g>
</g>
<g>
</g>
<g>
</g>
<g>
</g>
<g>
</g>
</svg>
