<?xml version="1.0" encoding="utf-8"?>
<!-- Generator: Adobe Illustrator 22.0.1, SVG Export Plug-In . SVG Version: 6.00 Build 0)  -->
<svg version="1.1" xmlns="http://www.w3.org/2000/svg" xmlns:xlink="http://www.w3.org/1999/xlink" x="0px" y="0px"
	 viewBox="0 0 200 200" style="enable-background:new 0 0 200 200;" xml:space="preserve">
<style type="text/css">
	.st0{fill:#151E1E;}
	.st1{fill:none;stroke:#151E1E;stroke-width:15.8322;stroke-linecap:round;stroke-miterlimit:10;}
	.st2{fill:none;stroke:#000000;stroke-width:11.8741;stroke-linecap:round;stroke-miterlimit:10;}
	.st3{fill:none;stroke:#3ABCEF;stroke-width:15.8322;stroke-linecap:round;stroke-miterlimit:10;}
	.st4{fill:none;stroke:#151E1E;stroke-width:14.3061;stroke-linecap:round;stroke-miterlimit:10;}
	.st5{fill:none;stroke:#151E1E;stroke-width:15.8322;stroke-linecap:round;stroke-linejoin:round;stroke-miterlimit:10;}
	.st6{fill:none;stroke:#000000;stroke-width:6.0358;stroke-linecap:round;stroke-miterlimit:10;}
	.st7{fill:#3ABCEF;}
	.st8{fill:none;stroke:#151E1E;stroke-width:14.48;stroke-linecap:round;stroke-miterlimit:10;}
	.st9{fill:#FFFFFF;stroke:#151E1E;stroke-width:0.2991;stroke-linecap:round;stroke-miterlimit:10;}
	.st10{fill:none;stroke:#151E1E;stroke-width:14.4798;stroke-linecap:round;stroke-miterlimit:10;}
	.st11{fill:#3EBCED;}
	.st12{fill:#151E1E;stroke:#FFFFFF;stroke-miterlimit:10;}
	.st13{fill:none;stroke:#151E1E;stroke-width:13.5335;stroke-linecap:round;stroke-miterlimit:10;}
	.st14{fill:none;stroke:#151E1E;stroke-width:15.832;stroke-linecap:round;stroke-miterlimit:10;}
	.st15{fill:none;}
	.st16{fill:#151E1D;}
	.st17{fill:none;stroke:#151E1E;stroke-linecap:round;stroke-linejoin:round;stroke-miterlimit:10;}
	.st18{fill:none;stroke:#000000;stroke-width:15.832;stroke-linecap:round;stroke-miterlimit:10;}
	.st19{fill:none;stroke:#151E1E;stroke-width:13.9294;stroke-linecap:round;stroke-miterlimit:10;}
	.st20{fill:#3EBCED;stroke:#3ABCEF;stroke-width:15.8322;stroke-linecap:round;stroke-miterlimit:10;}
	.st21{fill:#151E1E;stroke:#FFFFFF;stroke-width:0.7867;stroke-miterlimit:10;}
	.st22{fill:none;stroke:#151E1E;stroke-width:13.1365;stroke-linecap:round;stroke-miterlimit:10;}
	.st23{fill:none;stroke:#000000;stroke-width:2.008;stroke-miterlimit:10;}
	.st24{fill:none;stroke:#000000;stroke-miterlimit:10;}
	.st25{fill:#151E1E;stroke:#FFFFFF;stroke-width:0.9613;stroke-miterlimit:10;}
	.st26{fill:#3EBCED;stroke:#3ABCEF;stroke-width:12.0959;stroke-linecap:round;stroke-miterlimit:10;}
	.st27{fill:#3ABCEF;stroke:#FFFFFF;stroke-miterlimit:10;}
	.st28{display:none;}
</style>
<g id="Layer_1">
	<g id="Cable_Flyes">
		<rect x="83.9" y="52.5" class="st0" width="33" height="76.5"/>
		<circle class="st0" cx="99.7" cy="26.1" r="22.4"/>
		<g>
			<path class="st12" d="M9.3,89.2c-3.1,0-6.1-1.9-7.4-5c-1.6-4.1,0.3-8.7,4.4-10.3l25-10c2.5-0.9,5.1-1.5,7.7-1.8l38.9-6.5
				c4.3-0.7,8.4,2.2,9.1,6.5s-2.2,8.4-6.5,9.1l-39.4,6.5c-1.5,0.2-2.9,0.5-4.3,1l-24.5,9.8C11.2,89,10.3,89.2,9.3,89.2z"/>
		</g>
		<g>
			<path class="st12" d="M190.8,89.2c3.1,0,6.1-1.9,7.4-5c1.6-4.1-0.3-8.7-4.4-10.3l-25-10c-2.5-0.9-5.1-1.5-7.7-1.8l-38.9-6.5
				c-4.3-0.7-8.4,2.2-9.1,6.5s2.2,8.4,6.5,9.1l39.4,6.5c1.5,0.2,2.9,0.5,4.3,1l24.5,9.8C188.9,89,189.9,89.2,190.8,89.2z"/>
		</g>
		<line class="st1" x1="83.9" y1="140.9" x2="73.3" y2="187.1"/>
		<line class="st1" x1="116.9" y1="140.9" x2="127.4" y2="187.1"/>
		<g>
			<line class="st23" x1="9.8" y1="97.7" x2="90.5" y2="0"/>
			<line class="st23" x1="10" y1="65.3" x2="73" y2="0"/>
			<path class="st7" d="M9.1,101.9L9.1,101.9c-1.3,0-2.4-1.1-2.4-2.4V66.2c0-1.3,1.1-2.4,2.4-2.4h0c1.3,0,2.4,1.1,2.4,2.4v33.2
				C11.5,100.8,10.4,101.9,9.1,101.9z"/>
		</g>
		<line class="st23" x1="189.9" y1="97.7" x2="109.2" y2="0"/>
		<line class="st23" x1="189.7" y1="65.3" x2="126.8" y2="0"/>
		<path class="st7" d="M190.6,101.9L190.6,101.9c1.3,0,2.4-1.1,2.4-2.4V66.2c0-1.3-1.1-2.4-2.4-2.4l0,0c-1.3,0-2.4,1.1-2.4,2.4v33.2
			C188.2,100.8,189.3,101.9,190.6,101.9z"/>
	</g>
</g>
<g id="Guides" class="st28">
</g>
</svg>
