<svg height="423pt" viewBox="0 -3 423.25749 423" width="423pt" xmlns="http://www.w3.org/2000/svg"><path d="m215.042969 6.957031h40.960937l6.824219 27.304688s40.960937-6.828125 75.09375 27.308593c0 0 64.855469 0 78.507813 34.132813v170.664063s-23.894532-6.824219-44.375-20.476563c0 0-10.238282 58.023437-30.71875 92.15625l-13.652344 71.683594h-232.109375l-10.238281-71.683594c-20.480469-34.132813-30.71875-92.15625-30.71875-92.15625-20.480469 13.652344-47.789063 20.476563-47.789063 20.476563v-170.664063c13.65625-34.132813 81.921875-34.132813 81.921875-34.132813 34.132812-34.136718 75.09375-27.308593 75.09375-27.308593v-27.304688z" fill="#ffd578"/><g fill="#54596e"><path d="m13.167969 98.238281c2.652343-6.65625 8.144531-12.03125 15.632812-16.355469 11.164063-6.484374 26.34375-10.046874 38.585938-11.753906 6.125-.867187 11.519531-1.300781 15.355469-1.519531 1.917968-.105469 3.445312-.160156 4.484374-.1875l1.167969-.019531.355469-.007813c1.796875 0 3.554688-.726562 4.824219-2 11.386719-11.375 23.445312-17.785156 34.339843-21.425781 10.886719-3.628906 20.609376-4.441406 27.011719-4.4375 2.558594 0 4.582031.128906 5.929688.25.675781.0625 1.179687.121094 1.492187.164062l.335938.042969.054687.011719.347657-2.203125-.367188 2.199219.019531.003906.347657-2.203125-.367188 2.199219c1.972656.328125 4.007812-.234375 5.535156-1.523438 1.527344-1.292968 2.414063-3.210937 2.414063-5.210937v-20.480469h81.921875v20.480469c0 2 .863281 3.878906 2.378906 5.183593 1.519531 1.300782 3.507812 1.867188 5.484375 1.566407l-.214844-1.390625.203125 1.390625h.011719l-.214844-1.390625.203125 1.390625c.152344-.023438 3.367188-.480469 8.566406-.480469 6.9375-.003906 17.386719.820312 28.84375 4.46875 11.46875 3.65625 23.917969 10.078125 35.242188 21.398438 1.273438 1.269531 3.03125 1.996093 4.828125 1.996093l.613281.007813c3.261719.046875 19.097656.59375 35.136719 4.878906 8.019531 2.128906 16.054687 5.199219 22.535156 9.355469 6.511719 4.175781 11.347657 9.265625 13.882813 15.601562 1.398437 3.5 5.375 5.203125 8.875 3.800781 3.5-1.398437 5.203125-5.371093 3.800781-8.875-4.128906-10.3125-12.015625-17.757812-20.851563-23.050781-13.316406-7.945312-29.136718-11.597656-41.753906-13.496093-12.605468-1.871094-22.015625-1.875-22.242187-1.875v6.828124l4.828125-4.828124c-13.058594-13.0625-27.597656-20.570313-40.757813-24.753907-13.175781-4.1875-24.992187-5.109375-32.984375-5.109375-6.394531 0-10.351562.59375-10.628906.636719l1.039062 6.746094h6.828126v-27.304688c0-1.796875-.726563-3.558593-2-4.828125-1.269532-1.269531-3.027344-2-4.828126-2h-95.570312c-1.796875 0-3.558594.730469-4.828125 2-1.269531 1.269532-2 3.03125-2 4.828125v27.304688h6.828125l1.121094-6.734375c-.304688-.050782-4.011719-.648438-10.039063-.648438-7.53125 0-18.703125.933594-31.328125 5.136719-12.613281 4.195313-26.679687 11.71875-39.675781 24.726563l4.828125 4.828124v-6.828124c-.296875.011718-17.722656-.011719-37.355469 4.433593-9.820312 2.242188-20.21875 5.585938-29.417969 10.878907-9.152343 5.273437-17.3125 12.695312-21.484374 23.109374-1.402344 3.503907.300781 7.476563 3.800781 8.875 3.503906 1.402344 7.472656-.300781 8.875-3.800781zm0 0"/><path d="m418.304688 259.804688-.210938-.0625c-2.355469-.671876-24.128906-7.414063-42.25-19.535157-1.917969-1.277343-4.351562-1.5-6.472656-.59375-2.117188.90625-3.636719 2.820313-4.039063 5.089844 0 0-.144531.835937-.457031 2.449219-1.09375 5.644531-4.136719 20.398437-9.089844 37.320312-4.933594 16.90625-11.855468 36.019532-20.304687 50.0625-.417969.695313-.699219 1.441406-.851563 2.238282l-12.59375 66.128906h-220.539062l-9.402344-65.820313c-.128906-.898437-.4375-1.765625-.902344-2.546875-9.664062-16.054687-17.296875-38.710937-22.308594-57.164062-2.519531-9.234375-4.414062-17.4375-5.671874-23.3125-.628907-2.9375-1.101563-5.296875-1.414063-6.910156-.3125-1.609376-.457031-2.445313-.457031-2.449219-.402344-2.269531-1.921875-4.183594-4.042969-5.089844-2.117187-.90625-4.550781-.683594-6.46875.597656-9.515625 6.355469-21.046875 11.335938-30.117187 14.625-4.539063 1.648438-8.464844 2.890625-11.234376 3.710938-1.386718.410156-2.480468.714843-3.222656.914062l-.832031.222657-.25.0625c-3.65625.917968-5.882813 4.621093-4.964844 8.28125.914063 3.65625 4.621094 5.878906 8.277344 4.964843.164063-.042969 7.195313-1.800781 16.890625-5.324219 9.703125-3.539062 22.0625-8.800781 33.027344-16.097656l-3.785156-5.675781-6.722657 1.183594c.023438.140625 2.613281 14.816406 7.816407 33.890625 5.226562 19.09375 12.953124 42.515625 23.769531 60.59375l5.855469-3.511719-6.757813.96875 10.238281 71.679687c.480469 3.363282 3.359375 5.859376 6.757813 5.859376h232.109375c3.277344 0 6.089844-2.332032 6.703125-5.550782l13.65625-71.679687-6.707031-1.277344 5.855468 3.515625c10.816406-18.082031 18.542969-41.503906 23.769532-60.597656 5.199218-19.074219 7.792968-33.75 7.816406-33.886719l-6.722656-1.1875-3.785157 5.679687c21.621094 14.371094 45.9375 21.234376 46.285157 21.363282 3.625 1.035156 7.402343-1.0625 8.4375-4.6875 1.035156-3.625-1.0625-7.40625-4.6875-8.441406zm0 0"/><path d="m205.390625 173.570312 19.738281 44.40625c5.699219 12.820313 18.414063 21.085938 32.445313 21.085938h70.109375c1.796875 0 3.554687-.726562 4.824218-2l27.308594-27.304688c2.664063-2.667968 2.664063-6.988281 0-9.65625-2.667968-2.664062-6.988281-2.664062-9.65625 0l-25.304687 25.308594h-67.28125c-8.632813 0-16.464844-5.089844-19.96875-12.980468l-19.738281-44.40625c-1.53125-3.445313-5.5625-4.996094-9.007813-3.464844-3.449219 1.53125-5 5.5625-3.46875 9.011718zm0 0"/><path d="m205.390625 168.023438-19.734375 44.40625c-3.507812 7.890624-11.339844 12.980468-19.972656 12.980468h-67.28125l-25.304688-25.308594c-2.667968-2.664062-6.988281-2.664062-9.65625 0-2.664062 2.667969-2.664062 6.988282 0 9.65625l27.308594 27.304688c1.269531 1.269531 3.027344 2 4.824219 2h70.109375c14.03125-.003906 26.746094-8.265625 32.449218-21.089844l19.734376-44.40625c1.53125-3.445312-.019532-7.480468-3.464844-9.011718-3.445313-1.527344-7.480469.023437-9.011719 3.46875zm0 0"/></g><path d="m116.054688 314.15625s-27.304688-27.308594-20.480469-47.789062c0 0-34.132813-6.824219-40.957031-20.476563" fill="#ffd578"/><path d="m120.882812 309.328125-.027343-.027344c-.449219-.449219-5.59375-5.746093-10.445313-12.898437-4.917968-7.121094-9.214844-16.199219-9.101562-23 0-1.757813.242187-3.367188.742187-4.871094.621094-1.851562.410157-3.898438-.570312-5.585938s-2.652344-2.886718-4.566407-3.269531l-.308593-.0625c-1.675781-.351562-9.964844-2.207031-18.273438-5.398437-4.148437-1.582032-8.292969-3.511719-11.511719-5.589844-3.253906-2.054688-5.410156-4.304688-6.097656-5.789062-1.6875-3.371094-5.789062-4.738282-9.160156-3.050782-3.371094 1.683594-4.738281 5.785156-3.054688 9.160156 2.6875 5.242188 7.089844 8.769532 11.808594 11.71875 7.128906 4.363282 15.449219 7.332032 22.125 9.363282 6.667969 2.007812 11.648438 3.007812 11.796875 3.039062l1.335938-6.699218-6.476563-2.15625c-1.015625 3.046874-1.445312 6.15625-1.445312 9.191406.125 12.15625 6.308594 23.09375 12.003906 31.453125 5.765625 8.320312 11.390625 13.941406 11.570312 14.125 2.667969 2.667969 6.988282 2.667969 9.65625 0 2.667969-2.664063 2.667969-6.984375 0-9.652344zm0 0" fill="#54596e"/><path d="m307.203125 314.15625s27.304687-27.308594 20.480469-47.789062c0 0 34.132812-6.824219 40.957031-20.476563" fill="#ffd578"/><path d="m312.027344 318.980469c.179687-.183594 5.808594-5.804688 11.574218-14.125 5.695313-8.363281 11.878907-19.296875 12-31.453125.003907-3.035156-.429687-6.144532-1.445312-9.191406l-6.472656 2.15625 1.335937 6.695312c.203125-.042969 8.976563-1.789062 18.914063-5.398438 4.980468-1.8125 10.25-4.082031 15.007812-7.003906 4.71875-2.949218 9.121094-6.476562 11.808594-11.71875 1.683594-3.375.316406-7.476562-3.054688-9.160156-3.371093-1.6875-7.472656-.320312-9.160156 3.050781-.726562 1.585938-3.152344 4.03125-6.75 6.199219-5.351562 3.316406-12.871094 6.109375-18.914062 7.921875-3.027344.910156-5.699219 1.601563-7.589844 2.054687-.949219.230469-1.699219.398438-2.207031.511719l-.570313.121094-.160156.03125c-1.914062.382813-3.585938 1.582031-4.566406 3.269531-.980469 1.683594-1.191406 3.734375-.570313 5.582032.5 1.507812.742188 3.117187.746094 4.875.121094 7.019531-4.480469 16.460937-9.574219 23.683593-2.511718 3.625-5.058594 6.742188-6.953125 8.914063-.945312 1.089844-1.730469 1.945312-2.269531 2.515625l-.609375.636719-.144531.148437-.027344.027344c-2.667969 2.667969-2.667969 6.988281 0 9.65625s6.988281 2.667969 9.652344 0zm0 0" fill="#54596e"/><path d="m177.496094 252.714844h-34.132813c-3.769531 0-6.828125 3.058594-6.828125 6.828125s3.058594 6.824219 6.828125 6.824219h33.457031l27.980469 5.597656v28.539062c0 3.769532 3.058594 6.824219 6.828125 6.824219 3.769532 0 6.828125-3.054687 6.828125-6.824219 0 3.769532-3.058593 6.824219-6.828125 6.824219-3.769531 0-6.828125-3.054687-6.828125-6.824219v-34.136718c0-3.253907 2.296875-6.054688 5.492188-6.691407l1.335937-.269531-32.796875-6.558594z" fill="#ddbc76"/><path d="m279.894531 252.714844h-34.132812l-1.339844.132812-32.792969 6.558594 1.339844.269531c3.191406.636719 5.488281 3.4375 5.488281 6.691407v34.136718-28.539062l27.980469-5.597656h33.457031c3.769531 0 6.828125-3.054688 6.828125-6.824219s-3.058594-6.828125-6.828125-6.828125" fill="#ddbc76"/><path d="m211.628906 259.40625-1.335937.269531c-3.195313.636719-5.492188 3.4375-5.492188 6.691407v34.136718c0 3.769532 3.058594 6.824219 6.828125 6.824219 3.769532 0 6.828125-3.054687 6.828125-6.824219v-34.136718c0-3.253907-2.296875-6.054688-5.488281-6.691407z" fill="#c2a874"/><path d="m177.496094 307.328125h-34.132813c-3.769531 0-6.828125 3.058594-6.828125 6.828125s3.058594 6.824219 6.828125 6.824219h33.457031l27.980469 5.597656v28.539063c0 3.769531 3.058594 6.824218 6.828125 6.824218 3.769532 0 6.828125-3.054687 6.828125-6.824218 0 3.769531-3.058593 6.824218-6.828125 6.824218-3.769531 0-6.828125-3.054687-6.828125-6.824218v-34.136719c0-3.253907 2.296875-6.054688 5.492188-6.691407l1.335937-.269531-32.796875-6.558593z" fill="#ddbc76"/><path d="m279.894531 307.328125h-34.132812l-1.339844.132813-32.792969 6.558593 1.339844.269531c3.191406.636719 5.488281 3.4375 5.488281 6.691407v34.136719-28.539063l27.980469-5.597656h33.457031c3.769531 0 6.828125-3.054688 6.828125-6.824219s-3.058594-6.828125-6.828125-6.828125" fill="#ddbc76"/><path d="m211.628906 314.019531-1.335937.269531c-3.195313.636719-5.492188 3.4375-5.492188 6.691407v34.136719c0 3.769531 3.058594 6.824218 6.828125 6.824218 3.769532 0 6.828125-3.054687 6.828125-6.824218v-34.136719c0-3.253907-2.296875-6.054688-5.488281-6.691407z" fill="#c2a874"/><path d="m307.210938 88.875c-.445313 0-.894532.042969-1.347657.132812l-68.265625 13.652344c-3.699218.738282-6.097656 4.335938-5.355468 8.035156.648437 3.246094 3.496093 5.488282 6.683593 5.488282.445313 0 .894531-.042969 1.347657-.132813l68.265624-13.65625c3.699219-.738281 6.097657-4.335937 5.355469-8.03125-.648437-3.246093-3.496093-5.488281-6.683593-5.488281" fill="#ddbc76"/><path d="m109.222656 88.875c-3.1875 0-6.039062 2.242188-6.6875 5.488281-.738281 3.695313 1.660156 7.292969 5.355469 8.03125l68.265625 13.65625c.453125.089844.90625.132813 1.347656.132813 3.1875 0 6.039063-2.246094 6.6875-5.488282.738282-3.699218-1.65625-7.292968-5.355468-8.035156l-68.265626-13.652344c-.453124-.089843-.902343-.132812-1.347656-.132812" fill="#ddbc76"/><path d="m204.800781 355.117188h13.65625v13.652343h-13.65625zm0 0" fill="#54596e"/></svg>