<?xml version="1.0" encoding="utf-8"?>
<!-- Generator: Adobe Illustrator 22.0.1, SVG Export Plug-In . SVG Version: 6.00 Build 0)  -->
<svg version="1.1" xmlns="http://www.w3.org/2000/svg" xmlns:xlink="http://www.w3.org/1999/xlink" x="0px" y="0px"
	 viewBox="0 0 200 200" style="enable-background:new 0 0 200 200;" xml:space="preserve">
<style type="text/css">
	.st0{fill:#151E1E;}
	.st1{fill:none;stroke:#151E1E;stroke-width:15.8322;stroke-linecap:round;stroke-miterlimit:10;}
	.st2{fill:none;stroke:#000000;stroke-width:11.8741;stroke-linecap:round;stroke-miterlimit:10;}
	.st3{fill:none;stroke:#3ABCEF;stroke-width:15.8322;stroke-linecap:round;stroke-miterlimit:10;}
	.st4{fill:none;stroke:#151E1E;stroke-width:14.3061;stroke-linecap:round;stroke-miterlimit:10;}
	.st5{fill:none;stroke:#151E1E;stroke-width:15.8322;stroke-linecap:round;stroke-linejoin:round;stroke-miterlimit:10;}
	.st6{fill:none;stroke:#000000;stroke-width:6.0358;stroke-linecap:round;stroke-miterlimit:10;}
	.st7{fill:#3ABCEF;}
	.st8{fill:none;stroke:#151E1E;stroke-width:14.48;stroke-linecap:round;stroke-miterlimit:10;}
	.st9{fill:#FFFFFF;stroke:#151E1E;stroke-width:0.2991;stroke-linecap:round;stroke-miterlimit:10;}
	.st10{fill:none;stroke:#151E1E;stroke-width:14.4798;stroke-linecap:round;stroke-miterlimit:10;}
	.st11{fill:#3EBCED;}
	.st12{fill:#151E1E;stroke:#FFFFFF;stroke-miterlimit:10;}
	.st13{fill:none;stroke:#151E1E;stroke-width:13.5335;stroke-linecap:round;stroke-miterlimit:10;}
	.st14{fill:none;stroke:#151E1E;stroke-width:15.832;stroke-linecap:round;stroke-miterlimit:10;}
	.st15{fill:none;}
	.st16{fill:#151E1D;}
	.st17{fill:none;stroke:#151E1E;stroke-linecap:round;stroke-linejoin:round;stroke-miterlimit:10;}
	.st18{fill:none;stroke:#000000;stroke-width:15.832;stroke-linecap:round;stroke-miterlimit:10;}
	.st19{fill:none;stroke:#151E1E;stroke-width:13.9294;stroke-linecap:round;stroke-miterlimit:10;}
	.st20{fill:#3EBCED;stroke:#3ABCEF;stroke-width:15.8322;stroke-linecap:round;stroke-miterlimit:10;}
	.st21{fill:#151E1E;stroke:#FFFFFF;stroke-width:0.7867;stroke-miterlimit:10;}
	.st22{fill:none;stroke:#151E1E;stroke-width:13.1365;stroke-linecap:round;stroke-miterlimit:10;}
	.st23{fill:none;stroke:#000000;stroke-width:2.008;stroke-miterlimit:10;}
	.st24{fill:none;stroke:#000000;stroke-miterlimit:10;}
	.st25{fill:#151E1E;stroke:#FFFFFF;stroke-width:0.9613;stroke-miterlimit:10;}
	.st26{fill:#3EBCED;stroke:#3ABCEF;stroke-width:12.0959;stroke-linecap:round;stroke-miterlimit:10;}
	.st27{fill:#3ABCEF;stroke:#FFFFFF;stroke-miterlimit:10;}
	.st28{display:none;}
</style>
<g id="Layer_1">
	<g id="Curl">
		<g>
			<path class="st0" d="M145.4,103.4c-3.6,0-6.9-2.5-7.7-6.1L130,64c-1-4.3,1.7-8.5,5.9-9.5c3.6-0.8,7.2,0.9,8.8,4
				c0.2,0,0.4,0,0.6,0c4.4,0,7.9,3.5,7.9,7.9v29c0,4-3,7.4-7,7.9C146,103.4,145.7,103.4,145.4,103.4z"/>
		</g>
		<rect x="86.8" y="53.2" class="st0" width="33" height="76.5"/>
		<circle class="st0" cx="102.6" cy="26.8" r="22.4"/>
		<g>
			<path class="st0" d="M77,195.7c-0.6,0-1.2-0.1-1.8-0.2c-4.3-1-6.9-5.2-6-9.5l10.6-46.2c1-4.3,5.2-6.9,9.5-6c4.3,1,6.9,5.2,6,9.5
				l-10.6,46.2C83.9,193.2,80.6,195.7,77,195.7z"/>
		</g>
		<g>
			<path class="st0" d="M131.1,195.7c-3.6,0-6.9-2.5-7.7-6.2l-10.6-46.2c-1-4.3,1.7-8.5,6-9.5c4.3-1,8.5,1.7,9.5,6l10.6,46.2
				c1,4.3-1.7,8.5-6,9.5C132.3,195.6,131.7,195.7,131.1,195.7z"/>
		</g>
		<g>
			<path class="st0" d="M46.4,141.8c-4.2-1.3-6.6-5.7-5.3-9.9l21.7-72c1.3-4.2,5.7-6.6,9.9-5.3c4.2,1.3,6.6,5.7,5.3,9.9l-21.7,72
				C55,140.7,50.6,143.1,46.4,141.8z"/>
		</g>
		<g>
			<line class="st6" x1="79.2" y1="129.4" x2="26.1" y2="129.4"/>
			<g>
				<path class="st7" d="M32.8,150.1c-2.2,0-4-1.8-4-4v-32.9c0-2.2,1.8-4,4-4s4,1.8,4,4v32.9C36.8,148.3,35,150.1,32.8,150.1z"/>
			</g>
			<g>
				<path class="st7" d="M72.5,150.1c-2.2,0-4-1.8-4-4v-32.9c0-2.2,1.8-4,4-4s4,1.8,4,4v32.9C76.5,148.3,74.7,150.1,72.5,150.1z"/>
			</g>
		</g>
		<g>
			<line class="st6" x1="173.9" y1="62.2" x2="120.8" y2="62.2"/>
			<g>
				<path class="st7" d="M127.5,82.9c-2.2,0-4-1.8-4-4V46c0-2.2,1.8-4,4-4c2.2,0,4,1.8,4,4v32.9C131.5,81.1,129.7,82.9,127.5,82.9z"
					/>
			</g>
			<g>
				<path class="st7" d="M167.2,82.9c-2.2,0-4-1.8-4-4V46c0-2.2,1.8-4,4-4c2.2,0,4,1.8,4,4v32.9C171.2,81.1,169.4,82.9,167.2,82.9z"
					/>
			</g>
		</g>
	</g>
</g>
<g id="Guides" class="st28">
</g>
</svg>
