<?xml version="1.0" encoding="utf-8"?>
<!-- Generator: Adobe Illustrator 22.0.1, SVG Export Plug-In . SVG Version: 6.00 Build 0)  -->
<svg version="1.1" xmlns="http://www.w3.org/2000/svg" xmlns:xlink="http://www.w3.org/1999/xlink" x="0px" y="0px"
	 viewBox="0 0 200 200" style="enable-background:new 0 0 200 200;" xml:space="preserve">
<style type="text/css">
	.st0{fill:#151E1E;}
	.st1{fill:none;stroke:#151E1E;stroke-width:15.8322;stroke-linecap:round;stroke-miterlimit:10;}
	.st2{fill:none;stroke:#000000;stroke-width:11.8741;stroke-linecap:round;stroke-miterlimit:10;}
	.st3{fill:none;stroke:#3ABCEF;stroke-width:15.8322;stroke-linecap:round;stroke-miterlimit:10;}
	.st4{fill:none;stroke:#151E1E;stroke-width:14.3061;stroke-linecap:round;stroke-miterlimit:10;}
	.st5{fill:none;stroke:#151E1E;stroke-width:15.8322;stroke-linecap:round;stroke-linejoin:round;stroke-miterlimit:10;}
	.st6{fill:none;stroke:#000000;stroke-width:6.0358;stroke-linecap:round;stroke-miterlimit:10;}
	.st7{fill:#3ABCEF;}
	.st8{fill:none;stroke:#151E1E;stroke-width:14.48;stroke-linecap:round;stroke-miterlimit:10;}
	.st9{fill:#FFFFFF;stroke:#151E1E;stroke-width:0.2991;stroke-linecap:round;stroke-miterlimit:10;}
	.st10{fill:none;stroke:#151E1E;stroke-width:14.4798;stroke-linecap:round;stroke-miterlimit:10;}
	.st11{fill:#3EBCED;}
	.st12{fill:#151E1E;stroke:#FFFFFF;stroke-miterlimit:10;}
	.st13{fill:none;stroke:#151E1E;stroke-width:13.5335;stroke-linecap:round;stroke-miterlimit:10;}
	.st14{fill:none;stroke:#151E1E;stroke-width:15.832;stroke-linecap:round;stroke-miterlimit:10;}
	.st15{fill:none;}
	.st16{fill:#151E1D;}
	.st17{fill:none;stroke:#151E1E;stroke-linecap:round;stroke-linejoin:round;stroke-miterlimit:10;}
	.st18{fill:none;stroke:#000000;stroke-width:15.832;stroke-linecap:round;stroke-miterlimit:10;}
	.st19{fill:none;stroke:#151E1E;stroke-width:13.9294;stroke-linecap:round;stroke-miterlimit:10;}
	.st20{fill:#3EBCED;stroke:#3ABCEF;stroke-width:15.8322;stroke-linecap:round;stroke-miterlimit:10;}
	.st21{fill:#151E1E;stroke:#FFFFFF;stroke-width:0.7867;stroke-miterlimit:10;}
	.st22{fill:none;stroke:#151E1E;stroke-width:13.1365;stroke-linecap:round;stroke-miterlimit:10;}
	.st23{fill:none;stroke:#000000;stroke-width:2.008;stroke-miterlimit:10;}
	.st24{fill:none;stroke:#000000;stroke-miterlimit:10;}
	.st25{fill:#151E1E;stroke:#FFFFFF;stroke-width:0.9613;stroke-miterlimit:10;}
	.st26{fill:#3EBCED;stroke:#3ABCEF;stroke-width:12.0959;stroke-linecap:round;stroke-miterlimit:10;}
	.st27{fill:#3ABCEF;stroke:#FFFFFF;stroke-miterlimit:10;}
	.st28{display:none;}
</style>
<g id="Layer_1">
	<g id="Hammer_Curl">
		<rect x="82.9" y="57.1" class="st0" width="33" height="76.5"/>
		<circle class="st0" cx="98.8" cy="30.7" r="22.4"/>
		<line class="st1" x1="82.9" y1="145.5" x2="72.4" y2="191.7"/>
		<line class="st1" x1="115.9" y1="145.5" x2="126.5" y2="191.7"/>
		<g>
			<path class="st14" d="M63.1,97.1l8.2,2.1c0.5,0.5,1.4,0.2,1.4-0.6l-0.3-30.5"/>
			<g>
				<line class="st6" x1="61.6" y1="120.5" x2="61.6" y2="67.4"/>
				<g>
					<path class="st7" d="M40.9,74.1c0-2.2,1.8-4,4-4h32.9c2.2,0,4,1.8,4,4s-1.8,4-4,4H44.9C42.7,78.1,40.9,76.3,40.9,74.1z"/>
				</g>
				<g>
					<path class="st7" d="M40.9,113.8c0-2.2,1.8-4,4-4h32.9c2.2,0,4,1.8,4,4c0,2.2-1.8,4-4,4H44.9C42.7,117.8,40.9,116,40.9,113.8z"
						/>
				</g>
			</g>
		</g>
		<g>
			<path class="st14" d="M135.7,97.1l-8.2,2.1c-0.5,0.5-1.4,0.2-1.4-0.6l0.3-30.5"/>
			<g>
				<line class="st6" x1="137.2" y1="120.5" x2="137.2" y2="67.4"/>
				<g>
					<path class="st7" d="M157.9,74.1c0-2.2-1.8-4-4-4H121c-2.2,0-4,1.8-4,4s1.8,4,4,4h32.9C156.1,78.1,157.9,76.3,157.9,74.1z"/>
				</g>
				<g>
					<path class="st7" d="M157.9,113.8c0-2.2-1.8-4-4-4H121c-2.2,0-4,1.8-4,4c0,2.2,1.8,4,4,4h32.9
						C156.1,117.8,157.9,116,157.9,113.8z"/>
				</g>
			</g>
		</g>
	</g>
</g>
<g id="Guides" class="st28">
</g>
</svg>
