<?xml version="1.0" encoding="utf-8"?>
<!-- Generator: Adobe Illustrator 22.0.1, SVG Export Plug-In . SVG Version: 6.00 Build 0)  -->
<svg version="1.1" xmlns="http://www.w3.org/2000/svg" xmlns:xlink="http://www.w3.org/1999/xlink" x="0px" y="0px"
	 viewBox="0 0 200 200" style="enable-background:new 0 0 200 200;" xml:space="preserve">
<style type="text/css">
	.st0{fill:#151E1E;}
	.st1{fill:none;stroke:#151E1E;stroke-width:15.8322;stroke-linecap:round;stroke-miterlimit:10;}
	.st2{fill:none;stroke:#000000;stroke-width:11.8741;stroke-linecap:round;stroke-miterlimit:10;}
	.st3{fill:none;stroke:#3ABCEF;stroke-width:15.8322;stroke-linecap:round;stroke-miterlimit:10;}
	.st4{fill:none;stroke:#151E1E;stroke-width:14.3061;stroke-linecap:round;stroke-miterlimit:10;}
	.st5{fill:none;stroke:#151E1E;stroke-width:15.8322;stroke-linecap:round;stroke-linejoin:round;stroke-miterlimit:10;}
	.st6{fill:none;stroke:#000000;stroke-width:6.0358;stroke-linecap:round;stroke-miterlimit:10;}
	.st7{fill:#3ABCEF;}
	.st8{fill:none;stroke:#151E1E;stroke-width:14.48;stroke-linecap:round;stroke-miterlimit:10;}
	.st9{fill:#FFFFFF;stroke:#151E1E;stroke-width:0.2991;stroke-linecap:round;stroke-miterlimit:10;}
	.st10{fill:none;stroke:#151E1E;stroke-width:14.4798;stroke-linecap:round;stroke-miterlimit:10;}
	.st11{fill:#3EBCED;}
	.st12{fill:#151E1E;stroke:#FFFFFF;stroke-miterlimit:10;}
	.st13{fill:none;stroke:#151E1E;stroke-width:13.5335;stroke-linecap:round;stroke-miterlimit:10;}
	.st14{fill:none;stroke:#151E1E;stroke-width:15.832;stroke-linecap:round;stroke-miterlimit:10;}
	.st15{fill:none;}
	.st16{fill:#151E1D;}
	.st17{fill:none;stroke:#151E1E;stroke-linecap:round;stroke-linejoin:round;stroke-miterlimit:10;}
	.st18{fill:none;stroke:#000000;stroke-width:15.832;stroke-linecap:round;stroke-miterlimit:10;}
	.st19{fill:none;stroke:#151E1E;stroke-width:13.9294;stroke-linecap:round;stroke-miterlimit:10;}
	.st20{fill:#3EBCED;stroke:#3ABCEF;stroke-width:15.8322;stroke-linecap:round;stroke-miterlimit:10;}
	.st21{fill:#151E1E;stroke:#FFFFFF;stroke-width:0.7867;stroke-miterlimit:10;}
	.st22{fill:none;stroke:#151E1E;stroke-width:13.1365;stroke-linecap:round;stroke-miterlimit:10;}
	.st23{fill:none;stroke:#000000;stroke-width:2.008;stroke-miterlimit:10;}
	.st24{fill:none;stroke:#000000;stroke-miterlimit:10;}
	.st25{fill:#151E1E;stroke:#FFFFFF;stroke-width:0.9613;stroke-miterlimit:10;}
	.st26{fill:#3EBCED;stroke:#3ABCEF;stroke-width:12.0959;stroke-linecap:round;stroke-miterlimit:10;}
	.st27{fill:#3ABCEF;stroke:#FFFFFF;stroke-miterlimit:10;}
	.st28{display:none;}
</style>
<g id="Layer_1">
	<g id="Shoulder_Press_1_">
		<rect x="85.9" y="57.5" class="st0" width="33" height="76.5"/>
		<circle class="st0" cx="101.7" cy="31.2" r="22.4"/>
		<path class="st14" d="M128.5,66.8l29.2-0.1c4.1,0,7.5-3.3,7.6-7.4l-1.4-31"/>
		<line class="st1" x1="85.9" y1="145.9" x2="75.3" y2="192.1"/>
		<line class="st1" x1="118.9" y1="145.9" x2="129.4" y2="192.1"/>
		<g>
			<line class="st6" x1="189" y1="27.9" x2="135.8" y2="27.9"/>
			<g>
				<path class="st7" d="M142.6,48.6c-2.2,0-4-1.8-4-4V11.7c0-2.2,1.8-4,4-4s4,1.8,4,4v32.9C146.6,46.7,144.8,48.6,142.6,48.6z"/>
			</g>
			<g>
				<path class="st7" d="M182.3,48.6c-2.2,0-4-1.8-4-4V11.7c0-2.2,1.8-4,4-4c2.2,0,4,1.8,4,4v32.9C186.3,46.7,184.5,48.6,182.3,48.6
					z"/>
			</g>
		</g>
		<path class="st14" d="M76.1,66.8l-29.2-0.1c-4.1,0-7.5-3.3-7.6-7.4l1.4-31"/>
		<g>
			<line class="st6" x1="15.4" y1="27.9" x2="68.5" y2="27.9"/>
			<g>
				<path class="st7" d="M61.8,48.6c2.2,0,4-1.8,4-4V11.7c0-2.2-1.8-4-4-4c-2.2,0-4,1.8-4,4v32.9C57.8,46.7,59.6,48.6,61.8,48.6z"/>
			</g>
			<g>
				<path class="st7" d="M22.1,48.6c2.2,0,4-1.8,4-4V11.7c0-2.2-1.8-4-4-4s-4,1.8-4,4v32.9C18.1,46.7,19.9,48.6,22.1,48.6z"/>
			</g>
		</g>
	</g>
</g>
<g id="Guides" class="st28">
</g>
</svg>
