<?xml version="1.0" encoding="utf-8"?>
<!-- Generator: Adobe Illustrator 22.0.1, SVG Export Plug-In . SVG Version: 6.00 Build 0)  -->
<svg version="1.1" xmlns="http://www.w3.org/2000/svg" xmlns:xlink="http://www.w3.org/1999/xlink" x="0px" y="0px"
	 viewBox="0 0 200 200" style="enable-background:new 0 0 200 200;" xml:space="preserve">
<style type="text/css">
	.st0{fill:#151E1E;}
	.st1{fill:none;stroke:#151E1E;stroke-width:15.8322;stroke-linecap:round;stroke-miterlimit:10;}
	.st2{fill:none;stroke:#000000;stroke-width:11.8741;stroke-linecap:round;stroke-miterlimit:10;}
	.st3{fill:none;stroke:#3ABCEF;stroke-width:15.8322;stroke-linecap:round;stroke-miterlimit:10;}
	.st4{fill:none;stroke:#151E1E;stroke-width:14.3061;stroke-linecap:round;stroke-miterlimit:10;}
	.st5{fill:none;stroke:#151E1E;stroke-width:15.8322;stroke-linecap:round;stroke-linejoin:round;stroke-miterlimit:10;}
	.st6{fill:none;stroke:#000000;stroke-width:6.0358;stroke-linecap:round;stroke-miterlimit:10;}
	.st7{fill:#3ABCEF;}
	.st8{fill:none;stroke:#151E1E;stroke-width:14.48;stroke-linecap:round;stroke-miterlimit:10;}
	.st9{fill:#FFFFFF;stroke:#151E1E;stroke-width:0.2991;stroke-linecap:round;stroke-miterlimit:10;}
	.st10{fill:none;stroke:#151E1E;stroke-width:14.4798;stroke-linecap:round;stroke-miterlimit:10;}
	.st11{fill:#3EBCED;}
	.st12{fill:#151E1E;stroke:#FFFFFF;stroke-miterlimit:10;}
	.st13{fill:none;stroke:#151E1E;stroke-width:13.5335;stroke-linecap:round;stroke-miterlimit:10;}
	.st14{fill:none;stroke:#151E1E;stroke-width:15.832;stroke-linecap:round;stroke-miterlimit:10;}
	.st15{fill:none;}
	.st16{fill:#151E1D;}
	.st17{fill:none;stroke:#151E1E;stroke-linecap:round;stroke-linejoin:round;stroke-miterlimit:10;}
	.st18{fill:none;stroke:#000000;stroke-width:15.832;stroke-linecap:round;stroke-miterlimit:10;}
	.st19{fill:none;stroke:#151E1E;stroke-width:13.9294;stroke-linecap:round;stroke-miterlimit:10;}
	.st20{fill:#3EBCED;stroke:#3ABCEF;stroke-width:15.8322;stroke-linecap:round;stroke-miterlimit:10;}
	.st21{fill:#151E1E;stroke:#FFFFFF;stroke-width:0.7867;stroke-miterlimit:10;}
	.st22{fill:none;stroke:#151E1E;stroke-width:13.1365;stroke-linecap:round;stroke-miterlimit:10;}
	.st23{fill:none;stroke:#000000;stroke-width:2.008;stroke-miterlimit:10;}
	.st24{fill:none;stroke:#000000;stroke-miterlimit:10;}
	.st25{fill:#151E1E;stroke:#FFFFFF;stroke-width:0.9613;stroke-miterlimit:10;}
	.st26{fill:#3EBCED;stroke:#3ABCEF;stroke-width:12.0959;stroke-linecap:round;stroke-miterlimit:10;}
	.st27{fill:#3ABCEF;stroke:#FFFFFF;stroke-miterlimit:10;}
	.st28{display:none;}
</style>
<g id="Layer_1">
	<g id="Front_Raises">
		<rect x="79.7" y="49.9" class="st0" width="33" height="76.5"/>
		<circle class="st0" cx="95.5" cy="23.5" r="22.4"/>
		<g>
			<path class="st0" d="M181.2,67.4h-59c-4.4,0-7.9-3.5-7.9-7.9s3.5-7.9,7.9-7.9h59c4.4,0,7.9,3.5,7.9,7.9S185.6,67.4,181.2,67.4z"
				/>
		</g>
		<g>
			<circle class="st7" cx="181.1" cy="59.5" r="15.7"/>
			<circle cx="181.1" cy="59.5" r="4.4"/>
		</g>
		<g>
			<path class="st12" d="M180.1,76h-59c-4.4,0-7.9-3.5-7.9-7.9s3.5-7.9,7.9-7.9h59c4.4,0,7.9,3.5,7.9,7.9S184.5,76,180.1,76z"/>
		</g>
		<circle class="st27" cx="179.9" cy="68.1" r="15.7"/>
		<circle cx="179.9" cy="68.1" r="4.4"/>
		<g>
			<path class="st0" d="M96.2,198.4c-4.4,0-7.9-3.5-7.9-7.9v-55.4c0-4.4,3.5-7.9,7.9-7.9s7.9,3.5,7.9,7.9v55.4
				C104.1,194.9,100.6,198.4,96.2,198.4z"/>
		</g>
		<g>
			<path class="st12" d="M97.6,198.4c-4.4,0-7.9-3.5-7.9-7.9v-55.4c0-4.4,3.5-7.9,7.9-7.9s7.9,3.5,7.9,7.9v55.4
				C105.5,194.9,102,198.4,97.6,198.4z"/>
		</g>
	</g>
</g>
<g id="Guides" class="st28">
</g>
</svg>
