<?xml version="1.0" encoding="utf-8"?>
<!-- Generator: Adobe Illustrator 22.0.1, SVG Export Plug-In . SVG Version: 6.00 Build 0)  -->
<svg version="1.1" id="Layer_1" xmlns="http://www.w3.org/2000/svg" xmlns:xlink="http://www.w3.org/1999/xlink" x="0px" y="0px"
	 viewBox="0 0 461.9 461.9" style="enable-background:new 0 0 461.9 461.9;" xml:space="preserve">
<style type="text/css">
	.st0{fill:#3ABCEF;}
</style>
<g>
	<path class="st0" d="M454.4,218L240.2,3.8c-5.1-5.1-13.4-5.1-18.5,0L7.5,218c-3.7,3.7-4.9,9.4-2.8,14.3s6.8,8.1,12.1,8.1h25.4
		v189.5c0,17.7,14.3,32,32,32h101.3V355.2c0-7.2,5.9-13.1,13.1-13.1h84.5c7.2,0,13.1,5.9,13.1,13.1v106.7h101.3
		c17.7,0,32-14.3,32-32V240.4h25.4c5.3,0,10.1-3.2,12.1-8.1S458.1,221.8,454.4,218z"/>
</g>
</svg>
