<svg height="417pt" viewBox="-11 0 417 417.52235" width="417pt" xmlns="http://www.w3.org/2000/svg"><path d="m389.375 218.453125s-75.09375-61.441406-136.53125 20.480469c0 0-54.613281-47.785156-116.054688 0l-6.828124-116.054688s-3.015626-4.144531-7.695313-10.191406l3.734375.378906s24.1875 0 28.214844-9.035156l13.421875 12.371094c5.304687 4.460937 13.199219 3.894531 17.816406-1.277344l33.1875-37.210938c4.023437-4.507812 4.351563-11.210937.789063-16.089843l-37-48.171875-108.832032 49.707031s-4.039062 1.777344-5.078125 4.90625c-6.828125 20.480469-61.441406 218.453125-61.441406 232.105469v15.847656c0 2.949219 1.320313 5.714844 3.644531 7.53125 2.960938 2.320312 17.691406 6.382812 23.664063 10.753906 25.765625 18.84375 65.863281 51.804688 109.226562 61.441406 61.4375 13.652344 136.53125-6.828124 136.53125-6.828124s47.789063 27.308593 109.226563 20.480468v-191.144531" fill="#ffd578"/><g fill="#54596e"><path d="m393.699219 213.167969c-.28125-.222657-7.410157-6.035157-19.164063-11.886719-11.75-5.832031-28.183594-11.757812-47.089844-11.773438-12.589843-.007812-26.265624 2.6875-39.945312 9.773438-13.691406 7.078125-27.324219 18.484375-40.117188 35.554688l5.460938 4.097656 4.496094-5.136719c-.304688-.261719-6.773438-5.894531-17.820313-11.558594-11.035156-5.648437-26.71875-11.359375-45.335937-11.371093-18.601563-.03125-40.027344 5.871093-61.585938 22.679687l4.195313 5.386719 6.8125-.402344-6.828125-116.050781c-.074219-1.296875-.53125-2.570313-1.296875-3.621094-.027344-.039063-3.082031-4.234375-7.8125-10.347656l-5.402344 4.175781-.6875 6.789062 3.730469.382813.691406.035156c.226562-.007812 6.53125.007813 13.757812-1.230469 3.628907-.632812 7.488282-1.550781 11.144532-3.179687 1.828125-.824219 3.621094-1.832031 5.292968-3.207031 1.660157-1.371094 3.230469-3.164063 4.257813-5.46875l-6.234375-2.777344-4.628906 5.019531 13.421875 12.371094.234375.207031c3.660156 3.082032 8.183594 4.613282 12.636718 4.605469 5.390626.007813 10.804688-2.234375 14.667969-6.566406l33.191407-37.210938c3.300781-3.699219 4.988281-8.394531 4.984374-13.078125.003907-4.039062-1.253906-8.125-3.773437-11.578125l-.101563-.136719-37-48.167968c-1.933593-2.519532-5.363281-3.371094-8.25-2.054688l-108.835937 49.707032 2.835937 6.210937-2.753906-6.246094c-.289062.132813-1.675781.742188-3.429687 2.019531-1.703125 1.304688-4.054688 3.246094-5.367188 6.976563-.929687 2.785156-2.519531 8.101563-4.679687 15.546875-7.539063 25.984375-21.746094 77.207031-34.09375 123.492188-6.171875 23.144531-11.875 45.042968-16.050782 61.957031-2.085937 8.457031-3.789062 15.664062-4.984374 21.203125-.601563 2.773437-1.074219 5.128906-1.40625 7.0625-.332032 1.988281-.554688 3.351562-.574219 5v15.847656c-.011719 4.984375 2.269531 9.789062 6.257812 12.90625 1.058594.8125 1.90625 1.242188 2.832031 1.707031 3.117188 1.507813 7.238282 2.9375 11.390626 4.585938 4.070312 1.570312 8.132812 3.453125 9.621093 4.597656 12.734375 9.308594 29.371094 22.402344 48.398438 34.433594 19.042969 12.027343 40.523437 23.066406 63.378906 28.160156 16 3.554687 32.683594 4.855469 48.734375 4.855469 48.125-.019532 90.742188-11.683594 91.074219-11.757813l-1.800781-6.585937-3.386719 5.925781c.582031.296875 39.222656 22.425781 92.6875 22.476563 6.679687 0 13.589843-.351563 20.679687-1.136719 3.746094-.417969 6.449219-3.792969 6.03125-7.539063-.417968-3.75-3.789062-6.449218-7.539062-6.03125-6.5625.726563-12.96875 1.050782-19.171875 1.050782-24.816407.003906-46.433594-5.207032-61.785157-10.425782-7.675781-2.605468-13.78125-5.207031-17.929687-7.140625-2.074219-.964843-3.660156-1.761719-4.710937-2.308593l-1.164063-.621094-.269531-.148438-.054688-.03125c-1.5625-.890625-3.449218-1.128906-5.183594-.65625l-.425781.113282c-4.484375 1.191406-43.980469 11.183593-87.058593 11.164062-15.308594.003906-31.054688-1.257812-45.773438-4.53125-20.507812-4.542969-40.757812-14.800781-59.046875-26.371094-18.300781-11.570312-34.597656-24.378906-47.632813-33.914062-2.15625-1.566406-4.507812-2.757813-7.003906-3.902344-3.71875-1.6875-7.734375-3.171875-11.023437-4.445312-1.640625-.628907-3.09375-1.203126-4.148438-1.667969l-1.203125-.566407-.238281-.132812-.78125 1.265625.917969-1.167969-.136719-.097656-.78125 1.265625.917969-1.167969c-.65625-.523437-1.019532-1.246094-1.027344-2.160156v-15.847656h.003906c.003906-.332032.222656-1.984375.644532-4.160156 1.578124-8.363282 5.800781-25.75 11.289062-47.078126 8.238281-32.039062 19.363281-73.238281 29.019531-108.1875 4.828125-17.472656 9.289063-33.390624 12.835938-45.8125 3.535156-12.394531 6.203125-21.425781 7.300781-24.707031l-1.230469-.414062 1.117188.671875.113281-.261719-1.230469-.410156 1.117188.671875-.179688-.109375.167969.125.007812-.015625-.179687-.105469.171875.121094.898438-.75.539062-.320313.109375-.054687-1.089844-2.277344 1.015625 2.308594.074219-.03125-1.089844-2.28125 1.015625 2.3125.082032-.035157 103.898437-47.449218 33.691406 43.863281 5.410157-4.160156-5.515626 4.023437c.777344 1.066406 1.152344 2.285156 1.152344 3.53125-.003906 1.445313-.503906 2.851563-1.519531 3.988282l-33.191406 37.210937c-1.195313 1.335937-2.804688 1.996094-4.476563 2.003906-1.378906-.003906-2.714844-.449219-3.851562-1.402343l-4.394532 5.226562 4.628907-5.019531-13.421875-12.375c-1.609375-1.484375-3.859375-2.109375-6.003906-1.667969-2.144532.441406-3.964844 1.90625-4.859376 3.90625l-.066406.097656c-.203125.335938-1.609375 1.394532-3.820312 2.175782-3.289063 1.234374-7.992188 2.011718-11.710938 2.355468-1.863281.183594-3.5.273438-4.648437.320313l-1.324219.039062-.410156.003907v6.828124l.691406-6.792968-3.734375-.378906c-2.726563-.28125-5.328125 1.082031-6.660156 3.476562-1.328125 2.394531-1.105469 5.320312.570312 7.488281 2.308594 2.988281 4.210938 5.507813 5.53125 7.273438 1.320313 1.765625 2.042969 2.761719 2.046875 2.761719l5.519532-4.019532-6.8125.402344 6.828124 116.054688c.148438 2.519531 1.695313 4.773437 3.996094 5.816406 2.300782 1.042968 5.011719.71875 7.007813-.832032 19.40625-15.046874 37.417969-19.765624 53.203125-19.800781 15.769531-.007812 29.417968 4.898438 39.113281 9.867188 4.839844 2.480469 8.683594 4.964843 11.273437 6.796875 1.292969.917968 2.273438 1.671875 2.914063 2.179687l.699219.570313.152344.125.023437.019531 1.703125-1.96875-1.714844 1.960937.011719.007813 1.699219-1.96875-1.714844 1.960937c1.433594 1.25 3.316406 1.847657 5.207031 1.652344 1.890625-.199218 3.613281-1.175781 4.75-2.695312 11.78125-15.699219 23.816407-25.589844 35.46875-31.617188 11.660157-6.023437 22.996094-8.242187 33.671875-8.25 15.992188-.015625 30.523438 5.117188 41.015625 10.34375 5.238281 2.609375 9.460938 5.222656 12.335938 7.15625 1.4375.964844 2.535156 1.761719 3.257812 2.304688l.796875.609375.179688.140625.023437.019531c2.917969 2.390625 7.21875 1.957031 9.609375-.960937 2.386719-2.914063 1.957032-7.214844-.960937-9.605469zm0 0"/><path d="m123.136719 273.066406c1.140625.015625 2.847656-.332031 4.558593-1.324218 2.601563-1.503907 5.160157-4.171876 7.757813-8.878907 2.597656-4.738281 5.296875-11.644531 7.960937-22.273437.914063-3.660156-1.308593-7.367188-4.96875-8.28125-3.65625-.914063-7.363281 1.308594-8.277343 4.96875-3.261719 13.136718-6.515625 19.21875-8.226563 21.453125l-.914062 1.050781-.140625.121094-.027344.019531 2.277344 3.390625v-3.902344c-1.3125-.023437-2.234375.457032-2.277344.511719l2.277344 3.390625v-3.902344c-3.769531 0-6.828125 3.054688-6.828125 6.828125 0 3.773438 3.058594 6.828125 6.828125 6.828125zm0 0"/><path d="m280.148438 273.066406c.066406-1.734375-.886719-17.464844-22.480469-38.960937-2.664063-2.664063-6.988281-2.664063-9.652344 0-2.667969 2.667969-2.667969 6.988281 0 9.65625 9.703125 9.707031 14.28125 17.503906 16.472656 22.609375 1.09375 2.554687 1.589844 4.4375 1.820313 5.582031l.179687 1.144531.007813.132813 3.496094-.164063h-3.496094v.164063l3.496094-.167969h-3.496094c0 3.769531 3.054687 6.828125 6.824218 6.828125 3.773438.003906 6.828126-3.054687 6.828126-6.824219zm0 0"/><path d="m341.589844 320.851562c-.003906.851563.175781 2.746094 1.269531 5.101563 1.628906 3.570313 5.246094 7.925781 12.191406 11.839844 6.964844 3.9375 17.300781 7.617187 33.203125 10.273437 3.71875.621094 7.234375-1.890625 7.855469-5.609375.617187-3.71875-1.894531-7.238281-5.613281-7.855469-19.777344-3.277343-28.890625-8.183593-32.589844-11.3125-1.875-1.566406-2.457031-2.644531-2.652344-3.054687l-.082031-.199219-.050781.019532.050781-.015626v-.003906l-.050781.019532.050781-.015626-3.449219.816407h3.519532l-.066407-.816407-3.453125.816407h3.519532c0-3.769531-3.054688-6.828125-6.824219-6.828125-3.773438 0-6.828125 3.054687-6.828125 6.824218zm0 0"/></g><path d="m389.375 76.230469-54.773438-69.402344-54.773437 69.402344h27.628906v26.167969h54.613281v-26.167969zm0 0" fill="#aff05d"/><path d="m389.375 76.230469 5.359375-4.230469-54.773437-69.402344c-1.296876-1.644531-3.261719-2.597656-5.359376-2.597656-2.097656 0-4.058593.949219-5.359374 2.597656l-54.773438 69.402344c-1.617188 2.050781-1.921875 4.855469-.785156 7.207031 1.140625 2.351563 3.53125 3.847657 6.144531 3.847657h20.800781v19.34375c0 1.796874.730469 3.558593 2 4.828124 1.273438 1.269532 3.03125 2 4.828125 2h54.613281c1.796876 0 3.554688-.730468 4.824219-2 1.269531-1.273437 2-3.03125 2-4.828124v-19.34375h20.480469c2.613281 0 5.003906-1.496094 6.144531-3.847657 1.136719-2.347656.832031-5.15625-.785156-7.207031l-5.359375 4.230469v-6.828125h-27.304688c-1.796874 0-3.558593.730468-4.828124 2-1.269532 1.273437-2 3.03125-2 4.828125v19.34375h-40.960938v-19.34375c0-1.796875-.726562-3.558594-2-4.828125-1.269531-1.269532-3.027344-2-4.824219-2h-13.542969l40.6875-51.554688 49.414063 62.613282 5.359375-4.230469v-6.828125zm0 0" fill="#55596c"/><path d="m307.457031 122.878906h54.613281v20.480469h-54.613281zm0 0" fill="#aff05d"/><path d="m362.070312 143.359375v-6.824219h-47.789062v-6.828125h40.960938v13.652344h6.828124v-6.824219 6.824219h6.824219v-20.480469c0-1.796875-.726562-3.554687-2-4.824218-1.269531-1.273438-3.027343-2-4.824219-2h-54.613281c-1.796875 0-3.558593.726562-4.828125 2-1.269531 1.269531-2 3.027343-2 4.824218v20.480469c0 1.796875.730469 3.558594 2 4.828125 1.273438 1.269531 3.03125 2 4.828125 2h54.613281c1.796876 0 3.554688-.730469 4.824219-2 1.269531-1.273438 2-3.03125 2-4.828125zm0 0" fill="#55596c"/><path d="m307.457031 170.667969h54.613281c3.769532 0 6.824219-3.058594 6.824219-6.828125 0-3.769532-3.054687-6.828125-6.824219-6.828125h-54.613281c-3.769531 0-6.828125 3.058593-6.828125 6.828125 0 3.769531 3.058594 6.828125 6.828125 6.828125" fill="#55596c"/><path d="m88.996094 307.199219c-1.195313 0-2.40625.3125-3.503906.972656-3.234376 1.941406-4.285157 6.132813-2.34375 9.367187.300781.484376 8.484374 14.050782 26.015624 27.6875 17.484376 13.617188 44.535157 27.246094 81.644532 27.246094h.085937c11.136719 0 23.160157-1.21875 36.074219-3.984375 3.6875-.789062 6.035156-4.417969 5.242188-8.105469-.683594-3.203124-3.515626-5.398437-6.667969-5.398437-.472657 0-.953125.050781-1.433594.152344-12.023437 2.578125-23.074219 3.683593-33.214844 3.683593-33.765625-.023437-57.632812-12.195312-73.351562-24.375-7.839844-6.089843-13.589844-12.1875-17.335938-16.707031-1.875-2.261719-3.25-4.128906-4.136719-5.398437-.441406-.636719-.761718-1.121094-.964843-1.433594l-.214844-.335938-.039063-.058593c-1.28125-2.132813-3.539062-3.3125-5.855468-3.3125" fill="#ddbc76"/></svg>