<?xml version="1.0" encoding="utf-8"?>
<!-- Generator: Adobe Illustrator 22.0.1, SVG Export Plug-In . SVG Version: 6.00 Build 0)  -->
<svg version="1.1" xmlns="http://www.w3.org/2000/svg" xmlns:xlink="http://www.w3.org/1999/xlink" x="0px" y="0px"
	 viewBox="0 0 200 200" style="enable-background:new 0 0 200 200;" xml:space="preserve">
<style type="text/css">
	.st0{fill:#151E1E;}
	.st1{fill:none;stroke:#151E1E;stroke-width:15.8322;stroke-linecap:round;stroke-miterlimit:10;}
	.st2{fill:none;stroke:#000000;stroke-width:11.8741;stroke-linecap:round;stroke-miterlimit:10;}
	.st3{fill:none;stroke:#3ABCEF;stroke-width:15.8322;stroke-linecap:round;stroke-miterlimit:10;}
	.st4{fill:none;stroke:#151E1E;stroke-width:14.3061;stroke-linecap:round;stroke-miterlimit:10;}
	.st5{fill:none;stroke:#151E1E;stroke-width:15.8322;stroke-linecap:round;stroke-linejoin:round;stroke-miterlimit:10;}
	.st6{fill:none;stroke:#000000;stroke-width:6.0358;stroke-linecap:round;stroke-miterlimit:10;}
	.st7{fill:#3ABCEF;}
	.st8{fill:none;stroke:#151E1E;stroke-width:14.48;stroke-linecap:round;stroke-miterlimit:10;}
	.st9{fill:#FFFFFF;stroke:#151E1E;stroke-width:0.2991;stroke-linecap:round;stroke-miterlimit:10;}
	.st10{fill:none;stroke:#151E1E;stroke-width:14.4798;stroke-linecap:round;stroke-miterlimit:10;}
	.st11{fill:#3EBCED;}
	.st12{fill:#151E1E;stroke:#FFFFFF;stroke-miterlimit:10;}
	.st13{fill:none;stroke:#151E1E;stroke-width:13.5335;stroke-linecap:round;stroke-miterlimit:10;}
	.st14{fill:none;stroke:#151E1E;stroke-width:15.832;stroke-linecap:round;stroke-miterlimit:10;}
	.st15{fill:none;}
	.st16{fill:#151E1D;}
	.st17{fill:none;stroke:#151E1E;stroke-linecap:round;stroke-linejoin:round;stroke-miterlimit:10;}
	.st18{fill:none;stroke:#000000;stroke-width:15.832;stroke-linecap:round;stroke-miterlimit:10;}
	.st19{fill:none;stroke:#151E1E;stroke-width:13.9294;stroke-linecap:round;stroke-miterlimit:10;}
	.st20{fill:#3EBCED;stroke:#3ABCEF;stroke-width:15.8322;stroke-linecap:round;stroke-miterlimit:10;}
	.st21{fill:#151E1E;stroke:#FFFFFF;stroke-width:0.7867;stroke-miterlimit:10;}
	.st22{fill:none;stroke:#151E1E;stroke-width:13.1365;stroke-linecap:round;stroke-miterlimit:10;}
	.st23{fill:none;stroke:#000000;stroke-width:2.008;stroke-miterlimit:10;}
	.st24{fill:none;stroke:#000000;stroke-miterlimit:10;}
	.st25{fill:#151E1E;stroke:#FFFFFF;stroke-width:0.9613;stroke-miterlimit:10;}
	.st26{fill:#3EBCED;stroke:#3ABCEF;stroke-width:12.0959;stroke-linecap:round;stroke-miterlimit:10;}
	.st27{fill:#3ABCEF;stroke:#FFFFFF;stroke-miterlimit:10;}
	.st28{display:none;}
</style>
<g id="Layer_1">
	<g id="Lat_Pulldown">
		<path class="st0" d="M100,15.3L100,15.3c-0.6,0-1-0.4-1-1V1c0-0.5,0.4-1,1-1l0,0c0.6,0,1,0.4,1,1v13.3
			C101,14.8,100.6,15.3,100,15.3z"/>
		<path class="st0" d="M163.6,47.7l-31.4-31.4c-0.1-0.1-0.2-0.1-0.3-0.2c-0.3-0.4-0.7-0.6-1.1-0.6H69.2c-0.5,0-0.9,0.2-1.1,0.6
			c-0.1,0.1-0.2,0.1-0.3,0.2L36.4,47.7c-0.5,0.5-0.5,1.4,0,2c0.5,0.5,1.4,0.5,2,0l31.3-31.3h60.5l31.3,31.3c0.5,0.5,1.4,0.5,2,0
			C164.1,49.1,164.1,48.2,163.6,47.7z"/>
		<rect x="83.8" y="91.3" class="st0" width="30.1" height="66"/>
		<circle class="st0" cx="98.8" cy="67.1" r="22.4"/>
		<path class="st0" d="M114.9,200h-2.1c-3.9,0-7.1-3.2-7.1-7.1v-24.7c0-3.9,3.2-7.1,7.1-7.1h2.1c3.9,0,7.1,3.2,7.1,7.1v24.7
			C122,196.8,118.8,200,114.9,200z"/>
		<path class="st0" d="M86,200h-2.1c-3.9,0-7.1-3.2-7.1-7.1v-24.7c0-3.9,3.2-7.1,7.1-7.1H86c3.9,0,7.1,3.2,7.1,7.1v24.7
			C93.1,196.8,89.9,200,86,200z"/>
		<path class="st7" d="M79.4,172.1V170c0-3.9,3.2-7.1,7.1-7.1h25.3c3.9,0,7.1,3.2,7.1,7.1v2.1c0,3.9-3.2,7.1-7.1,7.1H86.5
			C82.6,179.3,79.4,176.1,79.4,172.1z"/>
		<path class="st0" d="M125,105.8L125,105.8c-3.7-1.3-5.6-5.5-4.2-9.1l21.6-59c1.3-3.7,5.5-5.6,9.1-4.2l0,0c3.7,1.3,5.6,5.5,4.2,9.1
			l-21.6,59C132.7,105.3,128.6,107.2,125,105.8z"/>
		<path class="st0" d="M73.9,105.8L73.9,105.8c3.7-1.3,5.6-5.5,4.2-9.1l-21.6-59c-1.3-3.7-5.5-5.6-9.1-4.2l0,0
			c-3.7,1.3-5.6,5.5-4.2,9.1l21.6,59C66.1,105.3,70.2,107.2,73.9,105.8z"/>
		<path class="st7" d="M83.8,200L83.8,200c-1.3,0-2.4-1.1-2.4-2.4v-24.1c0-1.3,1.1-2.4,2.4-2.4h0c1.3,0,2.4,1.1,2.4,2.4v24.1
			C86.1,198.9,85.1,200,83.8,200z"/>
		<path class="st7" d="M114.2,200L114.2,200c-1.3,0-2.4-1.1-2.4-2.4v-24.1c0-1.3,1.1-2.4,2.4-2.4h0c1.3,0,2.4,1.1,2.4,2.4v24.1
			C116.6,198.9,115.5,200,114.2,200z"/>
	</g>
</g>
<g id="Guides" class="st28">
</g>
</svg>
