<?xml version="1.0" encoding="utf-8"?>
<!-- Generator: Adobe Illustrator 22.0.1, SVG Export Plug-In . SVG Version: 6.00 Build 0)  -->
<svg version="1.1" xmlns="http://www.w3.org/2000/svg" xmlns:xlink="http://www.w3.org/1999/xlink" x="0px" y="0px"
	 viewBox="0 0 200 200" style="enable-background:new 0 0 200 200;" xml:space="preserve">
<style type="text/css">
	.st0{fill:#151E1E;}
	.st1{fill:none;stroke:#151E1E;stroke-width:15.8322;stroke-linecap:round;stroke-miterlimit:10;}
	.st2{fill:none;stroke:#000000;stroke-width:11.8741;stroke-linecap:round;stroke-miterlimit:10;}
	.st3{fill:none;stroke:#3ABCEF;stroke-width:15.8322;stroke-linecap:round;stroke-miterlimit:10;}
	.st4{fill:none;stroke:#151E1E;stroke-width:14.3061;stroke-linecap:round;stroke-miterlimit:10;}
	.st5{fill:none;stroke:#151E1E;stroke-width:15.8322;stroke-linecap:round;stroke-linejoin:round;stroke-miterlimit:10;}
	.st6{fill:none;stroke:#000000;stroke-width:6.0358;stroke-linecap:round;stroke-miterlimit:10;}
	.st7{fill:#3ABCEF;}
	.st8{fill:none;stroke:#151E1E;stroke-width:14.48;stroke-linecap:round;stroke-miterlimit:10;}
	.st9{fill:#FFFFFF;stroke:#151E1E;stroke-width:0.2991;stroke-linecap:round;stroke-miterlimit:10;}
	.st10{fill:none;stroke:#151E1E;stroke-width:14.4798;stroke-linecap:round;stroke-miterlimit:10;}
	.st11{fill:#3EBCED;}
	.st12{fill:#151E1E;stroke:#FFFFFF;stroke-miterlimit:10;}
	.st13{fill:none;stroke:#151E1E;stroke-width:13.5335;stroke-linecap:round;stroke-miterlimit:10;}
	.st14{fill:none;stroke:#151E1E;stroke-width:15.832;stroke-linecap:round;stroke-miterlimit:10;}
	.st15{fill:none;}
	.st16{fill:#151E1D;}
	.st17{fill:none;stroke:#151E1E;stroke-linecap:round;stroke-linejoin:round;stroke-miterlimit:10;}
	.st18{fill:none;stroke:#000000;stroke-width:15.832;stroke-linecap:round;stroke-miterlimit:10;}
	.st19{fill:none;stroke:#151E1E;stroke-width:13.9294;stroke-linecap:round;stroke-miterlimit:10;}
	.st20{fill:#3EBCED;stroke:#3ABCEF;stroke-width:15.8322;stroke-linecap:round;stroke-miterlimit:10;}
	.st21{fill:#151E1E;stroke:#FFFFFF;stroke-width:0.7867;stroke-miterlimit:10;}
	.st22{fill:none;stroke:#151E1E;stroke-width:13.1365;stroke-linecap:round;stroke-miterlimit:10;}
	.st23{fill:none;stroke:#000000;stroke-width:2.008;stroke-miterlimit:10;}
	.st24{fill:none;stroke:#000000;stroke-miterlimit:10;}
	.st25{fill:#151E1E;stroke:#FFFFFF;stroke-width:0.9613;stroke-miterlimit:10;}
	.st26{fill:#3EBCED;stroke:#3ABCEF;stroke-width:12.0959;stroke-linecap:round;stroke-miterlimit:10;}
	.st27{fill:#3ABCEF;stroke:#FFFFFF;stroke-miterlimit:10;}
	.st28{display:none;}
</style>
<g id="Layer_1">
	<g id="Leg_Curl">
		<path class="st11" d="M102.9,133.8H61.2V63.9c0-6.6-5.4-12-12-12h0c-6.6,0-12,5.4-12,12v75.7c0,3.1,1.2,5.9,3.1,8
			c0.3,0.4,0.6,0.8,0.9,1.1v43.6c0,2.8,2.3,5.1,5.1,5.1c2.8,0,5.1-2.3,5.1-5.1v-40.8h42.6v40.8c0,2.8,2.3,5.1,5.1,5.1
			s5.1-2.3,5.1-5.1v-40.9c0,0,0,0,0.1,0c0.6-0.1,1.1-0.3,1.7-0.4c2.8-1,4.9-3.3,5.3-6.1c0.1-0.4,0.1-0.7,0.1-1.1v-2.2
			C111.6,137.3,107.7,133.8,102.9,133.8z"/>
		<rect x="71.7" y="51.3" class="st0" width="33" height="76.5"/>
		<circle class="st0" cx="87.6" cy="24.9" r="22.4"/>
		<g>
			<path class="st12" d="M100.5,147.3c-3.2,0-6.3-2-7.4-5.2l-13.1-36.1V65.7c0-4.4,3.5-7.9,7.9-7.9s7.9,3.5,7.9,7.9v37.4l12.2,33.5
				c1.5,4.1-0.6,8.7-4.7,10.1C102.3,147.1,101.4,147.3,100.5,147.3z"/>
		</g>
		<line class="st13" x1="114.1" y1="126.2" x2="174.5" y2="170.4"/>
		<path class="st11" d="M138.3,167.3l-26.9-22.3c-0.4,2.8-2.5,5.1-5.3,6.1c-0.5,0.2-1.1,0.3-1.7,0.4l28.9,24.1
			c0.5-2.4,1.6-4.6,3.1-6.4C137.1,168.4,137.7,167.8,138.3,167.3z"/>
		<path class="st16" d="M148,163.7c-1.4,0-2.8,0.2-4.2,0.6c-2,0.6-3.9,1.6-5.5,3c-0.7,0.6-1.3,1.2-1.8,1.8c-1.5,1.8-2.6,4-3.1,6.4
			c-0.2,1-0.3,2-0.3,3c0,8.2,6.6,14.8,14.8,14.8s14.8-6.6,14.8-14.8S156.2,163.7,148,163.7z M148,188c-4.8,0-8.8-3.6-9.4-8.2
			c-0.1-0.4-0.1-0.8-0.1-1.3c0-3.2,1.6-6.1,4.1-7.8c1.5-1.1,3.4-1.7,5.4-1.7c5.2,0,9.5,4.3,9.5,9.5C157.5,183.8,153.2,188,148,188z"
			/>
		<path class="st17" d="M148,169c-2,0-3.9,0.6-5.4,1.7c-2.4,1.7-4.1,4.6-4.1,7.8c0,0.4,0,0.9,0.1,1.3c0.6,4.6,4.6,8.2,9.4,8.2
			c5.2,0,9.5-4.3,9.5-9.5C157.5,173.3,153.2,169,148,169z"/>
	</g>
</g>
<g id="Guides" class="st28">
</g>
</svg>
