<?xml version="1.0" encoding="utf-8"?>
<!-- Generator: Adobe Illustrator 22.0.1, SVG Export Plug-In . SVG Version: 6.00 Build 0)  -->
<svg version="1.1" xmlns="http://www.w3.org/2000/svg" xmlns:xlink="http://www.w3.org/1999/xlink" x="0px" y="0px"
	 viewBox="0 0 200 200" style="enable-background:new 0 0 200 200;" xml:space="preserve">
<style type="text/css">
	.st0{fill:#151E1E;}
	.st1{fill:none;stroke:#151E1E;stroke-width:15.8322;stroke-linecap:round;stroke-miterlimit:10;}
	.st2{fill:none;stroke:#000000;stroke-width:11.8741;stroke-linecap:round;stroke-miterlimit:10;}
	.st3{fill:none;stroke:#3ABCEF;stroke-width:15.8322;stroke-linecap:round;stroke-miterlimit:10;}
	.st4{fill:none;stroke:#151E1E;stroke-width:14.3061;stroke-linecap:round;stroke-miterlimit:10;}
	.st5{fill:none;stroke:#151E1E;stroke-width:15.8322;stroke-linecap:round;stroke-linejoin:round;stroke-miterlimit:10;}
	.st6{fill:none;stroke:#000000;stroke-width:6.0358;stroke-linecap:round;stroke-miterlimit:10;}
	.st7{fill:#3ABCEF;}
	.st8{fill:none;stroke:#151E1E;stroke-width:14.48;stroke-linecap:round;stroke-miterlimit:10;}
	.st9{fill:#FFFFFF;stroke:#151E1E;stroke-width:0.2991;stroke-linecap:round;stroke-miterlimit:10;}
	.st10{fill:none;stroke:#151E1E;stroke-width:14.4798;stroke-linecap:round;stroke-miterlimit:10;}
	.st11{fill:#3EBCED;}
	.st12{fill:#151E1E;stroke:#FFFFFF;stroke-miterlimit:10;}
	.st13{fill:none;stroke:#151E1E;stroke-width:13.5335;stroke-linecap:round;stroke-miterlimit:10;}
	.st14{fill:none;stroke:#151E1E;stroke-width:15.832;stroke-linecap:round;stroke-miterlimit:10;}
	.st15{fill:none;}
	.st16{fill:#151E1D;}
	.st17{fill:none;stroke:#151E1E;stroke-linecap:round;stroke-linejoin:round;stroke-miterlimit:10;}
	.st18{fill:none;stroke:#000000;stroke-width:15.832;stroke-linecap:round;stroke-miterlimit:10;}
	.st19{fill:none;stroke:#151E1E;stroke-width:13.9294;stroke-linecap:round;stroke-miterlimit:10;}
	.st20{fill:#3EBCED;stroke:#3ABCEF;stroke-width:15.8322;stroke-linecap:round;stroke-miterlimit:10;}
	.st21{fill:#151E1E;stroke:#FFFFFF;stroke-width:0.7867;stroke-miterlimit:10;}
	.st22{fill:none;stroke:#151E1E;stroke-width:13.1365;stroke-linecap:round;stroke-miterlimit:10;}
	.st23{fill:none;stroke:#000000;stroke-width:2.008;stroke-miterlimit:10;}
	.st24{fill:none;stroke:#000000;stroke-miterlimit:10;}
	.st25{fill:#151E1E;stroke:#FFFFFF;stroke-width:0.9613;stroke-miterlimit:10;}
	.st26{fill:#3EBCED;stroke:#3ABCEF;stroke-width:12.0959;stroke-linecap:round;stroke-miterlimit:10;}
	.st27{fill:#3ABCEF;stroke:#FFFFFF;stroke-miterlimit:10;}
	.st28{display:none;}
</style>
<g id="Layer_1">
	<g id="Leg_Press">
		
			<rect x="52.3" y="123.1" transform="matrix(0.6131 -0.79 0.79 0.6131 -96.7683 112.0377)" class="st0" width="27.4" height="63.5"/>
		<circle class="st0" cx="25.7" cy="119.7" r="18.6"/>
		<g>
			<path class="st21" d="M85.9,193.4c-0.8-0.4-1.6-1-2.2-1.7L45.4,146c-2.2-2.7-1.9-6.5,0.8-8.6c2.7-2.1,6.7-1.6,8.9,1.1l38.3,45.6
				c2.2,2.7,1.9,6.5-0.8,8.6C90.7,194.3,88.1,194.4,85.9,193.4z"/>
		</g>
		<path class="st22" d="M135.9,107.4l-16.2,13c-4.7,3.8-8.7,8.4-11.8,13.6l-10.4,17.7"/>
		<path d="M193.5,195.1l-50.8-50.8l49.6-58c1-1.2,0.8-2.9-0.4-3.9c-0.2-0.2-0.4-0.3-0.7-0.4c-0.3-0.2-0.7-0.3-1.1-0.3l-63.6-4.2
			c-1.5-0.1-2.9,1.1-3,2.6c-0.1,1.5,1.1,2.9,2.6,3l58.3,3.8l-21.7,25.4l-48.1-37.6c-1.2-0.9-3-0.7-3.9,0.5v0c-0.9,1.2-0.7,3,0.5,3.9
			l47.9,37.4l-66.8,78.1c-0.1-0.6-0.5-1.2-1-1.6l-70.2-54.7c-1.2-0.9-3-0.7-3.9,0.5s-0.7,3,0.5,3.9l27.5,21.4
			c-0.1,0.1-0.2,0.2-0.3,0.3L13.3,196c-0.9,0.9-0.9,2.4,0,3.3c0.9,0.9,2.4,0.9,3.3,0l31.6-31.6c0.2-0.2,0.4-0.5,0.5-0.9l39.1,30.5
			c0.9,0.7,2.2,0.8,3.1,0.2c0.1,0.7,0.4,1.3,1,1.8c1.2,1,2.9,0.8,3.9-0.4l42.5-49.7l50.4,50.4c1.1,1.1,2.8,1.1,3.9,0l0.7-0.7
			C194.6,197.9,194.6,196.2,193.5,195.1z"/>
		<g>
			<circle class="st7" cx="157" cy="77.3" r="22.8"/>
			<circle cx="157" cy="77.3" r="8.8"/>
		</g>
	</g>
</g>
<g id="Guides" class="st28">
</g>
</svg>
