<svg height="413pt" viewBox="0 -3 413.01397 413" width="413pt" xmlns="http://www.w3.org/2000/svg"><path d="m6.828125 27.179688s150.1875 6.824218 170.667969 6.824218c20.476562 0 40.957031 6.828125 40.957031 6.828125s40.960937-6.828125 47.789063 27.304688c6.824218 34.132812-13.65625 252.589843-6.828126 266.242187 6.828126 13.652344 54.613282 34.132813 68.265626 34.132813 13.65625 0 34.132812 6.828125 27.308593 20.480469-6.828125 13.652343-150.1875 13.652343-157.015625 6.824218-6.824218-6.824218 3.414063-37.546875 3.414063-44.371094 0-6.828124-17.066407-105.8125-17.066407-105.8125s-23.894531-17.066406-23.894531-51.203124c0-34.132813 0-47.785157 0-47.785157s-88.746093 40.960938-150.183593 34.132813" fill="#ffd578"/><path d="m257.09375 407.128906c-1.171875 0-2.324219-.003906-3.464844-.007812-54.246094-.242188-58.613281-4.609375-60.480468-6.476563-6.886719-6.886719-4.398438-21.324219-.425782-39.476562.816406-3.757813 1.839844-8.429688 1.839844-9.722657-.15625-5.308593-10.035156-64.371093-16.535156-102.117187-6.539063-5.617187-24.425782-23.820313-24.425782-54.898437v-37.367188c-25.027343 10.484375-92.914062 36.191406-144.113281 30.5-3.746093-.414062-6.445312-3.792969-6.03125-7.539062.417969-3.746094 3.859375-6.464844 7.539063-6.027344 58.867187 6.542968 145.699218-33.148438 146.574218-33.550782 2.117188-.976562 4.585938-.800781 6.539063.453126 1.957031 1.25 3.148437 3.421874 3.148437 5.746093v47.789063c0 29.980468 20.199219 45.035156 21.058594 45.664062 1.433594 1.042969 2.433594 2.625 2.734375 4.375 2.867188 16.625 17.167969 99.921875 17.167969 106.972656 0 2.640626-.78125 6.335938-2.160156 12.640626-1.328125 6.070312-4.734375 21.652343-3.339844 26.441406 17.625 5.328125 133.230469 3.589844 146.457031-5.230469.65625-1.636719.222657-2.332031-.046875-2.769531-2.367187-3.832032-12.386718-7.1875-21.445312-7.1875-15.238282 0-65.953125-21.0625-74.371094-37.90625-3.734375-7.46875-2.242188-41.273438 2.339844-122.460938 3.40625-60.3125 7.257812-128.675781 3.898437-145.492187-5.441406-27.175781-38.59375-22.136719-39.988281-21.910157-1.105469.175782-2.226562.085938-3.257812-.261718-.199219-.0625-19.734376-6.476563-38.808594-6.476563-20.398438 0-164.839844-6.550781-170.972656-6.832031-3.765626-.171875-6.6875-3.363281-6.5117192-7.132812.1718752-3.765626 3.6523432-6.628907 7.1250002-6.507813 1.507812.070313 150.269531 6.820313 170.359375 6.820313 18.230468 0 36.128906 5.019531 41.515625 6.667968 16.917969-2.246094 47.710937 1.886719 53.925781 32.953125 3.707031 18.523438-.035156 84.824219-3.652344 148.941407-2.722656 48.222656-6.109375 108.238281-3.628906 115.898437 5.289062 10.53125 50.027344 30.042969 62.027344 30.042969 11.855468 0 27.261718 4.277344 33.0625 13.664062 3.097656 5.015625 3.226562 10.945313.351562 16.695313-2.554687 5.101562-9.3125 8.023437-24.113281 10.425781-21.230469 3.445312-54.515625 4.660156-79.890625 4.660156zm-55.425781-16.976562" fill="#54596e"/><path d="m95.574219 68.136719s-20.480469 20.480469-88.746094 34.132812" fill="#ffd578"/><path d="m6.820312 109.097656c-3.1875 0-6.039062-2.242187-6.6875-5.488281-.738281-3.695313 1.660157-7.289063 5.355469-8.03125 64.640625-12.929687 85.097657-32.117187 85.300781-32.3125 2.699219-2.601563 7.011719-2.5625 9.632813.105469 2.625 2.675781 2.632813 6.941406-.019531 9.589844-.894532.902343-22.742188 22.109374-92.234375 36.003906-.453125.089844-.90625.132812-1.347657.132812zm0 0" fill="#54596e"/><path d="m184.320312 252.457031c-1.746093 0-3.492187-.667969-4.824218-2-2.667969-2.664062-2.667969-6.988281 0-9.652343 24.550781-24.550782 25.296875-42.867188 25.304687-43.046876.105469-3.734374 3.328125-6.507812 6.914063-6.695312 3.734375.046875 6.738281 3.042969 6.738281 6.78125 0 .953125-.332031 23.640625-29.304687 52.613281-1.332032 1.335938-3.082032 2-4.828126 2zm0 0" fill="#54596e"/><path d="m406.1875 76.101562-54.773438-69.402343-54.773437 69.402343h27.628906v26.167969h54.613281v-26.167969zm0 0" fill="#aff05d"/><path d="m378.882812 109.097656h-54.613281c-3.773437 0-6.828125-3.054687-6.828125-6.828125v-19.339843h-20.800781c-2.613281 0-5-1.496094-6.140625-3.851563-1.148438-2.355469-.839844-5.15625.78125-7.207031l54.773438-69.402344c2.585937-3.28125 8.132812-3.28125 10.71875 0l54.773437 69.402344c1.621094 2.050781 1.925781 4.851562.78125 7.207031-1.140625 2.355469-3.527344 3.851563-6.140625 3.851563h-20.480469v19.339843c0 3.773438-3.050781 6.828125-6.824219 6.828125zm-47.789062-13.652344h40.960938v-19.34375c0-3.769531 3.054687-6.828124 6.828124-6.828124h13.21875l-40.6875-51.554688-40.6875 51.554688h13.542969c3.773438 0 6.824219 3.058593 6.824219 6.828124zm0 0" fill="#55596c"/><path d="m324.269531 122.75h54.613281v20.480469h-54.613281zm0 0" fill="#aff05d"/><g fill="#55596c"><path d="m378.882812 150.058594h-54.613281c-3.773437 0-6.828125-3.058594-6.828125-6.828125v-20.480469c0-3.769531 3.054688-6.824219 6.828125-6.824219h54.613281c3.773438 0 6.824219 3.054688 6.824219 6.824219v20.480469c0 3.769531-3.050781 6.828125-6.824219 6.828125zm-47.789062-13.652344h40.960938v-6.828125h-40.960938zm0 0"/><path d="m378.882812 170.539062h-54.613281c-3.773437 0-6.828125-3.058593-6.828125-6.828124 0-3.769532 3.054688-6.828126 6.828125-6.828126h54.613281c3.773438 0 6.824219 3.058594 6.824219 6.828126 0 3.769531-3.050781 6.828124-6.824219 6.828124zm0 0"/></g></svg>