<?xml version="1.0" encoding="utf-8"?>
<!-- Generator: Adobe Illustrator 22.0.1, SVG Export Plug-In . SVG Version: 6.00 Build 0)  -->
<svg version="1.1" id="Layer_1" xmlns="http://www.w3.org/2000/svg" xmlns:xlink="http://www.w3.org/1999/xlink" x="0px" y="0px"
	 viewBox="0 0 459 459" style="enable-background:new 0 0 459 459;" xml:space="preserve">
<style type="text/css">
	.st0{fill:#3ABCEF;}
</style>
<g>
	<g>
		<path class="st0" d="M0,229.5C0,356.2,102.8,459,229.5,459C356.2,459,459,356.2,459,229.5S356.2,0,229.5,0
			C102.8,0,0,102.8,0,229.5z M106.6,213.6c1.1-1.4-3.9,3.8,85.9-86c9.8-9.8,25.6-9.8,35.4,0c9.8,9.8,9.8,25.6,0,35.4l-41.5,41.5H333
			c13.8,0,25,11.2,25,25c0,13.8-11.2,25-25,25H186.3l41.5,41.5c9.8,9.8,9.8,25.6,0,35.4c-9.8,9.8-25.6,9.8-35.4,0
			c-89.2-89.2-84.4-84.4-85.1-85.1c-0.1-0.1-0.1-0.1-0.2-0.2C99.1,236.9,98.9,223.1,106.6,213.6z"/>
	</g>
</g>
</svg>
