<?xml version="1.0" encoding="utf-8"?>
<!-- Generator: Adobe Illustrator 22.0.1, SVG Export Plug-In . SVG Version: 6.00 Build 0)  -->
<svg version="1.1" xmlns="http://www.w3.org/2000/svg" xmlns:xlink="http://www.w3.org/1999/xlink" x="0px" y="0px"
	 viewBox="0 0 200 200" style="enable-background:new 0 0 200 200;" xml:space="preserve">
<style type="text/css">
	.st0{fill:#151E1E;}
	.st1{fill:none;stroke:#151E1E;stroke-width:15.8322;stroke-linecap:round;stroke-miterlimit:10;}
	.st2{fill:none;stroke:#000000;stroke-width:11.8741;stroke-linecap:round;stroke-miterlimit:10;}
	.st3{fill:none;stroke:#3ABCEF;stroke-width:15.8322;stroke-linecap:round;stroke-miterlimit:10;}
	.st4{fill:none;stroke:#151E1E;stroke-width:14.3061;stroke-linecap:round;stroke-miterlimit:10;}
	.st5{fill:none;stroke:#151E1E;stroke-width:15.8322;stroke-linecap:round;stroke-linejoin:round;stroke-miterlimit:10;}
	.st6{fill:none;stroke:#000000;stroke-width:6.0358;stroke-linecap:round;stroke-miterlimit:10;}
	.st7{fill:#3ABCEF;}
	.st8{fill:none;stroke:#151E1E;stroke-width:14.48;stroke-linecap:round;stroke-miterlimit:10;}
	.st9{fill:#FFFFFF;stroke:#151E1E;stroke-width:0.2991;stroke-linecap:round;stroke-miterlimit:10;}
	.st10{fill:none;stroke:#151E1E;stroke-width:14.4798;stroke-linecap:round;stroke-miterlimit:10;}
	.st11{fill:#3EBCED;}
	.st12{fill:#151E1E;stroke:#FFFFFF;stroke-miterlimit:10;}
	.st13{fill:none;stroke:#151E1E;stroke-width:13.5335;stroke-linecap:round;stroke-miterlimit:10;}
	.st14{fill:none;stroke:#151E1E;stroke-width:15.832;stroke-linecap:round;stroke-miterlimit:10;}
	.st15{fill:none;}
	.st16{fill:#151E1D;}
	.st17{fill:none;stroke:#151E1E;stroke-linecap:round;stroke-linejoin:round;stroke-miterlimit:10;}
	.st18{fill:none;stroke:#000000;stroke-width:15.832;stroke-linecap:round;stroke-miterlimit:10;}
	.st19{fill:none;stroke:#151E1E;stroke-width:13.9294;stroke-linecap:round;stroke-miterlimit:10;}
	.st20{fill:#3EBCED;stroke:#3ABCEF;stroke-width:15.8322;stroke-linecap:round;stroke-miterlimit:10;}
	.st21{fill:#151E1E;stroke:#FFFFFF;stroke-width:0.7867;stroke-miterlimit:10;}
	.st22{fill:none;stroke:#151E1E;stroke-width:13.1365;stroke-linecap:round;stroke-miterlimit:10;}
	.st23{fill:none;stroke:#000000;stroke-width:2.008;stroke-miterlimit:10;}
	.st24{fill:none;stroke:#000000;stroke-miterlimit:10;}
	.st25{fill:#151E1E;stroke:#FFFFFF;stroke-width:0.9613;stroke-miterlimit:10;}
	.st26{fill:#3EBCED;stroke:#3ABCEF;stroke-width:12.0959;stroke-linecap:round;stroke-miterlimit:10;}
	.st27{fill:#3ABCEF;stroke:#FFFFFF;stroke-miterlimit:10;}
	.st28{display:none;}
</style>
<g id="Layer_1">
	<g id="Seated_Rows_1_">
		<rect x="24.5" y="106.4" class="st0" width="33" height="76.5"/>
		<circle class="st0" cx="41" cy="74.8" r="22.4"/>
		<g>
			<path class="st0" d="M114.6,129.6H39.4c-4.4,0-7.9-3.5-7.9-7.9s3.5-7.9,7.9-7.9h75.2c4.4,0,7.9,3.5,7.9,7.9
				S119,129.6,114.6,129.6z"/>
		</g>
		<path class="st7" d="M115.9,144.3L115.9,144.3c1.3,0,2.4-1.1,2.4-2.4v-33.2c0-1.3-1.1-2.4-2.4-2.4h0c-1.3,0-2.4,1.1-2.4,2.4v33.2
			C113.5,143.3,114.6,144.3,115.9,144.3z"/>
		<g>
			<path class="st12" d="M115.1,135.9H39.9c-4.4,0-7.9-3.5-7.9-7.9c0-4.4,3.5-7.9,7.9-7.9h75.2c4.4,0,7.9,3.5,7.9,7.9
				C123,132.3,119.5,135.9,115.1,135.9z"/>
		</g>
		<path class="st1" d="M68.7,176.1l35-4.3c2-0.2,4-0.3,6,0l33.9,3.9"/>
		<polyline class="st24" points="115.9,106.3 199.2,130.9 115.9,144.3 		"/>
		<path d="M196.3,184.9h-23.1c0.3-0.1,0.5-0.3,0.7-0.5c0.9-0.9,0.9-2.4,0-3.4L160.9,168c-0.9-0.9-2.4-0.9-3.3,0v-12.1
			c0-1.6-1.3-2.9-2.9-2.9c-1.6,0-2.9,1.3-2.9,2.9v27.4c0,0.6,0.2,1.1,0.5,1.6H25.4c-1.6,0-2.9,1.3-2.9,2.9c0,1.5,1.2,2.7,2.6,2.9
			v6.6c0,1.6,1.3,2.9,2.9,2.9c1.6,0,2.9-1.3,2.9-2.9v-6.6h159.6v6.6c0,1.6,1.3,2.9,2.9,2.9c1.6,0,2.9-1.3,2.9-2.9v-6.6
			c1.6,0,2.9-1.3,2.9-2.9C199.2,186.2,197.9,184.9,196.3,184.9z M157.6,183.3v-11.9l13,13c0.2,0.2,0.5,0.4,0.7,0.5h-14.2
			C157.4,184.5,157.6,183.9,157.6,183.3z"/>
	</g>
</g>
<g id="Guides" class="st28">
</g>
</svg>
