<?xml version="1.0" encoding="utf-8"?>
<!-- Generator: Adobe Illustrator 22.0.1, SVG Export Plug-In . SVG Version: 6.00 Build 0)  -->
<svg version="1.1" id="Layer_1" xmlns="http://www.w3.org/2000/svg" xmlns:xlink="http://www.w3.org/1999/xlink" x="0px" y="0px"
	 viewBox="0 0 190.3 194.3" style="enable-background:new 0 0 190.3 194.3;" xml:space="preserve">
<style type="text/css">
	.st0{fill:#00A6FF;}
</style>
<g>
	<g>
		<path class="st0" d="M141.1,30.8c-1.6-1-3.7-0.5-4.6,1.1c-1,1.6-0.5,3.7,1.1,4.6c24.2,14.9,38.6,40.7,38.6,69c0,7-0.9,14-2.7,20.8
			c-0.5,1.8,0.6,3.6,2.4,4.1c0.3,0.1,0.6,0.1,0.9,0.1c1.5,0,2.9-1,3.3-2.5c2-7.4,2.9-14.9,2.9-22.5
			C182.9,74.9,167.3,46.9,141.1,30.8z"/>
		<path class="st0" d="M126.1,180.4c-9.8,4.1-20.2,6.1-30.9,6.1c-22.7,0-44.5-9.6-59.8-26.4c-1.3-1.4-3.4-1.5-4.8-0.2
			c-1.4,1.3-1.5,3.4-0.2,4.8c16.6,18.2,40.2,28.6,64.8,28.6c11.6,0,22.9-2.2,33.5-6.6c1.7-0.7,2.5-2.7,1.8-4.4
			C129.8,180.5,127.8,179.7,126.1,180.4z"/>
		<path class="st0" d="M75.9,26.9c1.8-0.4,2.9-2.3,2.5-4.1c-0.4-1.8-2.3-2.9-4.1-2.5C37.1,29.4,10.4,61.2,7.7,99.3
			c-0.1,1.9,1.3,3.5,3.1,3.6c0.1,0,0.2,0,0.2,0c1.8,0,3.2-1.4,3.4-3.1C16.9,64.6,41.6,35.3,75.9,26.9z"/>
	</g>
	<circle class="st0" cx="95.2" cy="21.2" r="20.2"/>
	<circle class="st0" cx="20.9" cy="146" r="20.2"/>
	<circle class="st0" cx="169.4" cy="146" r="20.2"/>
</g>
</svg>
