<?xml version="1.0" encoding="utf-8"?>
<!-- Generator: Adobe Illustrator 22.0.1, SVG Export Plug-In . SVG Version: 6.00 Build 0)  -->
<svg version="1.1" id="Layer_1" xmlns="http://www.w3.org/2000/svg" xmlns:xlink="http://www.w3.org/1999/xlink" x="0px" y="0px"
	 viewBox="0 0 461 461" style="enable-background:new 0 0 461 461;" xml:space="preserve">
<style type="text/css">
	.st0{fill:none;stroke:#282828;stroke-width:5;stroke-miterlimit:10;}
</style>
<g>
	<g>
		<path class="st0" d="M421,190.5h-26c-4.2-17.2-10.9-33.3-19.9-48l18.4-18.4c15.6-15.6,15.6-40.9,0-56.6
			c-15.6-15.6-40.9-15.6-56.6,0l-18.4,18.4c-14.7-9-30.8-15.7-48-19.9V40c0-22.1-17.9-40-40-40s-40,17.9-40,40v26
			c-17.2,4.2-33.3,10.9-48,19.9l-18.4-18.4c-15.6-15.6-40.9-15.6-56.6,0s-15.6,40.9,0,56.6l18.4,18.4c-9,14.7-15.7,30.8-19.9,48H40
			c-22.1,0-40,17.9-40,40s17.9,40,40,40h26c4.2,17.2,10.9,33.3,19.9,48l-18.4,18.4c-15.6,15.6-15.6,40.9,0,56.6
			c7.8,7.8,18,11.7,28.3,11.7s20.5-3.9,28.3-11.7l18.4-18.4c14.7,9,30.8,15.7,48,19.9v26c0,22.1,17.9,40,40,40s40-17.9,40-40v-26
			c17.2-4.2,33.3-10.9,48-19.9l18.4,18.4c7.8,7.8,18,11.7,28.3,11.7s20.5-3.9,28.3-11.7c15.6-15.6,15.6-40.9,0-56.6l-18.4-18.4
			c9-14.7,15.7-30.8,19.9-48h26c22.1,0,40-17.9,40-40S443.1,190.5,421,190.5z M230.5,307.5c-42.5,0-77-34.5-77-77s34.5-77,77-77
			s77,34.5,77,77S273,307.5,230.5,307.5z"/>
	</g>
</g>
</svg>
