<?xml version="1.0" encoding="iso-8859-1"?>
<!-- Generator: Adobe Illustrator 19.0.0, SVG Export Plug-In . SVG Version: 6.00 Build 0)  -->
<svg version="1.1" id="Capa_1" xmlns="http://www.w3.org/2000/svg" xmlns:xlink="http://www.w3.org/1999/xlink" x="0px" y="0px"
	 viewBox="0 0 197.374 197.374" style="enable-background:new 0 0 197.374 197.374;" xml:space="preserve">
<path style="fill:#FFDD95;" d="M7.975,68.46c0,0,9.51,0.993,24.803,0.497s36.246,5.75,47.73,25.312c0,0,35.541-10.068,50.331,19.647
	c0,0,11.626,2.908,13.177,1.179c1.55-1.729-9.172-15.104-6.369-58.918c0,0-6.706-6.842-14.107-8.52
	c-7.402-1.678-10.359,2.749-18.268-4.946c-7.909-7.695-14.362-19.62-11.146-22.994c3.215-3.374,7.339-3.434,7.339-3.434
	s0.102-9.392,6.851-9.591c6.748-0.2,31.631,4.422,37.441,12.491c5.809,8.067,7.856,26.078,19.497,41.078
	c11.641,15.002,33.923,39.794,27.605,87.885c0,0-70.467,39.318-130.062,13.479c0,0-4.277,17.149-24.211,29.061
	c0,0-15.515-25.576-28.728-57.334C-3.36,101.593,7.975,68.46,7.975,68.46z"/>
<path d="M38.586,194.099c-1.155,0-2.28-0.585-2.922-1.644c-0.157-0.258-15.802-26.163-28.962-57.793
	c-13.553-32.577-2.439-65.905-1.958-67.308c0.515-1.505,2.024-2.464,3.584-2.29c0.094,0.009,9.499,0.961,24.34,0.48
	c15.981-0.5,37.081,5.803,49.468,24.868c8.687-1.674,37.236-4.953,51.014,20.545c2.488,0.563,4.989,0.99,6.803,1.179
	c-2.33-6.832-7.651-22.581-5.811-54.566c-2.017-1.802-6.618-5.511-11.356-6.584c-2.026-0.461-3.661-0.352-5.386-0.236
	c-3.835,0.253-8.192,0.551-14.507-5.594c-7.895-7.68-16.925-21.825-11.238-27.795c2.227-2.336,4.755-3.456,6.687-3.995
	c0.811-4.412,3.468-9.897,9.873-10.086c5.956-0.181,33.091,3.878,40.311,13.906c2.642,3.671,4.454,8.793,6.554,14.725
	c2.949,8.332,6.291,17.778,12.868,26.255c0.678,0.874,1.393,1.782,2.138,2.727c12.076,15.334,32.288,41.001,26.155,87.694
	c-0.142,1.068-0.78,2.01-1.722,2.536c-0.736,0.41-18.284,10.115-43.477,16.749c-22.56,5.941-55.48,10.3-86.212-1.72
	c-2.463,6.043-9.049,18.231-24.496,27.462C39.786,193.942,39.182,194.099,38.586,194.099z M10.464,72.085
	c-2.21,8.156-7.956,34.719,2.543,59.955c10.37,24.922,22.299,46.228,26.725,53.866c15.915-10.817,19.715-24.97,19.753-25.12
	c0.249-0.968,0.91-1.783,1.807-2.222c0.894-0.437,1.94-0.469,2.86-0.072c52.617,22.813,115.103-7.166,125.537-12.535
	c5.055-42.72-12.979-65.616-24.967-80.838c-0.754-0.957-1.48-1.879-2.169-2.767c-7.253-9.349-10.945-19.78-13.911-28.163
	c-1.923-5.437-3.586-10.134-5.656-13.013c-4.658-6.465-27.506-11.284-34.57-11.073c-3.377,0.101-3.538,6.156-3.538,6.217
	c-0.02,1.852-1.514,3.348-3.366,3.376c-0.07,0.003-2.688,0.133-4.801,2.256c-0.555,2.152,3.56,11.129,10.941,18.311
	c4.134,4.021,5.961,3.898,9.289,3.676c1.94-0.133,4.355-0.292,7.354,0.387c8.286,1.879,15.486,9.153,15.79,9.46
	c0.678,0.693,1.031,1.64,0.968,2.608c-2.038,31.841,3.166,47.101,5.388,53.617c1.113,3.268,1.85,5.425,0.116,7.359
	c-0.951,1.062-2.92,3.263-16.546-0.145c-0.968-0.242-1.782-0.896-2.227-1.79C114.41,88.564,81.766,97.456,81.439,97.55
	c-1.495,0.423-3.089-0.217-3.874-1.556C66.913,77.85,47.493,71.873,32.887,72.364C22.241,72.713,14.401,72.351,10.464,72.085z
	 M142.409,112.178L142.409,112.178L142.409,112.178z"/>
<circle style="fill:#EE5281;" cx="37.588" cy="68.12" r="13.653"/>
<path d="M37.584,85.192c-9.411,0-17.067-7.656-17.067-17.067s7.656-17.067,17.067-17.067s17.067,7.656,17.067,17.067
	C54.651,77.536,46.995,85.192,37.584,85.192z M37.584,57.885c-5.647,0-10.24,4.593-10.24,10.24s4.593,10.24,10.24,10.24
	s10.24-4.593,10.24-10.24S43.232,57.885,37.584,57.885z"/>
<path d="M115.927,147.968c-8.235,0-17.314-2.418-26.964-7.243c-13.07-6.537-22.559-15.101-22.956-15.461
	c-1.393-1.268-1.497-3.425-0.23-4.82c1.268-1.394,3.429-1.497,4.821-0.232c0.357,0.323,35.963,32.186,60.75,16.7
	c1.599-0.997,3.703-0.514,4.704,1.085c0.998,1.599,0.514,3.703-1.087,4.704C129.343,146.214,122.941,147.968,115.927,147.968z"/>
<path d="M85.374,109.085c-1.242,0-2.437-0.678-3.041-1.859l-8.75-17.082c-0.858-1.678-0.195-3.734,1.481-4.594
	c1.678-0.86,3.734-0.196,4.594,1.483l8.75,17.082c0.858,1.678,0.195,3.734-1.481,4.594
	C86.429,108.964,85.898,109.085,85.374,109.085z"/>
<g>
</g>
<g>
</g>
<g>
</g>
<g>
</g>
<g>
</g>
<g>
</g>
<g>
</g>
<g>
</g>
<g>
</g>
<g>
</g>
<g>
</g>
<g>
</g>
<g>
</g>
<g>
</g>
<g>
</g>
</svg>
