<?xml version="1.0" encoding="utf-8"?>
<!-- Generator: Adobe Illustrator 22.0.1, SVG Export Plug-In . SVG Version: 6.00 Build 0)  -->
<svg version="1.1" xmlns="http://www.w3.org/2000/svg" xmlns:xlink="http://www.w3.org/1999/xlink" x="0px" y="0px"
	 viewBox="0 0 200 200" style="enable-background:new 0 0 200 200;" xml:space="preserve">
<style type="text/css">
	.st0{fill:#151E1E;}
	.st1{fill:none;stroke:#151E1E;stroke-width:15.8322;stroke-linecap:round;stroke-miterlimit:10;}
	.st2{fill:none;stroke:#000000;stroke-width:11.8741;stroke-linecap:round;stroke-miterlimit:10;}
	.st3{fill:none;stroke:#3ABCEF;stroke-width:15.8322;stroke-linecap:round;stroke-miterlimit:10;}
	.st4{fill:none;stroke:#151E1E;stroke-width:14.3061;stroke-linecap:round;stroke-miterlimit:10;}
	.st5{fill:none;stroke:#151E1E;stroke-width:15.8322;stroke-linecap:round;stroke-linejoin:round;stroke-miterlimit:10;}
	.st6{fill:none;stroke:#000000;stroke-width:6.0358;stroke-linecap:round;stroke-miterlimit:10;}
	.st7{fill:#3ABCEF;}
	.st8{fill:none;stroke:#151E1E;stroke-width:14.48;stroke-linecap:round;stroke-miterlimit:10;}
	.st9{fill:#FFFFFF;stroke:#151E1E;stroke-width:0.2991;stroke-linecap:round;stroke-miterlimit:10;}
	.st10{fill:none;stroke:#151E1E;stroke-width:14.4798;stroke-linecap:round;stroke-miterlimit:10;}
	.st11{fill:#3EBCED;}
	.st12{fill:#151E1E;stroke:#FFFFFF;stroke-miterlimit:10;}
	.st13{fill:none;stroke:#151E1E;stroke-width:13.5335;stroke-linecap:round;stroke-miterlimit:10;}
	.st14{fill:none;stroke:#151E1E;stroke-width:15.832;stroke-linecap:round;stroke-miterlimit:10;}
	.st15{fill:none;}
	.st16{fill:#151E1D;}
	.st17{fill:none;stroke:#151E1E;stroke-linecap:round;stroke-linejoin:round;stroke-miterlimit:10;}
	.st18{fill:none;stroke:#000000;stroke-width:15.832;stroke-linecap:round;stroke-miterlimit:10;}
	.st19{fill:none;stroke:#151E1E;stroke-width:13.9294;stroke-linecap:round;stroke-miterlimit:10;}
	.st20{fill:#3EBCED;stroke:#3ABCEF;stroke-width:15.8322;stroke-linecap:round;stroke-miterlimit:10;}
	.st21{fill:#151E1E;stroke:#FFFFFF;stroke-width:0.7867;stroke-miterlimit:10;}
	.st22{fill:none;stroke:#151E1E;stroke-width:13.1365;stroke-linecap:round;stroke-miterlimit:10;}
	.st23{fill:none;stroke:#000000;stroke-width:2.008;stroke-miterlimit:10;}
	.st24{fill:none;stroke:#000000;stroke-miterlimit:10;}
	.st25{fill:#151E1E;stroke:#FFFFFF;stroke-width:0.9613;stroke-miterlimit:10;}
	.st26{fill:#3EBCED;stroke:#3ABCEF;stroke-width:12.0959;stroke-linecap:round;stroke-miterlimit:10;}
	.st27{fill:#3ABCEF;stroke:#FFFFFF;stroke-miterlimit:10;}
	.st28{display:none;}
</style>
<g id="Layer_1">
	<g id="Tricep_Pulldown">
		<g>
			<rect x="84.2" y="54.6" class="st0" width="33" height="76.5"/>
			<circle class="st0" cx="101.3" cy="28.2" r="22.4"/>
			<g>
				<path class="st0" d="M73.6,197.1c-0.6,0-1.2-0.1-1.8-0.2c-4.3-1-6.9-5.2-6-9.5l10.6-46.2c1-4.3,5.2-6.9,9.5-6
					c4.3,1,6.9,5.2,6,9.5l-10.6,46.2C80.5,194.6,77.2,197.1,73.6,197.1z"/>
			</g>
			<g>
				<path class="st0" d="M127.7,197.1c-3.6,0-6.9-2.5-7.7-6.2l-10.6-46.2c-1-4.3,1.7-8.5,6-9.5c4.3-1,8.5,1.7,9.5,6l10.6,46.2
					c1,4.3-1.7,8.5-6,9.5C128.9,197,128.3,197.1,127.7,197.1z"/>
			</g>
		</g>
		<g>
			<g>
				<g>
					<path d="M44.9,146L44.9,146c-2.1-2.1-2.1-5.5,0-7.6l51.2-51.2c2.1-2.1,5.5-2.1,7.6,0l0,0c2.1,2.1,2.1,5.5,0,7.6L52.5,146
						C50.4,148.1,46.9,148.1,44.9,146z"/>
					<path d="M100.6,96.2L100.6,96.2c-3,0-5.4-2.4-5.4-5.4V8.4c0-3,2.4-5.4,5.4-5.4h0c3,0,5.4,2.4,5.4,5.4v82.4
						C106,93.8,103.6,96.2,100.6,96.2z"/>
					<path d="M155.1,146L155.1,146c-2.1,2.1-5.5,2.1-7.6,0L96.3,94.8c-2.1-2.1-2.1-5.5,0-7.6l0,0c2.1-2.1,5.5-2.1,7.6,0l51.2,51.2
						C157.2,140.5,157.2,143.9,155.1,146z"/>
				</g>
				<path d="M49,150.1L49,150.1c-4.5,0-8.1-3.7-8.1-8.1v0c0-4.5,3.7-8.1,8.1-8.1h0c4.5,0,8.1,3.7,8.1,8.1v0
					C57.1,146.4,53.4,150.1,49,150.1z"/>
			</g>
			<path d="M151.3,150.1L151.3,150.1c-4.5,0-8.1-3.7-8.1-8.1v0c0-4.5,3.7-8.1,8.1-8.1h0c4.5,0,8.1,3.7,8.1,8.1v0
				C159.4,146.4,155.7,150.1,151.3,150.1z"/>
		</g>
		<line class="st4" x1="127.3" y1="69.8" x2="138.6" y2="130.2"/>
		<line class="st4" x1="73.3" y1="69.8" x2="61.9" y2="130.2"/>
	</g>
</g>
<g id="Guides" class="st28">
</g>
</svg>
