<?xml version="1.0" encoding="utf-8"?>
<!-- Generator: Adobe Illustrator 22.0.1, SVG Export Plug-In . SVG Version: 6.00 Build 0)  -->
<svg version="1.1" id="Layer_1" xmlns="http://www.w3.org/2000/svg" xmlns:xlink="http://www.w3.org/1999/xlink" x="0px" y="0px"
	 viewBox="0 0 512 512" style="enable-background:new 0 0 512 512;" xml:space="preserve">
<style type="text/css">
	.st0{fill:#3ABCEF;}
</style>
<g>
	<path class="st0" d="M256.4,22.8L214,65.2c83.4,83.4,65.5,65.5,148.5,148.5l84.9,84.9l42.4-42.4L256.4,22.8z"/>
	<path class="st0" d="M65.4,213.7L23,256.1l233.3,233.3l42.4-42.4C215.8,364.1,151.8,300.1,65.4,213.7z"/>
	
		<rect x="181.4" y="211.1" transform="matrix(0.7071 -0.7071 0.7071 0.7071 -105.9921 256.2729)" class="st0" width="150" height="90"/>
	<polygon class="st0" points="0,363.5 42.4,405.9 0,448.4 63.6,512 106.1,469.6 148.5,512 192.7,468.3 44.2,319.8 	"/>
	<polygon class="st0" points="512,148.5 469.6,106.1 512,64.3 447.7,0 405.9,42.4 363.5,0 320,44 468.5,192.5 	"/>
</g>
</svg>
