<?xml version="1.0" encoding="utf-8"?>
<!-- Generator: Adobe Illustrator 22.0.1, SVG Export Plug-In . SVG Version: 6.00 Build 0)  -->
<svg version="1.1" id="Layer_1" xmlns="http://www.w3.org/2000/svg" xmlns:xlink="http://www.w3.org/1999/xlink" x="0px" y="0px"
	 viewBox="0 0 898.1 785.1" style="enable-background:new 0 0 898.1 785.1;" xml:space="preserve">
<style type="text/css">
	.st0{fill:#FFFFFF;}
</style>
<g>
	<path class="st0" d="M898,46.8L898,46.8c0,100.1-81.2,181.3-181.3,181.3h-16.8v-42.4c0-5.6-2.3-10.7-6-14.4c-3.7-3.7-8.8-6-14.4-6
		c-8.2,0-15.3,4.9-18.5,11.9v-29.7c0-7.3-3-13.8-7.7-18.6c-5.2-5.2-12.5-8.2-20.4-7.6c-13.9,1-24.4,13-24.4,26.9v79.8H198.9v-79.8
		c0-13.9-10.5-26-24.4-26.9c-8-0.5-15.3,2.5-20.4,7.6c-4.8,4.8-7.7,11.3-7.7,18.6v29.1c-3.3-6.7-10.2-11.3-18.2-11.3
		c-5.6,0-10.7,2.3-14.4,6c-3.7,3.7-6,8.8-6,14.4v42.4H64.2c-17.7,0-33.7,7.2-45.3,18.8C7.3,258.5,0.1,274.5,0.1,292.2v-28.8
		C0.1,118.1,117.9,0.3,263.2,0.3h588.2C877.1,0.3,898,21.1,898,46.8z"/>
	<path class="st0" d="M231.9,584.2c30.3,0,50.2,31.8,36.8,59C227.5,727.2,141,785.1,41.1,785.1h0c-22.6,0-41-18.3-41-41v-93
		c0-11.6,3-22.5,8.2-32c11.3-20.8,33.4-34.8,58.7-34.8H231.9z"/>
	<path class="st0" d="M758.1,292.2c29.1,0,50.5,27.3,43.5,55.6c-25.5,104-122,172.2-237.2,172.2H64.2c-17.7,0-33.7,7.2-45.3,18.8
		C7.3,550.4,0.1,566.5,0.1,584.2V359.1c0-11.6,3-22.5,8.2-32c11.3-20.8,33.4-34.8,58.7-34.8h40.7v42.4c0,4,1.2,7.7,3.2,10.9
		c3.6,5.7,9.9,9.5,17.2,9.5c2,0,3.9-0.3,5.6-0.8c5.5-1.6,10.1-5.4,12.6-10.5v29.1c0,14.5,11.8,26.3,26.3,26.3
		c14.5,0,26.3-11.8,26.3-26.3v-80.5h409.5v80.5c0,14.5,11.8,26.3,26.3,26.3s26.3-11.8,26.3-26.3V343c3.2,7.1,10.4,12,18.7,12
		c11.3-0.1,20.1-9.7,20.1-21v-41.8H758.1z"/>
</g>
</svg>
