<?xml version="1.0" encoding="utf-8"?>
<!-- Generator: Adobe Illustrator 22.0.1, SVG Export Plug-In . SVG Version: 6.00 Build 0)  -->
<svg version="1.1" id="Layer_1" xmlns="http://www.w3.org/2000/svg" xmlns:xlink="http://www.w3.org/1999/xlink" x="0px" y="0px"
	 viewBox="0 0 198.1 173.2" style="enable-background:new 0 0 198.1 173.2;" xml:space="preserve">
<style type="text/css">
	.st0{fill:#FFFFFF;}
</style>
<g>
	<path class="st0" d="M169.7,64.4c4.9,0,8.7,4.4,7.8,9.3c-4.4,25.3-26.4,41-53,41H14.2c-3.9,0-7.4,1.6-10,4.1
		c-2.6,2.6-4.1,6.1-4.1,10V79.2c0-2.6,0.7-5,1.8-7.1c2.5-4.6,7.4-7.7,13-7.7H22V75c0,0.9,0.4,1.7,1,2.3c0.6,0.6,1.4,0.9,2.2,0.9h2.5
		c0.7,0,1.3-0.2,1.8-0.5c0.9-0.6,1.5-1.6,1.5-2.7V64.4h1.3v19.1c0,2.5,2,4.5,4.5,4.5h2.6c2.5,0,4.5-2,4.5-4.5V64.4h90.3v19.1
		c0,2.5,2,4.5,4.5,4.5h2.6c2.5,0,4.5-2,4.5-4.5V64.4h1.3V75c0,1.8,1.4,3.2,3.2,3.2h2.5c1.8,0,3.2-1.4,3.2-3.2V64.4H169.7z"/>
	<path class="st0" d="M53,128.8c5.7,0,9.5,5.8,7.2,11c-8.7,19.6-28.3,33.3-51.1,33.3h0c-5,0-9-4-9-9v-20.5c0-2.6,0.7-5,1.8-7.1
		c2.5-4.6,7.4-7.7,13-7.7H53z"/>
	<path class="st0" d="M190.2,0c4.4,0,7.9,3.6,7.9,7.9v0c0,23.2-18.7,42.1-41.9,42.3v-7.1c0-1.8-1.4-3.2-3.2-3.2h-2.5
		c-1.8,0-3.2,1.4-3.2,3.2v7.1h-1.3V34.7c0-2.5-2-4.5-4.5-4.5h-2.6c-2.5,0-4.5,2-4.5,4.5v15.5H43.9V34.7c0-2.5-2-4.5-4.5-4.5h-2.6
		c-2.5,0-4.5,2-4.5,4.5v15.5H31v-7.1c0-1.8-1.4-3.2-3.2-3.2h-2.5c-1.8,0-3.2,1.4-3.2,3.2v7.1h-7.2c-7.9,0-14.4,6.3-14.7,14.1
		c0,0.2,0,0.4,0,0.6v-7c0-32,26-58,58-58L190.2,0z"/>
</g>
</svg>
