<?xml version="1.0" encoding="utf-8"?>
<!-- Generator: Adobe Illustrator 22.0.1, SVG Export Plug-In . SVG Version: 6.00 Build 0)  -->
<svg version="1.1" xmlns="http://www.w3.org/2000/svg" xmlns:xlink="http://www.w3.org/1999/xlink" x="0px" y="0px"
	 viewBox="0 0 217.7 216.7" style="enable-background:new 0 0 217.7 216.7;" xml:space="preserve">
<style type="text/css">
	.st0{display:none;}
	.st1{display:inline;}
	.st2{fill:#333235;}
	.st3{fill:none;stroke:#FFFFFF;stroke-width:43;stroke-miterlimit:10;}
	.st4{fill:none;stroke:#FFFFFF;stroke-width:40;stroke-miterlimit:10;}
	.st5{fill:none;stroke:#FFFFFF;stroke-width:41;stroke-miterlimit:10;}
	.st6{fill:none;stroke:#FFFFFF;stroke-width:5;stroke-miterlimit:10;}
	.st7{fill:none;stroke:#333235;stroke-width:9;stroke-miterlimit:10;}
	.st8{fill:#3ABCEF;}
	.st9{fill:none;stroke:#3ABCEF;stroke-width:9;stroke-miterlimit:10;}
	.st10{fill:#45D8FF;}
	.st11{fill:#43B9F9;}
	.st12{fill:#37AEE2;}
	.st13{fill:url(#SVGID_1_);}
	.st14{fill:#FFFFFF;}
	.st15{display:inline;fill:#FFFFFF;}
	.st16{display:inline;fill:url(#SVGID_2_);}
	.st17{fill:url(#SVGID_3_);}
	.st18{fill:#353535;}
	.st19{fill:url(#SVGID_4_);}
	.st20{fill:url(#SVGID_5_);}
	.st21{fill:url(#SVGID_6_);}
	.st22{display:none;fill:#282828;}
	.st23{fill:#FCFCFC;}
	.st24{fill:url(#SVGID_7_);}
	.st25{fill:url(#SVGID_8_);}
	.st26{fill:url(#SVGID_9_);}
</style>
<g id="trash" class="st0">
	<g id="_x31_" class="st1">
		<path class="st2" d="M-5836.5,2625.9c-61.6,0-122.2-21.4-170.5-60.2c-24.1-19.3-44.5-42.4-60.7-68.5c-16.8-27-28.6-56.7-35.2-88.1
			c-14.9-71.2-1.1-144,38.8-204.8c39.9-60.9,101-102.6,172.3-117.4c18.4-3.8,37.3-5.8,55.9-5.8c61.6,0,122.2,21.4,170.5,60.2
			c24.1,19.3,44.5,42.4,60.7,68.5c16.8,27,28.6,56.7,35.2,88.1c14.9,71.2,1.1,144-38.8,204.8c-39.9,60.9-101,102.6-172.3,117.4
			C-5799,2624-5817.8,2625.9-5836.5,2625.9C-5836.5,2625.9-5836.5,2625.9-5836.5,2625.9z"/>
		<line class="st3" x1="-5777.5" y1="2634.8" x2="-5894.9" y2="2072.1"/>
		<line class="st4" x1="-5894.9" y1="2072.1" x2="-6021.9" y2="2572.8"/>
		<line class="st5" x1="-5966.4" y1="2354" x2="-5648.9" y2="2287.8"/>
		<line class="st3" x1="-5873.4" y1="2175.3" x2="-5655.7" y2="2129.8"/>
		<path class="st6" d="M-5673.4,2211.2"/>
		<circle class="st7" cx="-5836.2" cy="2353.5" r="287.4"/>
	</g>
	<g id="_x32_" class="st1">
		<path class="st2" d="M-4941.1,2197.6c-60.8,9.7-124-1.9-177.8-32.7c-26.8-15.3-50.6-34.9-70.7-58.1c-20.8-24-37.2-51.4-48.6-81.5
			c-25.9-68-23.7-142,6.1-208.4c29.8-66.4,83.6-117.2,151.6-143.1c17.6-6.7,35.9-11.6,54.3-14.5c60.8-9.7,124,1.9,177.8,32.7
			c26.8,15.3,50.6,34.9,70.7,58.1c20.8,24,37.2,51.4,48.6,81.5c25.9,68,23.7,142-6.1,208.4c-29.8,66.4-83.6,117.2-151.6,143.1
			C-4904.4,2189.8-4922.7,2194.6-4941.1,2197.6C-4941.1,2197.6-4941.1,2197.6-4941.1,2197.6z"/>
		<line class="st3" x1="-4881.5" y1="2197.1" x2="-5085.9" y2="1659.9"/>
		<line class="st4" x1="-5085.9" y1="1659.9" x2="-5132.7" y2="2174.3"/>
		<line class="st5" x1="-5112.2" y1="1949.5" x2="-4809.1" y2="1834.1"/>
		<line class="st3" x1="-5048.4" y1="1758.3" x2="-4840.6" y2="1679.2"/>
		<path class="st6" d="M-4845.3,1762.3"/>
		<circle class="st7" cx="-4983.7" cy="1928.5" r="287.4"/>
	</g>
	<g id="_x33_" class="st1">
		<path class="st8" d="M-5121.1,3040.2c-60.8,9.7-124-1.9-177.8-32.7c-26.8-15.3-50.6-34.9-70.7-58.1c-20.8-24-37.2-51.4-48.6-81.5
			c-25.9-68-23.7-142,6.1-208.4c29.8-66.4,83.6-117.2,151.6-143.1c17.6-6.7,35.9-11.6,54.3-14.5c60.8-9.7,124,1.9,177.8,32.7
			c26.8,15.3,50.6,34.9,70.7,58.1c20.8,24,37.2,51.4,48.6,81.5c25.9,68,23.7,142-6.1,208.4c-29.8,66.4-83.6,117.2-151.6,143.1
			C-5084.4,3032.4-5102.7,3037.3-5121.1,3040.2C-5121.1,3040.2-5121.1,3040.2-5121.1,3040.2z"/>
		<line class="st3" x1="-5061.5" y1="3039.7" x2="-5265.9" y2="2502.5"/>
		<line class="st4" x1="-5265.9" y1="2502.5" x2="-5371.6" y2="2977.1"/>
		<line class="st5" x1="-5335" y1="2830.2" x2="-4989.1" y2="2698.6"/>
		<line class="st3" x1="-5228.4" y1="2601" x2="-5020.6" y2="2521.9"/>
		<path class="st6" d="M-5025.3,2605"/>
		<circle class="st9" cx="-5163.7" cy="2771.1" r="287.4"/>
	</g>
	<g id="colors" class="st1">
		<rect x="-6305.6" y="2810.8" class="st10" width="197" height="197"/>
		<rect x="-6064" y="2810.8" class="st8" width="197" height="197"/>
		<rect x="-5822.4" y="2810.8" class="st11" width="197" height="197"/>
		<rect x="-5195.6" y="1254" class="st10" width="197" height="197"/>
		<rect x="-4954" y="1254" class="st8" width="197" height="197"/>
		<rect x="-4712.4" y="1254" class="st11" width="197" height="197"/>
		<rect x="-4470.8" y="1254" class="st12" width="197" height="197"/>
	</g>
	<g id="Layer_5" class="st1">
		<rect x="-5937.8" y="1662.8" style="fill:none;" width="486.7" height="158.7"/>
		<text transform="matrix(1 0 0 1 -5937.8369 1672.6014)"><tspan x="0" y="0" style="font-family:'NexaDemo-Light'; font-size:14px;">Lorem ipsum dolor sit amet, consectetuer adipiscing elit, sed diam </tspan><tspan x="0" y="16.8" style="font-family:'NexaDemo-Light'; font-size:14px;">nonummy nibh euismod tincidunt ut laoreet dolore magna aliquam erat </tspan><tspan x="0" y="33.6" style="font-family:'NexaDemo-Light'; font-size:14px;">volutpat. Ut wisi enim ad minim veniam, quis nostrud exerci tation ullam</tspan><tspan x="464.6" y="33.6" style="font-family:'NexaDemo-Light'; font-size:14px;">-</tspan><tspan x="0" y="50.4" style="font-family:'NexaDemo-Light'; font-size:14px;">corper suscipit lobortis nisl ut aliquip ex ea commodo consequat. Duis </tspan><tspan x="0" y="67.2" style="font-family:'NexaDemo-Light'; font-size:14px;">autem vel eum iriure dolor in hendrerit in vulputate velit esse molestie </tspan><tspan x="0" y="84" style="font-family:'NexaDemo-Light'; font-size:14px;">consequat, vel illum dolore eu feugiat nulla facilisis at vero eros et ac</tspan><tspan x="445.8" y="84" style="font-family:'NexaDemo-Light'; font-size:14px;">-</tspan><tspan x="0" y="100.8" style="font-family:'NexaDemo-Light'; font-size:14px;">cumsan et iusto odio dignissim qui blandit praesent luptatum zzril delenit </tspan><tspan x="0" y="117.6" style="font-family:'NexaDemo-Light'; font-size:14px;">augue duis dolore te feugait nulla facilisi.</tspan></text>
		<rect x="-5937.8" y="1860.1" style="fill:none;" width="486.7" height="158.7"/>
		<text transform="matrix(1 0 0 1 -5937.8369 1870.6349)"><tspan x="0" y="0" style="font-family:'Orkney-Light'; font-size:14px;">Lorem ipsum dolor sit amet, consectetuer adipiscing elit, sed diam nonum</tspan><tspan x="467.4" y="0" style="font-family:'Orkney-Light'; font-size:14px;">-</tspan><tspan x="0" y="16.8" style="font-family:'Orkney-Light'; font-size:14px;">my nibh euismod tincidunt ut laoreet dolore magna aliquam erat volutpat. </tspan><tspan x="0" y="33.6" style="font-family:'Orkney-Light'; font-size:14px;">Ut wisi enim ad minim veniam, quis nostrud exerci tation ullamcorper sus</tspan><tspan x="464.8" y="33.6" style="font-family:'Orkney-Light'; font-size:14px;">-</tspan><tspan x="0" y="50.4" style="font-family:'Orkney-Light'; font-size:14px;">cipit lobortis nisl ut aliquip ex ea commodo consequat. Duis autem vel eum </tspan><tspan x="0" y="67.2" style="font-family:'Orkney-Light'; font-size:14px;">iriure dolor in hendrerit in vulputate velit esse molestie consequat, vel illum </tspan><tspan x="0" y="84" style="font-family:'Orkney-Light'; font-size:14px;">dolore eu feugiat nulla facilisis at vero eros et accumsan et iusto odio </tspan><tspan x="0" y="100.8" style="font-family:'Orkney-Light'; font-size:14px;">dignissim qui blandit praesent luptatum zzril delenit augue duis dolore te </tspan><tspan x="0" y="117.6" style="font-family:'Orkney-Light'; font-size:14px;">feugait nulla facilisi.</tspan></text>
		<text transform="matrix(1 0 0 1 -5937.8364 1844.8016)" style="font-family:'Orkney-Light'; font-size:26px;">Orkney Light 14pt</text>
		<text transform="matrix(1 0 0 1 -5937.8364 1649.4683)" style="font-family:'Orkney-Light'; font-size:26px;">Nexa Light 14pt</text>
	</g>
	<g id="_x34_" class="st1">
		<linearGradient id="SVGID_1_" gradientUnits="userSpaceOnUse" x1="-2963.3938" y1="2317.9753" x2="-2963.3938" y2="2787.9753">
			<stop  offset="0" style="stop-color:#3ABCEF"/>
			<stop  offset="0.7243" style="stop-color:#3A9FE3"/>
			<stop  offset="1" style="stop-color:#3ABCEF"/>
		</linearGradient>
		<circle class="st13" cx="-2963.4" cy="2553" r="235"/>
		<g>
			<path class="st14" d="M-2616.4,2516.2c-7.1,0.5-14.3,0-21.3-1.2c-7-1.2-14-2.9-20.7-5c-13.5-4.2-26.6-9.6-39.5-15.4
				c-12.9-5.7-25.5-12-38-18.2l-37.5-18.7c-25-12.4-50.1-24.2-75.7-34.4c-25.5-10.3-51.6-19-78.1-24.9c-26.5-6-53.5-8.6-80.1-7.9
				c-26.7,0.6-53,4.1-78.9,10.1c-13,2.9-25.8,6.7-38.5,11.2l-4.8,1.6c-1.6,0.6-3.1,1.2-4.7,1.8c-3.1,1.3-6.3,2.4-9.5,3.7l-9.4,3.9
				c-1.6,0.6-3.1,1.3-4.7,2l-4.6,2.1l-4.7,2.1c-1.6,0.7-3.1,1.5-4.6,2.2l-9.2,4.5l-9.1,4.8c-1.5,0.8-3.1,1.5-4.6,2.4l-4.5,2.5
				c-12.2,6.5-24.1,13.8-36.3,20.8l-1.9-2.3c2.4-2.6,4.8-5.2,7.2-7.8l3.7-3.9c1.2-1.3,2.5-2.5,3.8-3.7c2.5-2.5,5.1-4.9,7.7-7.4
				c2.6-2.4,5.3-4.7,8-7c5.3-4.7,11-9,16.7-13.5c2.9-2.1,5.8-4.2,8.7-6.3c1.5-1,2.9-2.1,4.4-3.1l4.5-2.9c12-8,24.7-15,37.8-21.2
				c6.5-3.2,13.3-5.9,20.1-8.6l10.3-3.7c1.7-0.6,3.5-1.2,5.2-1.7l5.2-1.6c14-4.2,28.4-7.3,43-9.1c3.6-0.4,7.3-0.8,11-1.1
				c3.7-0.3,7.3-0.4,11-0.7c3.7-0.1,7.3-0.1,11-0.2c1.8,0,3.7,0,5.5,0.1l5.5,0.1c29.3,1.3,58,6.7,85.7,14.3
				c27.7,7.6,54.4,18,80.2,29.8c25.7,12,50.5,25.5,74.8,39.4c24.3,14,48.2,28.5,72.6,41.7c12.2,6.6,24.6,12.8,37.4,17.8
				c6.4,2.5,12.9,4.7,19.6,6.4c6.6,1.6,13.4,2.7,20.3,2.8L-2616.4,2516.2z"/>
		</g>
		<g>
			<path class="st14" d="M-2868.1,2615.5c-22.3,13.2-45.9,24.5-71,32.7c-3.2,1-6.3,2-9.5,2.9c-3.2,0.9-6.4,1.8-9.6,2.6
				c-3.2,0.8-6.5,1.6-9.7,2.2c-3.3,0.6-6.5,1.3-9.8,1.9c-6.6,1.1-13.2,2-19.9,2.6c-3.3,0.3-6.7,0.6-10,0.7l-5,0.2l-5,0.1
				c-13.4,0.2-26.9,0-40.3-1.2c-13.4-1.2-26.5-4.1-39.1-8.3c-12.6-4.2-24.7-9.4-36.5-15.3c-5.9-3-11.6-6.2-17.3-9.7
				c-5.6-3.5-11.2-7.2-16.5-11.4c-0.7-0.5-0.8-1.5-0.2-2.1c0.3-0.4,0.8-0.6,1.2-0.6c3.4,0.1,6.7,0.3,10,0.6c3.3,0.3,6.6,0.6,9.8,1
				c6.5,0.8,12.9,1.7,19.3,2.7c12.7,2.1,25.2,4.4,37.5,6.8c1.5,0.3,3.1,0.6,4.6,0.9c1.5,0.3,3.1,0.6,4.6,0.9c3,0.6,6.1,1.2,9.1,2
				c3,0.7,6,1.3,9,2.1c3,0.7,6,1.4,9,2.1c12,2.9,24.1,5.4,36.4,6.4c24.6,2,49.5,0.5,74.2-4.1c24.8-4.5,49.2-12.3,73.3-21.3l0,0
				c0.8-0.3,1.6,0.1,1.9,0.9C-2867.2,2614.4-2867.5,2615.1-2868.1,2615.5z"/>
		</g>
		<g>
			<path class="st14" d="M-3282.6,2627.6c10.1,9.4,20.7,18,31.9,25.9c11.1,8,22.7,15.2,34.7,21.7c24,12.9,49.3,23.1,75.4,30.4
				c26.1,7.4,52.9,12.2,79.8,14.6c26.9,2.6,54.1,2.8,81,1.1c27-1.7,53.8-5.9,80.1-11.7c3.3-0.7,6.6-1.4,9.9-2.2
				c3.3-0.8,6.6-1.5,9.8-2.3c6.6-1.5,13.1-3.2,19.6-4.8c13.1-3.3,26.1-6.7,39.1-10.4c26-7.3,51.8-15.7,77.5-25
				c12.8-4.6,25.6-9.6,38.4-14.6c12.8-5,25.5-10.3,38.5-15.5c0.8-0.3,1.6,0.1,1.9,0.8c0.2,0.6,0,1.3-0.4,1.7
				c-10.8,8.9-22.2,17-33.9,24.7c-11.7,7.7-23.7,14.9-36.1,21.5c-24.7,13.3-50.5,24.7-77.1,34c-26.6,9.3-54.2,16.1-82.1,20.2
				c-28,4.1-56.1,6.1-84.3,6.7c-28.2,0.5-56.4-1.1-84.3-5.1c-27.9-4.1-55.3-10.7-81.9-19.9c-26.5-9.4-52-21.4-75.7-36.4
				c-11.8-7.5-23.1-15.8-33.8-24.7c-10.7-8.9-20.8-18.6-30.2-28.8c-0.5-0.6-0.5-1.5,0.1-2.1
				C-3284,2627.1-3283.2,2627.1-3282.6,2627.6L-3282.6,2627.6z"/>
		</g>
		
			<text transform="matrix(1 0 0 1 -3149.491 3018.0898)" class="st8" style="font-family:'NexaDemo-Bold'; font-size:200px; letter-spacing:2;">fitly</text>
	</g>
	<g id="_x35_" class="st1">
		<circle class="st8" cx="-3592.8" cy="2553" r="235"/>
		<g>
			<path class="st14" d="M-3245.7,2516.2c-7.1,0.5-14.3,0-21.3-1.2c-7-1.2-14-2.9-20.7-5c-13.5-4.2-26.6-9.6-39.5-15.4
				c-12.9-5.7-25.5-12-38-18.2l-37.5-18.7c-25-12.4-50.1-24.2-75.7-34.4c-25.5-10.3-51.6-19-78.1-24.9c-26.5-6-53.5-8.6-80.1-7.9
				c-26.7,0.6-53,4.1-78.9,10.1c-13,2.9-25.8,6.7-38.5,11.2l-4.8,1.6c-1.6,0.6-3.1,1.2-4.7,1.8c-3.1,1.3-6.3,2.4-9.5,3.7l-9.4,3.9
				c-1.6,0.6-3.1,1.3-4.7,2l-4.6,2.1l-4.7,2.1c-1.6,0.7-3.1,1.5-4.6,2.2l-9.2,4.5l-9.1,4.8c-1.5,0.8-3.1,1.5-4.6,2.4l-4.5,2.5
				c-12.2,6.5-24.1,13.8-36.3,20.8l-1.9-2.3c2.4-2.6,4.8-5.2,7.2-7.8l3.7-3.9c1.2-1.3,2.5-2.5,3.8-3.7c2.5-2.5,5.1-4.9,7.7-7.4
				c2.6-2.4,5.3-4.7,8-7c5.3-4.7,11-9,16.7-13.5c2.9-2.1,5.8-4.2,8.7-6.3c1.5-1,2.9-2.1,4.4-3.1l4.5-2.9c12-8,24.7-15,37.8-21.2
				c6.5-3.2,13.3-5.9,20.1-8.6l10.3-3.7c1.7-0.6,3.5-1.2,5.2-1.7l5.2-1.6c14-4.2,28.4-7.3,43-9.1c3.6-0.4,7.3-0.8,11-1.1
				c3.7-0.3,7.3-0.4,11-0.7c3.7-0.1,7.3-0.1,11-0.2c1.8,0,3.7,0,5.5,0.1l5.5,0.1c29.3,1.3,58,6.7,85.7,14.3
				c27.7,7.6,54.4,18,80.2,29.8c25.7,12,50.5,25.5,74.8,39.4c24.3,14,48.2,28.5,72.6,41.7c12.2,6.6,24.6,12.8,37.4,17.8
				c6.4,2.5,12.9,4.7,19.6,6.4c6.6,1.6,13.4,2.7,20.3,2.8L-3245.7,2516.2z"/>
		</g>
		<g>
			<path class="st14" d="M-3497.5,2615.5c-22.3,13.2-45.9,24.5-71,32.7c-3.2,1-6.3,2-9.5,2.9c-3.2,0.9-6.4,1.8-9.6,2.6
				c-3.2,0.8-6.5,1.6-9.7,2.2c-3.3,0.6-6.5,1.3-9.8,1.9c-6.6,1.1-13.2,2-19.9,2.6c-3.3,0.3-6.7,0.6-10,0.7l-5,0.2l-5,0.1
				c-13.4,0.2-26.9,0-40.3-1.2c-13.4-1.2-26.5-4.1-39.1-8.3c-12.6-4.2-24.7-9.4-36.5-15.3c-5.9-3-11.6-6.2-17.3-9.7
				c-5.6-3.5-11.2-7.2-16.5-11.4c-0.7-0.5-0.8-1.5-0.2-2.1c0.3-0.4,0.8-0.6,1.2-0.6c3.4,0.1,6.7,0.3,10,0.6c3.3,0.3,6.6,0.6,9.8,1
				c6.5,0.8,12.9,1.7,19.3,2.7c12.7,2.1,25.2,4.4,37.5,6.8c1.5,0.3,3.1,0.6,4.6,0.9c1.5,0.3,3.1,0.6,4.6,0.9c3,0.6,6.1,1.2,9.1,2
				c3,0.7,6,1.3,9,2.1c3,0.7,6,1.4,9,2.1c12,2.9,24.1,5.4,36.4,6.4c24.6,2,49.5,0.5,74.2-4.1c24.8-4.5,49.2-12.3,73.3-21.3l0,0
				c0.8-0.3,1.6,0.1,1.9,0.9C-3496.6,2614.4-3496.9,2615.1-3497.5,2615.5z"/>
		</g>
		<g>
			<path class="st14" d="M-3912,2627.6c10.1,9.4,20.7,18,31.9,25.9c11.1,8,22.7,15.2,34.7,21.7c24,12.9,49.3,23.1,75.4,30.4
				c26.1,7.4,52.9,12.2,79.8,14.6c26.9,2.6,54.1,2.8,81,1.1c27-1.7,53.8-5.9,80.1-11.7c3.3-0.7,6.6-1.4,9.9-2.2
				c3.3-0.8,6.6-1.5,9.8-2.3c6.6-1.5,13.1-3.2,19.6-4.8c13.1-3.3,26.1-6.7,39.1-10.4c26-7.3,51.8-15.7,77.5-25
				c12.8-4.6,25.6-9.6,38.4-14.6c12.8-5,25.5-10.3,38.5-15.5c0.8-0.3,1.6,0.1,1.9,0.8c0.2,0.6,0,1.3-0.4,1.7
				c-10.8,8.9-22.2,17-33.9,24.7c-11.7,7.7-23.7,14.9-36.1,21.5c-24.7,13.3-50.5,24.7-77.1,34c-26.6,9.3-54.2,16.1-82.1,20.2
				c-28,4.1-56.1,6.1-84.3,6.7c-28.2,0.5-56.4-1.1-84.3-5.1c-27.9-4.1-55.3-10.7-81.9-19.9c-26.5-9.4-52-21.4-75.7-36.4
				c-11.8-7.5-23.1-15.8-33.8-24.7c-10.7-8.9-20.8-18.6-30.2-28.8c-0.5-0.6-0.5-1.5,0.1-2.1
				C-3913.4,2627.1-3912.5,2627.1-3912,2627.6L-3912,2627.6z"/>
		</g>
		
			<text transform="matrix(1 0 0 1 -3778.8599 3018.0898)" class="st8" style="font-family:'NexaDemo-Bold'; font-size:200px; letter-spacing:2;">fitly</text>
	</g>
	<g id="_x36_" class="st1">
		<circle cx="-4268.4" cy="2553" r="235"/>
		<g>
			<path class="st14" d="M-3921.4,2516.2c-7.1,0.5-14.3,0-21.3-1.2c-7-1.2-14-2.9-20.7-5c-13.5-4.2-26.6-9.6-39.5-15.4
				c-12.9-5.7-25.5-12-38-18.2l-37.5-18.7c-25-12.4-50.1-24.2-75.7-34.4c-25.5-10.3-51.6-19-78.1-24.9c-26.5-6-53.5-8.6-80.1-7.9
				c-26.7,0.6-53,4.1-78.9,10.1c-13,2.9-25.8,6.7-38.5,11.2l-4.8,1.6c-1.6,0.6-3.1,1.2-4.7,1.8c-3.1,1.3-6.3,2.4-9.5,3.7l-9.4,3.9
				c-1.6,0.6-3.1,1.3-4.7,2l-4.6,2.1l-4.7,2.1c-1.6,0.7-3.1,1.5-4.6,2.2l-9.2,4.5l-9.1,4.8c-1.5,0.8-3.1,1.5-4.6,2.4l-4.5,2.5
				c-12.2,6.5-24.1,13.8-36.3,20.8l-1.9-2.3c2.4-2.6,4.8-5.2,7.2-7.8l3.7-3.9c1.2-1.3,2.5-2.5,3.8-3.7c2.5-2.5,5.1-4.9,7.7-7.4
				c2.6-2.4,5.3-4.7,8-7c5.3-4.7,11-9,16.7-13.5c2.9-2.1,5.8-4.2,8.7-6.3c1.5-1,2.9-2.1,4.4-3.1l4.5-2.9c12-8,24.7-15,37.8-21.2
				c6.5-3.2,13.3-5.9,20.1-8.6l10.3-3.7c1.7-0.6,3.5-1.2,5.2-1.7l5.2-1.6c14-4.2,28.4-7.3,43-9.1c3.6-0.4,7.3-0.8,11-1.1
				c3.7-0.3,7.3-0.4,11-0.7c3.7-0.1,7.3-0.1,11-0.2c1.8,0,3.7,0,5.5,0.1l5.5,0.1c29.3,1.3,58,6.7,85.7,14.3
				c27.7,7.6,54.4,18,80.2,29.8c25.7,12,50.5,25.5,74.8,39.4c24.3,14,48.2,28.5,72.6,41.7c12.2,6.6,24.6,12.8,37.4,17.8
				c6.4,2.5,12.9,4.7,19.6,6.4c6.6,1.6,13.4,2.7,20.3,2.8L-3921.4,2516.2z"/>
		</g>
		<g>
			<path class="st14" d="M-4173.1,2615.5c-22.3,13.2-45.9,24.5-71,32.7c-3.2,1-6.3,2-9.5,2.9c-3.2,0.9-6.4,1.8-9.6,2.6
				c-3.2,0.8-6.5,1.6-9.7,2.2c-3.3,0.6-6.5,1.3-9.8,1.9c-6.6,1.1-13.2,2-19.9,2.6c-3.3,0.3-6.7,0.6-10,0.7l-5,0.2l-5,0.1
				c-13.4,0.2-26.9,0-40.3-1.2c-13.4-1.2-26.5-4.1-39.1-8.3c-12.6-4.2-24.7-9.4-36.5-15.3c-5.9-3-11.6-6.2-17.3-9.7
				c-5.6-3.5-11.2-7.2-16.5-11.4c-0.7-0.5-0.8-1.5-0.2-2.1c0.3-0.4,0.8-0.6,1.2-0.6c3.4,0.1,6.7,0.3,10,0.6c3.3,0.3,6.6,0.6,9.8,1
				c6.5,0.8,12.9,1.7,19.3,2.7c12.7,2.1,25.2,4.4,37.5,6.8c1.5,0.3,3.1,0.6,4.6,0.9c1.5,0.3,3.1,0.6,4.6,0.9c3,0.6,6.1,1.2,9.1,2
				c3,0.7,6,1.3,9,2.1c3,0.7,6,1.4,9,2.1c12,2.9,24.1,5.4,36.4,6.4c24.6,2,49.5,0.5,74.2-4.1c24.8-4.5,49.2-12.3,73.3-21.3l0,0
				c0.8-0.3,1.6,0.1,1.9,0.9C-4172.2,2614.4-4172.5,2615.1-4173.1,2615.5z"/>
		</g>
		<g>
			<path class="st14" d="M-4587.6,2627.6c10.1,9.4,20.7,18,31.9,25.9c11.1,8,22.7,15.2,34.7,21.7c24,12.9,49.3,23.1,75.4,30.4
				c26.1,7.4,52.9,12.2,79.8,14.6c26.9,2.6,54.1,2.8,81,1.1c27-1.7,53.8-5.9,80.1-11.7c3.3-0.7,6.6-1.4,9.9-2.2
				c3.3-0.8,6.6-1.5,9.8-2.3c6.6-1.5,13.1-3.2,19.6-4.8c13.1-3.3,26.1-6.7,39.1-10.4c26-7.3,51.8-15.7,77.5-25
				c12.8-4.6,25.6-9.6,38.4-14.6c12.8-5,25.5-10.3,38.5-15.5c0.8-0.3,1.6,0.1,1.9,0.8c0.2,0.6,0,1.3-0.4,1.7
				c-10.8,8.9-22.2,17-33.9,24.7c-11.7,7.7-23.7,14.9-36.1,21.5c-24.7,13.3-50.5,24.7-77.1,34c-26.6,9.3-54.2,16.1-82.1,20.2
				c-28,4.1-56.1,6.1-84.3,6.7c-28.2,0.5-56.4-1.1-84.3-5.1c-27.9-4.1-55.3-10.7-81.9-19.9c-26.5-9.4-52-21.4-75.7-36.4
				c-11.8-7.5-23.1-15.8-33.8-24.7c-10.7-8.9-20.8-18.6-30.2-28.8c-0.5-0.6-0.5-1.5,0.1-2.1
				C-4589,2627.1-4588.2,2627.1-4587.6,2627.6L-4587.6,2627.6z"/>
		</g>
		
			<text transform="matrix(1 0 0 1 -4454.4912 3018.0898)" style="font-family:'NexaDemo-Bold'; font-size:200px; letter-spacing:2;">fitly</text>
	</g>
	<g id="Layer_9" class="st1">
	</g>
	<g id="fitly_2">
		<circle class="st1" cx="-3609.8" cy="1695" r="235"/>
		
			<text transform="matrix(1 0 0 1 -213.2534 1608.0901)" class="st1" style="font-family:'NexaDemo-Bold'; font-size:200px; letter-spacing:2;">fitly</text>
		<path class="st15" d="M-3365.9,1765.7c-67.7,30.2-146.6,34.4-217.1,11.5c29.6,19.8,63.3,33.6,98.3,40.3c41,7.8,83.2,6,124.9,4.1"
			/>
		<path class="st15" d="M-3651,1422.9c-33.6,24.3-54.7,64.9-55.4,106.4c-0.4,21.5,4.5,42.8,5.1,64.3c1.7,52.7-23.1,105.5-64.7,137.9
			c16.5-19.7,17.3-48.3,12.7-73.6s-13.9-49.9-14.9-75.6c-1.3-35.7,13.9-70.7,36.4-98.5c22.5-27.8,51.8-49.3,81.9-68.5"/>
		<path class="st15" d="M-3352.6,1783.3c-82.4,40.6-174.4,61.5-266.3,60.6c-91.9-0.9-183.4-23.7-265.1-65.9
			c45.5,34.9,102.8,49.7,158.4,63.7c60.4,15.2,122,30.6,184.3,26.8c74.6-4.6,147.1-37.8,199.2-91.4"/>
		<path class="st15" d="M-3732.4,1634.1c-0.5-13.7,10.9-24.6,22-32.6c59.9-43.1,138.1-57.1,211-45.6
			c72.9,11.5,140.7,46.9,197.9,93.6c-30.9-10.7-61.9-21.4-92.8-32.1c-35.9-12.4-72-24.9-109.7-30.1
			c-81.1-11.2-164.3,12.5-234.9,53.8"/>
	</g>
	<g id="fitly_3">
		<linearGradient id="SVGID_2_" gradientUnits="userSpaceOnUse" x1="-2952.8586" y1="1459.9596" x2="-2952.8586" y2="1929.9596">
			<stop  offset="0" style="stop-color:#3ABCEF"/>
			<stop  offset="0.7243" style="stop-color:#3A9FE3"/>
			<stop  offset="1" style="stop-color:#3ABCEF"/>
		</linearGradient>
		<circle class="st16" cx="-2952.9" cy="1695" r="235"/>
		<g class="st1">
			
				<text transform="matrix(1 0 0 1 257.655 2319.0901)" class="st8" style="font-family:'NexaDemo-Bold'; font-size:200px; letter-spacing:2;">fitly</text>
		</g>
		<path class="st15" d="M-2709,1765.7c-67.7,30.2-146.6,34.4-217.1,11.5c29.6,19.8,63.3,33.6,98.3,40.3c41,7.8,83.2,6,124.9,4.1"/>
		<path class="st15" d="M-2994.1,1422.9c-33.6,24.3-54.7,64.9-55.4,106.4c-0.4,21.5,4.5,42.8,5.1,64.3
			c1.7,52.7-23.1,105.5-64.7,137.9c16.5-19.7,17.3-48.3,12.7-73.6s-13.9-49.9-14.9-75.6c-1.3-35.7,13.9-70.7,36.4-98.5
			s51.8-49.3,81.9-68.5"/>
		<path class="st15" d="M-2695.7,1783.3c-82.4,40.6-174.4,61.5-266.3,60.6c-91.9-0.9-183.4-23.7-265.1-65.9
			c45.5,34.9,102.8,49.7,158.4,63.7c60.4,15.2,122,30.6,184.3,26.8c74.6-4.6,147.1-37.8,199.2-91.4"/>
		<path class="st15" d="M-3075.5,1634.1c-0.5-13.7,10.9-24.6,22-32.6c59.9-43.1,138.1-57.1,211-45.6
			c72.9,11.5,140.7,46.9,197.9,93.6c-30.9-10.7-61.9-21.4-92.8-32.1c-35.9-12.4-72-24.9-109.7-30.1
			c-81.1-11.2-164.3,12.5-234.9,53.8"/>
		<g class="st1">
			<g>
				<linearGradient id="SVGID_3_" gradientUnits="userSpaceOnUse" x1="310.2046" y1="2267.4509" x2="313.1025" y2="2267.4509">
					<stop  offset="0" style="stop-color:#3ABCEF"/>
					<stop  offset="0.7243" style="stop-color:#3A9FE3"/>
					<stop  offset="1" style="stop-color:#3ABCEF"/>
				</linearGradient>
				<path class="st17" d="M311.7,2269c1.9,0,1.9-3,0-3C309.7,2266,309.7,2269,311.7,2269L311.7,2269z"/>
			</g>
		</g>
	</g>
	<g id="fitly_TRUE_backup" class="st1">
		<circle cx="-4300.8" cy="1695" r="235"/>
		
			<text transform="matrix(1 0 0 1 -4486.8594 2160.0742)" style="font-family:'NexaDemo-Bold'; font-size:200px; letter-spacing:2;">fitly</text>
		<path class="st14" d="M-4050.9,1751c-67.7,30.2-146.6,34.4-217.1,11.5c29.6,19.8,63.3,33.6,98.3,40.3c41,7.8,83.2,6,124.9,4.1"/>
		<path class="st14" d="M-4353.8,1422.9c-28.8,24.3-46.9,64.9-47.5,106.4c-0.3,21.5,3.8,42.8,4.4,64.3
			c1.4,52.7-19.8,105.5-55.5,137.9c14.1-19.7,14.9-48.3,10.9-73.6c-4-25.3-12-49.9-12.8-75.6c-1.1-35.7,11.9-70.7,31.2-98.5
			c19.3-27.8,44.4-49.3,70.3-68.5"/>
		<path class="st14" d="M-4043.6,1783.3c-82.4,40.6-174.5,64.5-266.3,60.6c-92.4-4-184.3-28.5-265.1-65.9
			c45.5,34.9,99.9,53.9,155.5,67.9c60.4,15.2,125.1,28.2,187.1,22.6c102.4-9.4,185.5-44.5,199.2-91.4"/>
		<path class="st14" d="M-4423.4,1634.1c-0.5-13.7,10.9-24.6,22-32.6c59.9-43.1,117.2-71.5,190.1-60c72.9,11.5,159.3,68,218.8,108
			c-30.9-10.7-82.5-41.4-113.5-52.1c-35.9-12.4-72-24.9-109.7-30.1c-81.1-11.2-143.6,32.5-214.3,73.8"/>
	</g>
	<g id="fitly_1" class="st1">
		<text transform="matrix(1 0 0 1 -5198.0435 76.7112)" style="font-family:'NexaDemo-Bold'; font-size:200px; letter-spacing:2;">fitly</text>
		<g>
			<path d="M-5410.5-62.5c-0.1,9.5,1.7,19,2,28.5c0,0.7,0,1.4,0,2c25.8-18.3,50.7-30.1,82.2-25.2c16.9,2.7,35.4,10.8,53,20.4
				c-17.3-33.6-52.2-56.5-92.6-56.5c-14.3,0-27.9,2.9-40.3,8.1C-5408.9-78-5410.4-70.3-5410.5-62.5z"/>
			<path d="M-5370,76.7c31.3,1.3,62.6-4.6,92-15.6c-10.1,0-20.1-0.7-30-2.5c-15.5-3-30.4-9.1-43.5-17.8c27.6,8.9,58.1,8.5,85.5-0.9
				c2.7-9.2,4.1-18.9,4.1-29c0-13.8-2.7-26.9-7.5-38.9c-3.7-1.7-7.2-3.2-10.3-4.3c-15.9-5.5-31.9-11-48.6-13.3
				c-30.5-4.2-55.1,9.1-81,24.4c-2.4,18.8-11,36.6-23.9,48.3c6.3-8.7,6.6-21.4,4.8-32.6s-5.3-22.1-5.7-33.5
				c-0.4-12.7,3.2-25.1,9.1-35.9c-27.3,18.8-45.1,50.2-45.1,85.8c0,17.6,4.4,34.1,12.1,48.7C-5430,69.2-5400,75.5-5370,76.7z"/>
			<path d="M-5335.6,87.7c-27.5,2.5-56.1-3.2-82.9-10c-12.1-3-24-6.6-35.4-11.3c18.4,29.1,51,48.5,88,48.5c32.2,0,61-14.6,80.1-37.6
				C-5300,82.4-5317.1,86-5335.6,87.7z"/>
		</g>
	</g>
	<g id="fitly_1_copy" class="st1">
		
			<text transform="matrix(1 0 0 1 -5198.0435 442.4217)" class="st8" style="font-family:'NexaDemo-Bold'; font-size:200px; letter-spacing:2;">fitly</text>
		<g>
			<path class="st8" d="M-5410.5,303.2c-0.1,9.5,1.7,19,2,28.5c0,0.7,0,1.4,0,2c25.8-18.3,50.7-30.1,82.2-25.2
				c16.9,2.7,35.4,10.8,53,20.4c-17.3-33.6-52.2-56.5-92.6-56.5c-14.3,0-27.9,2.9-40.3,8.1C-5408.9,287.7-5410.4,295.4-5410.5,303.2
				z"/>
			<path class="st8" d="M-5370,442.5c31.3,1.3,62.6-4.6,92-15.6c-10.1,0-20.1-0.7-30-2.5c-15.5-3-30.4-9.1-43.5-17.8
				c27.6,8.9,58.1,8.5,85.5-0.9c2.7-9.2,4.1-18.9,4.1-29c0-13.8-2.7-26.9-7.5-38.9c-3.7-1.7-7.2-3.2-10.3-4.3
				c-15.9-5.5-31.9-11-48.6-13.3c-30.5-4.2-55.1,9.1-81,24.4c-2.4,18.8-11,36.6-23.9,48.3c6.3-8.7,6.6-21.4,4.8-32.6
				c-1.8-11.2-5.3-22.1-5.7-33.5c-0.4-12.7,3.2-25.1,9.1-35.9c-27.3,18.8-45.1,50.2-45.1,85.8c0,17.6,4.4,34.1,12.1,48.7
				C-5430,434.9-5400,441.2-5370,442.5z"/>
			<path class="st8" d="M-5335.6,453.4c-27.5,2.5-56.1-3.2-82.9-10c-12.1-3-24-6.6-35.4-11.3c18.4,29.1,51,48.5,88,48.5
				c32.2,0,61-14.6,80.1-37.6C-5300,448.1-5317.1,451.7-5335.6,453.4z"/>
		</g>
	</g>
</g>
<g id="Logo">
	<g id="fitly_black_1_" class="st0">
		<g class="st1">
			<path d="M-1968.3,373.7v39c0,2-0.8,3.8-2.4,5.4c-1.6,1.6-3.6,2.4-5.8,2.4c-2.3,0-4.3-0.8-5.9-2.4c-1.6-1.6-2.4-3.4-2.4-5.4v-90.6
				c0-2.2,0.9-4.2,2.6-6.1c1.7-1.8,4-2.8,6.7-2.8h40.7c2.3,0,4.2,0.8,5.8,2.3c1.6,1.6,2.4,3.4,2.4,5.5c0,2.2-0.8,4-2.4,5.4
				c-1.6,1.4-3.6,2.1-5.8,2.1h-33.5v29.7h30.6c2,0,3.8,0.7,5.5,2.2c1.7,1.5,2.6,3.3,2.6,5.5c0,2.2-0.8,4-2.3,5.5
				c-1.6,1.5-3.5,2.3-5.8,2.3H-1968.3z"/>
			<path d="M-1880.7,412.7v-93c0-2.1,0.8-3.9,2.4-5.5c1.6-1.5,3.5-2.3,5.9-2.3c2.3,0,4.2,0.8,5.8,2.3c1.6,1.6,2.4,3.4,2.4,5.5v93
				c0,2-0.8,3.8-2.4,5.4c-1.6,1.6-3.6,2.4-5.8,2.4c-2.3,0-4.3-0.8-5.9-2.4C-1879.9,416.6-1880.7,414.8-1880.7,412.7z"/>
			<path d="M-1794.4,412.7v-84h-18.2c-2.4,0-4.4-0.8-5.9-2.3c-1.6-1.5-2.3-3.3-2.3-5.3c0-1.7,0.8-3.4,2.4-5.2
				c1.6-1.7,3.5-2.6,5.8-2.6h52.8c2.1,0,4,0.8,5.8,2.3c1.7,1.5,2.6,3.4,2.6,5.5c0,2-0.8,3.8-2.5,5.3c-1.6,1.6-3.6,2.3-5.9,2.3h-18.1
				v84c0,2-0.8,3.8-2.4,5.4c-1.6,1.6-3.6,2.4-5.8,2.4c-2.3,0-4.3-0.8-5.9-2.4C-1793.6,416.6-1794.4,414.8-1794.4,412.7z"/>
			<path d="M-1648.9,411.4c0,2.2-0.8,4-2.3,5.5c-1.6,1.5-3.4,2.2-5.6,2.2h-42.3c-2.4,0-4.5-0.8-6.3-2.5c-1.8-1.7-2.7-3.7-2.7-6.1
				v-90.8c0-2.1,0.8-3.9,2.4-5.5c1.6-1.5,3.5-2.3,5.9-2.3c2.3,0,4.2,0.8,5.8,2.3c1.6,1.6,2.4,3.4,2.4,5.5v84.1h34.8
				c2.1,0,3.9,0.7,5.5,2.2C-1649.7,407.5-1648.9,409.3-1648.9,411.4z"/>
			<path d="M-1589.2,420.5c-2.3,0-4.3-0.8-5.9-2.4c-1.6-1.6-2.5-3.5-2.5-5.7v-34.8l-26.5-54.1c-0.2-0.5-0.4-1.1-0.5-1.7
				c-0.1-0.6-0.2-1.3-0.2-1.9c0-2.2,0.9-4.1,2.6-5.6c1.7-1.5,3.7-2.3,5.8-2.3c1.3,0,2.6,0.3,3.8,0.8c1.2,0.6,2.1,1.4,2.9,2.6
				l20.7,43.2l20.7-43.2c0.7-1.2,1.7-2.1,2.9-2.6c1.2-0.5,2.4-0.8,3.8-0.8c2.2,0,4.1,0.8,5.8,2.3c1.7,1.6,2.5,3.4,2.5,5.6
				c0,0.5-0.1,1.1-0.2,1.8c-0.2,0.7-0.3,1.3-0.5,1.8l-26.5,54.3v34.7c0,2.1-0.8,4-2.4,5.6C-1584.8,419.7-1586.8,420.5-1589.2,420.5z
				"/>
		</g>
		<g class="st1">
			<path d="M-1815.2,32.7c-0.1,9.8,1.7,19.6,2,29.4c0,0.7,0,1.4,0,2.1c26.7-18.9,52.4-31.1,84.9-26c17.4,2.7,36.5,11.1,54.7,21.1
				c-17.8-34.7-54-58.4-95.6-58.4c-14.7,0-28.8,3-41.6,8.3C-1813.5,16.7-1815,24.7-1815.2,32.7z"/>
			<path d="M-1773.3,176.6c32.3,1.4,64.7-4.8,95-16.1c-10.4,0-20.7-0.7-30.9-2.6c-16-3.1-31.4-9.4-44.9-18.4
				c28.5,9.2,60,8.8,88.3-0.9c2.8-9.5,4.2-19.6,4.2-30c0-14.2-2.8-27.8-7.8-40.2c-3.9-1.8-7.5-3.3-10.6-4.4
				c-16.4-5.7-32.9-11.4-50.1-13.7c-31.5-4.4-56.9,9.4-83.6,25.2c-2.5,19.4-11.4,37.8-24.7,49.8c6.5-9,6.8-22.1,5-33.6
				c-1.8-11.6-5.5-22.8-5.8-34.6c-0.4-13.1,3.3-26,9.4-37.1c-28.1,19.4-46.6,51.8-46.6,88.6c0,18.2,4.5,35.3,12.5,50.3
				C-1835.3,168.8-1804.4,175.2-1773.3,176.6z"/>
			<path d="M-1737.8,187.8c-28.4,2.6-57.9-3.3-85.6-10.3c-12.5-3.1-24.8-6.8-36.6-11.7c19,30.1,52.6,50.1,90.9,50.1
				c33.3,0,63-15.1,82.7-38.8C-1701.1,182.4-1718.7,186.1-1737.8,187.8z"/>
		</g>
	</g>
	<g id="fitly_solid_color" class="st0">
		<g class="st1">
			<path class="st8" d="M-1373.5,373.7v39c0,2-0.8,3.8-2.4,5.4c-1.6,1.6-3.6,2.4-5.8,2.4c-2.3,0-4.3-0.8-5.9-2.4
				c-1.6-1.6-2.4-3.4-2.4-5.4v-90.6c0-2.2,0.9-4.2,2.6-6.1c1.7-1.8,4-2.8,6.7-2.8h40.7c2.3,0,4.2,0.8,5.8,2.3
				c1.6,1.6,2.4,3.4,2.4,5.5c0,2.2-0.8,4-2.4,5.4c-1.6,1.4-3.6,2.1-5.8,2.1h-33.5v29.7h30.6c2,0,3.8,0.7,5.5,2.2
				c1.7,1.5,2.6,3.3,2.6,5.5c0,2.2-0.8,4-2.3,5.5c-1.6,1.5-3.5,2.3-5.8,2.3H-1373.5z"/>
			<path class="st8" d="M-1285.9,412.7v-93c0-2.1,0.8-3.9,2.4-5.5c1.6-1.5,3.5-2.3,5.9-2.3c2.3,0,4.2,0.8,5.8,2.3
				c1.6,1.6,2.4,3.4,2.4,5.5v93c0,2-0.8,3.8-2.4,5.4c-1.6,1.6-3.6,2.4-5.8,2.4c-2.3,0-4.3-0.8-5.9-2.4
				C-1285.1,416.6-1285.9,414.8-1285.9,412.7z"/>
			<path class="st8" d="M-1199.6,412.7v-84h-18.2c-2.4,0-4.4-0.8-5.9-2.3c-1.6-1.5-2.3-3.3-2.3-5.3c0-1.7,0.8-3.4,2.4-5.2
				c1.6-1.7,3.5-2.6,5.8-2.6h52.8c2.1,0,4,0.8,5.8,2.3c1.7,1.5,2.6,3.4,2.6,5.5c0,2-0.8,3.8-2.5,5.3c-1.6,1.6-3.6,2.3-5.9,2.3h-18.1
				v84c0,2-0.8,3.8-2.4,5.4c-1.6,1.6-3.6,2.4-5.8,2.4c-2.3,0-4.3-0.8-5.9-2.4C-1198.9,416.6-1199.6,414.8-1199.6,412.7z"/>
			<path class="st8" d="M-1054.2,411.4c0,2.2-0.8,4-2.3,5.5c-1.6,1.5-3.4,2.2-5.6,2.2h-42.3c-2.4,0-4.5-0.8-6.3-2.5
				c-1.8-1.7-2.7-3.7-2.7-6.1v-90.8c0-2.1,0.8-3.9,2.4-5.5c1.6-1.5,3.5-2.3,5.9-2.3c2.3,0,4.2,0.8,5.8,2.3c1.6,1.6,2.4,3.4,2.4,5.5
				v84.1h34.8c2.1,0,3.9,0.7,5.5,2.2C-1055,407.5-1054.2,409.3-1054.2,411.4z"/>
			<path class="st8" d="M-994.5,420.5c-2.3,0-4.3-0.8-5.9-2.4c-1.6-1.6-2.5-3.5-2.5-5.7v-34.8l-26.5-54.1c-0.2-0.5-0.4-1.1-0.5-1.7
				c-0.1-0.6-0.2-1.3-0.2-1.9c0-2.2,0.9-4.1,2.6-5.6c1.7-1.5,3.7-2.3,5.8-2.3c1.3,0,2.6,0.3,3.8,0.8c1.2,0.6,2.1,1.4,2.9,2.6
				l20.7,43.2l20.7-43.2c0.7-1.2,1.7-2.1,2.9-2.6c1.2-0.5,2.4-0.8,3.8-0.8c2.2,0,4.1,0.8,5.8,2.3c1.7,1.6,2.5,3.4,2.5,5.6
				c0,0.5-0.1,1.1-0.2,1.8c-0.2,0.7-0.3,1.3-0.5,1.8l-26.5,54.3v34.7c0,2.1-0.8,4-2.4,5.6C-990.1,419.7-992.1,420.5-994.5,420.5z"/>
		</g>
		<g class="st1">
			<path class="st8" d="M-1220.4,32.7c-0.1,9.8,1.7,19.6,2,29.4c0,0.7,0,1.4,0,2.1c26.7-18.9,52.4-31.1,84.9-26
				c17.4,2.7,36.5,11.1,54.7,21.1c-17.8-34.7-54-58.4-95.6-58.4c-14.7,0-28.8,3-41.6,8.3C-1218.7,16.7-1220.3,24.7-1220.4,32.7z"/>
			<path class="st8" d="M-1178.6,176.6c32.3,1.4,64.7-4.8,95-16.1c-10.4,0-20.7-0.7-30.9-2.6c-16-3.1-31.4-9.4-44.9-18.4
				c28.5,9.2,60,8.8,88.3-0.9c2.8-9.5,4.2-19.6,4.2-30c0-14.2-2.8-27.8-7.8-40.2c-3.9-1.8-7.5-3.3-10.6-4.4
				c-16.4-5.7-32.9-11.4-50.1-13.7c-31.5-4.4-56.9,9.4-83.6,25.2c-2.5,19.4-11.4,37.8-24.7,49.8c6.5-9,6.8-22.1,5-33.6
				c-1.8-11.6-5.5-22.8-5.8-34.6c-0.4-13.1,3.3-26,9.4-37.1c-28.1,19.4-46.6,51.8-46.6,88.6c0,18.2,4.5,35.3,12.5,50.3
				C-1240.5,168.8-1209.6,175.2-1178.6,176.6z"/>
			<path class="st8" d="M-1143.1,187.8c-28.4,2.6-57.9-3.3-85.6-10.3c-12.5-3.1-24.8-6.8-36.6-11.7c19,30.1,52.6,50.1,90.9,50.1
				c33.3,0,63-15.1,82.7-38.8C-1106.3,182.4-1124,186.1-1143.1,187.8z"/>
		</g>
	</g>
	<g id="fitly_light" class="st0">
		<g class="st1">
			<path class="st18" d="M-831.3,373.7v39c0,2-0.8,3.8-2.4,5.4c-1.6,1.6-3.6,2.4-5.8,2.4c-2.3,0-4.3-0.8-5.9-2.4
				c-1.6-1.6-2.4-3.4-2.4-5.4v-90.6c0-2.2,0.9-4.2,2.6-6.1c1.7-1.8,4-2.8,6.7-2.8h40.7c2.3,0,4.2,0.8,5.8,2.3
				c1.6,1.6,2.4,3.4,2.4,5.5c0,2.2-0.8,4-2.4,5.4c-1.6,1.4-3.6,2.1-5.8,2.1h-33.5v29.7h30.6c2,0,3.8,0.7,5.5,2.2
				c1.7,1.5,2.6,3.3,2.6,5.5c0,2.2-0.8,4-2.3,5.5c-1.6,1.5-3.5,2.3-5.8,2.3H-831.3z"/>
			<path class="st18" d="M-743.7,412.7v-93c0-2.1,0.8-3.9,2.4-5.5c1.6-1.5,3.5-2.3,5.9-2.3c2.3,0,4.2,0.8,5.8,2.3
				c1.6,1.6,2.4,3.4,2.4,5.5v93c0,2-0.8,3.8-2.4,5.4c-1.6,1.6-3.6,2.4-5.8,2.4c-2.3,0-4.3-0.8-5.9-2.4
				C-742.9,416.6-743.7,414.8-743.7,412.7z"/>
			<path class="st18" d="M-657.5,412.7v-84h-18.2c-2.4,0-4.4-0.8-5.9-2.3c-1.6-1.5-2.3-3.3-2.3-5.3c0-1.7,0.8-3.4,2.4-5.2
				c1.6-1.7,3.5-2.6,5.8-2.6h52.8c2.1,0,4,0.8,5.8,2.3c1.7,1.5,2.6,3.4,2.6,5.5c0,2-0.8,3.8-2.5,5.3c-1.6,1.6-3.6,2.3-5.9,2.3H-641
				v84c0,2-0.8,3.8-2.4,5.4c-1.6,1.6-3.6,2.4-5.8,2.4c-2.3,0-4.3-0.8-5.9-2.4C-656.7,416.6-657.5,414.8-657.5,412.7z"/>
			<path class="st18" d="M-512,411.4c0,2.2-0.8,4-2.3,5.5c-1.6,1.5-3.4,2.2-5.6,2.2h-42.3c-2.4,0-4.5-0.8-6.3-2.5
				c-1.8-1.7-2.7-3.7-2.7-6.1v-90.8c0-2.1,0.8-3.9,2.4-5.5c1.6-1.5,3.5-2.3,5.9-2.3c2.3,0,4.2,0.8,5.8,2.3c1.6,1.6,2.4,3.4,2.4,5.5
				v84.1h34.8c2.1,0,3.9,0.7,5.5,2.2C-512.8,407.5-512,409.3-512,411.4z"/>
			<path class="st18" d="M-452.3,420.5c-2.3,0-4.3-0.8-5.9-2.4c-1.6-1.6-2.5-3.5-2.5-5.7v-34.8l-26.5-54.1c-0.2-0.5-0.4-1.1-0.5-1.7
				c-0.1-0.6-0.2-1.3-0.2-1.9c0-2.2,0.9-4.1,2.6-5.6c1.7-1.5,3.7-2.3,5.8-2.3c1.3,0,2.6,0.3,3.8,0.8c1.2,0.6,2.1,1.4,2.9,2.6
				l20.7,43.2l20.7-43.2c0.7-1.2,1.7-2.1,2.9-2.6c1.2-0.5,2.4-0.8,3.8-0.8c2.2,0,4.1,0.8,5.8,2.3c1.7,1.6,2.5,3.4,2.5,5.6
				c0,0.5-0.1,1.1-0.2,1.8c-0.2,0.7-0.3,1.3-0.5,1.8l-26.5,54.3v34.7c0,2.1-0.8,4-2.4,5.6C-447.9,419.7-449.9,420.5-452.3,420.5z"/>
		</g>
		<g class="st1">
			<linearGradient id="SVGID_4_" gradientUnits="userSpaceOnUse" x1="-607.3999" y1="0.9904" x2="-607.3999" y2="64.2412">
				<stop  offset="0" style="stop-color:#45D8FF"/>
				<stop  offset="1" style="stop-color:#43B9F9"/>
			</linearGradient>
			<path class="st19" d="M-678.2,32.7c-0.1,9.8,1.7,19.6,2,29.4c0,0.7,0,1.4,0,2.1c26.7-18.9,52.4-31.1,84.9-26
				c17.4,2.7,36.5,11.1,54.7,21.1C-554.4,24.7-590.5,1-632.2,1c-14.7,0-28.8,3-41.6,8.3C-676.5,16.7-678.1,24.7-678.2,32.7z"/>
			<linearGradient id="SVGID_5_" gradientUnits="userSpaceOnUse" x1="-632.1931" y1="19.887" x2="-632.1931" y2="176.7454">
				<stop  offset="0" style="stop-color:#3B3B3B"/>
				<stop  offset="1" style="stop-color:#050505"/>
			</linearGradient>
			<path class="st20" d="M-636.4,176.6c32.3,1.4,64.7-4.8,95-16.1c-10.4,0-20.7-0.7-30.9-2.6c-16-3.1-31.4-9.4-44.9-18.4
				c28.5,9.2,60,8.8,88.3-0.9c2.8-9.5,4.2-19.6,4.2-30c0-14.2-2.8-27.8-7.8-40.2c-3.9-1.8-7.5-3.3-10.6-4.4
				c-16.4-5.7-32.9-11.4-50.1-13.7c-31.5-4.4-56.9,9.4-83.6,25.2c-2.5,19.4-11.4,37.8-24.7,49.8c6.5-9,6.8-22.1,5-33.6
				c-1.8-11.6-5.5-22.8-5.8-34.6c-0.4-13.1,3.3-26,9.4-37.1c-28.1,19.4-46.6,51.8-46.6,88.6c0,18.2,4.5,35.3,12.5,50.3
				C-698.3,168.8-667.4,175.2-636.4,176.6z"/>
			<linearGradient id="SVGID_6_" gradientUnits="userSpaceOnUse" x1="-636.2897" y1="165.8373" x2="-636.2897" y2="215.9348">
				<stop  offset="0" style="stop-color:#43B9F9"/>
				<stop  offset="1" style="stop-color:#37A5E2"/>
			</linearGradient>
			<path class="st21" d="M-600.9,187.8c-28.4,2.6-57.9-3.3-85.6-10.3c-12.5-3.1-24.8-6.8-36.6-11.7c19,30.1,52.6,50.1,90.9,50.1
				c33.3,0,63-15.1,82.7-38.8C-564.1,182.4-581.8,186.1-600.9,187.8z"/>
		</g>
	</g>
	<g id="fitly_dark">
		<rect x="-333.3" y="-194.3" class="st22" width="876" height="817.5"/>
		<g>
			<path class="st23" d="M-90.4,373.7v39c0,2-0.8,3.8-2.4,5.4c-1.6,1.6-3.6,2.4-5.8,2.4c-2.3,0-4.3-0.8-5.8-2.4
				c-1.6-1.6-2.4-3.4-2.4-5.4v-90.6c0-2.2,0.9-4.2,2.6-6.1c1.7-1.8,4-2.8,6.7-2.8h40.7c2.3,0,4.2,0.8,5.8,2.3
				c1.6,1.6,2.4,3.4,2.4,5.5c0,2.2-0.8,4-2.4,5.4c-1.6,1.4-3.6,2.1-5.8,2.1h-33.5v29.7h30.6c2,0,3.8,0.7,5.6,2.2
				c1.7,1.5,2.6,3.3,2.6,5.5c0,2.2-0.8,4-2.3,5.5c-1.6,1.5-3.5,2.3-5.8,2.3H-90.4z"/>
			<path class="st23" d="M-2.8,412.7v-93c0-2.1,0.8-3.9,2.4-5.5c1.6-1.5,3.5-2.3,5.9-2.3c2.3,0,4.2,0.8,5.8,2.3
				c1.6,1.6,2.4,3.4,2.4,5.5v93c0,2-0.8,3.8-2.4,5.4c-1.6,1.6-3.6,2.4-5.8,2.4c-2.3,0-4.3-0.8-5.9-2.4C-2,416.6-2.8,414.8-2.8,412.7
				z"/>
			<path class="st23" d="M83.5,412.7v-84H65.3c-2.4,0-4.4-0.8-5.9-2.3c-1.6-1.5-2.3-3.3-2.3-5.3c0-1.7,0.8-3.4,2.4-5.2
				c1.6-1.7,3.5-2.6,5.8-2.6h52.8c2.1,0,4,0.8,5.8,2.3c1.7,1.5,2.6,3.4,2.6,5.5c0,2-0.8,3.8-2.5,5.3c-1.6,1.6-3.6,2.3-5.9,2.3H100
				v84c0,2-0.8,3.8-2.4,5.4c-1.6,1.6-3.6,2.4-5.8,2.4c-2.3,0-4.3-0.8-5.8-2.4C84.3,416.6,83.5,414.8,83.5,412.7z"/>
			<path class="st23" d="M229,411.4c0,2.2-0.8,4-2.3,5.5c-1.6,1.5-3.4,2.2-5.6,2.2h-42.3c-2.4,0-4.5-0.8-6.3-2.5
				c-1.8-1.7-2.7-3.7-2.7-6.1v-90.8c0-2.1,0.8-3.9,2.4-5.5c1.6-1.5,3.5-2.3,5.8-2.3c2.3,0,4.3,0.8,5.8,2.3c1.6,1.6,2.4,3.4,2.4,5.5
				v84.1H221c2.1,0,3.9,0.7,5.5,2.2C228.2,407.5,229,409.3,229,411.4z"/>
			<path class="st23" d="M288.7,420.5c-2.3,0-4.3-0.8-5.9-2.4c-1.6-1.6-2.5-3.5-2.5-5.7v-34.8l-26.5-54.1c-0.2-0.5-0.4-1.1-0.5-1.7
				c-0.2-0.6-0.2-1.3-0.2-1.9c0-2.2,0.9-4.1,2.6-5.6c1.7-1.5,3.7-2.3,5.8-2.3c1.3,0,2.6,0.3,3.8,0.8c1.2,0.6,2.2,1.4,2.9,2.6
				l20.7,43.2l20.7-43.2c0.7-1.2,1.7-2.1,2.9-2.6c1.2-0.5,2.4-0.8,3.8-0.8c2.2,0,4.1,0.8,5.8,2.3c1.7,1.6,2.5,3.4,2.5,5.6
				c0,0.5-0.1,1.1-0.2,1.8c-0.2,0.7-0.3,1.3-0.5,1.8l-26.5,54.3v34.7c0,2.1-0.8,4-2.4,5.6C293.1,419.7,291.1,420.5,288.7,420.5z"/>
		</g>
		<g>
			<linearGradient id="SVGID_7_" gradientUnits="userSpaceOnUse" x1="133.563" y1="0.9904" x2="133.563" y2="64.2412">
				<stop  offset="0" style="stop-color:#45D8FF"/>
				<stop  offset="1" style="stop-color:#43B9F9"/>
			</linearGradient>
			<path class="st24" d="M62.8,32.7c-0.1,9.8,1.7,19.6,2,29.4c0,0.7,0,1.4,0,2.1c26.7-18.9,52.4-31.1,84.9-26
				c17.4,2.7,36.5,11.1,54.7,21.1C186.5,24.7,150.4,1,108.8,1C94,1,80,4,67.2,9.3C64.4,16.7,62.9,24.7,62.8,32.7z"/>
			<linearGradient id="SVGID_8_" gradientUnits="userSpaceOnUse" x1="108.7698" y1="56.4351" x2="108.7698" y2="180.4714">
				<stop  offset="0" style="stop-color:#FFFFFF"/>
				<stop  offset="1" style="stop-color:#E0E0E0"/>
			</linearGradient>
			<path class="st25" d="M104.6,176.6c32.3,1.4,64.7-4.8,95-16.1c-10.4,0-20.7-0.7-30.9-2.6c-16-3.1-31.4-9.4-44.9-18.4
				c28.5,9.2,60,8.8,88.3-0.9c2.8-9.5,4.2-19.6,4.2-30c0-14.2-2.8-27.8-7.8-40.2c-3.9-1.8-7.5-3.3-10.6-4.4
				c-16.4-5.7-32.9-11.4-50.1-13.7c-31.5-4.4-56.9,9.4-83.6,25.2c-2.5,19.4-11.4,37.8-24.7,49.8c6.5-9,6.8-22.1,5-33.6
				S38.9,68.7,38.5,57c-0.4-13.1,3.3-26,9.4-37.1C19.8,39.3,1.3,71.7,1.3,108.5c0,18.2,4.5,35.3,12.5,50.3
				C42.6,168.8,73.5,175.2,104.6,176.6z"/>
			<linearGradient id="SVGID_9_" gradientUnits="userSpaceOnUse" x1="104.6732" y1="165.8373" x2="104.6732" y2="215.9348">
				<stop  offset="0" style="stop-color:#43B9F9"/>
				<stop  offset="1" style="stop-color:#37A5E2"/>
			</linearGradient>
			<path class="st26" d="M140.1,187.8c-28.4,2.6-57.9-3.3-85.6-10.3c-12.5-3.1-24.8-6.8-36.6-11.7c19,30.1,52.6,50.1,90.9,50.1
				c33.3,0,63-15.1,82.7-38.8C176.8,182.4,159.2,186.1,140.1,187.8z"/>
		</g>
		<g>
			
				<text transform="matrix(1 0 0 1 -2584.3562 -391.696)" class="st14" style="font-family:'BloggerSans-Medium'; font-size:150px; letter-spacing:30;">Blogger Sans Medium 150pt 200leading</text>
		</g>
	</g>
</g>
<g id="Layer_21">
</g>
</svg>
